<?xml version="1.0" encoding="utf-8"?>
<svg xmlns="http://www.w3.org/2000/svg" xmlns:xlink="http://www.w3.org/1999/xlink" width="600" height="400" viewBox="0 0 2400 1600">
<defs>
  <clipPath id="clip280">
    <rect x="0" y="0" width="2400" height="1600"/>
  </clipPath>
</defs>
<path clip-path="url(#clip280)" d="
M0 1600 L2400 1600 L2400 0 L0 0  Z
  " fill="#ffffff" fill-rule="evenodd" fill-opacity="1"/>
<defs>
  <clipPath id="clip281">
    <rect x="480" y="0" width="1681" height="1600"/>
  </clipPath>
</defs>
<path clip-path="url(#clip280)" d="
M202.459 1423.18 L2352.76 1423.18 L2352.76 47.2441 L202.459 47.2441  Z
  " fill="#ffffff" fill-rule="evenodd" fill-opacity="1"/>
<defs>
  <clipPath id="clip282">
    <rect x="202" y="47" width="2151" height="1377"/>
  </clipPath>
</defs>
<polyline clip-path="url(#clip282)" style="stroke:#000000; stroke-width:2; stroke-opacity:0.1; fill:none" points="
  320.729,1423.18 320.729,47.2441 
  "/>
<polyline clip-path="url(#clip282)" style="stroke:#000000; stroke-width:2; stroke-opacity:0.1; fill:none" points="
  703.48,1423.18 703.48,47.2441 
  "/>
<polyline clip-path="url(#clip282)" style="stroke:#000000; stroke-width:2; stroke-opacity:0.1; fill:none" points="
  1086.23,1423.18 1086.23,47.2441 
  "/>
<polyline clip-path="url(#clip282)" style="stroke:#000000; stroke-width:2; stroke-opacity:0.1; fill:none" points="
  1468.98,1423.18 1468.98,47.2441 
  "/>
<polyline clip-path="url(#clip282)" style="stroke:#000000; stroke-width:2; stroke-opacity:0.1; fill:none" points="
  1851.73,1423.18 1851.73,47.2441 
  "/>
<polyline clip-path="url(#clip282)" style="stroke:#000000; stroke-width:2; stroke-opacity:0.1; fill:none" points="
  2234.49,1423.18 2234.49,47.2441 
  "/>
<polyline clip-path="url(#clip282)" style="stroke:#000000; stroke-width:2; stroke-opacity:0.1; fill:none" points="
  202.459,1384.24 2352.76,1384.24 
  "/>
<polyline clip-path="url(#clip282)" style="stroke:#000000; stroke-width:2; stroke-opacity:0.1; fill:none" points="
  202.459,1051.4 2352.76,1051.4 
  "/>
<polyline clip-path="url(#clip282)" style="stroke:#000000; stroke-width:2; stroke-opacity:0.1; fill:none" points="
  202.459,718.57 2352.76,718.57 
  "/>
<polyline clip-path="url(#clip282)" style="stroke:#000000; stroke-width:2; stroke-opacity:0.1; fill:none" points="
  202.459,385.736 2352.76,385.736 
  "/>
<polyline clip-path="url(#clip282)" style="stroke:#000000; stroke-width:2; stroke-opacity:0.1; fill:none" points="
  202.459,52.9023 2352.76,52.9023 
  "/>
<polyline clip-path="url(#clip280)" style="stroke:#000000; stroke-width:4; stroke-opacity:1; fill:none" points="
  202.459,1423.18 2352.76,1423.18 
  "/>
<polyline clip-path="url(#clip280)" style="stroke:#000000; stroke-width:4; stroke-opacity:1; fill:none" points="
  202.459,1423.18 202.459,47.2441 
  "/>
<polyline clip-path="url(#clip280)" style="stroke:#000000; stroke-width:4; stroke-opacity:1; fill:none" points="
  320.729,1423.18 320.729,1406.67 
  "/>
<polyline clip-path="url(#clip280)" style="stroke:#000000; stroke-width:4; stroke-opacity:1; fill:none" points="
  703.48,1423.18 703.48,1406.67 
  "/>
<polyline clip-path="url(#clip280)" style="stroke:#000000; stroke-width:4; stroke-opacity:1; fill:none" points="
  1086.23,1423.18 1086.23,1406.67 
  "/>
<polyline clip-path="url(#clip280)" style="stroke:#000000; stroke-width:4; stroke-opacity:1; fill:none" points="
  1468.98,1423.18 1468.98,1406.67 
  "/>
<polyline clip-path="url(#clip280)" style="stroke:#000000; stroke-width:4; stroke-opacity:1; fill:none" points="
  1851.73,1423.18 1851.73,1406.67 
  "/>
<polyline clip-path="url(#clip280)" style="stroke:#000000; stroke-width:4; stroke-opacity:1; fill:none" points="
  2234.49,1423.18 2234.49,1406.67 
  "/>
<polyline clip-path="url(#clip280)" style="stroke:#000000; stroke-width:4; stroke-opacity:1; fill:none" points="
  202.459,1384.24 228.263,1384.24 
  "/>
<polyline clip-path="url(#clip280)" style="stroke:#000000; stroke-width:4; stroke-opacity:1; fill:none" points="
  202.459,1051.4 228.263,1051.4 
  "/>
<polyline clip-path="url(#clip280)" style="stroke:#000000; stroke-width:4; stroke-opacity:1; fill:none" points="
  202.459,718.57 228.263,718.57 
  "/>
<polyline clip-path="url(#clip280)" style="stroke:#000000; stroke-width:4; stroke-opacity:1; fill:none" points="
  202.459,385.736 228.263,385.736 
  "/>
<polyline clip-path="url(#clip280)" style="stroke:#000000; stroke-width:4; stroke-opacity:1; fill:none" points="
  202.459,52.9023 228.263,52.9023 
  "/>
<path clip-path="url(#clip280)" d="M 0 0 M275.232 1445.17 Q271.621 1445.17 269.792 1448.74 Q267.986 1452.28 267.986 1459.41 Q267.986 1466.51 269.792 1470.08 Q271.621 1473.62 275.232 1473.62 Q278.866 1473.62 280.671 1470.08 Q282.5 1466.51 282.5 1459.41 Q282.5 1452.28 280.671 1448.74 Q278.866 1445.17 275.232 1445.17 M275.232 1441.47 Q281.042 1441.47 284.097 1446.07 Q287.176 1450.66 287.176 1459.41 Q287.176 1468.13 284.097 1472.74 Q281.042 1477.32 275.232 1477.32 Q269.422 1477.32 266.343 1472.74 Q263.287 1468.13 263.287 1459.41 Q263.287 1450.66 266.343 1446.07 Q269.422 1441.47 275.232 1441.47 Z" fill="#000000" fill-rule="evenodd" fill-opacity="1" /><path clip-path="url(#clip280)" d="M 0 0 M292.245 1470.77 L297.13 1470.77 L297.13 1476.65 L292.245 1476.65 L292.245 1470.77 Z" fill="#000000" fill-rule="evenodd" fill-opacity="1" /><path clip-path="url(#clip280)" d="M 0 0 M312.199 1445.17 Q308.588 1445.17 306.759 1448.74 Q304.954 1452.28 304.954 1459.41 Q304.954 1466.51 306.759 1470.08 Q308.588 1473.62 312.199 1473.62 Q315.833 1473.62 317.639 1470.08 Q319.468 1466.51 319.468 1459.41 Q319.468 1452.28 317.639 1448.74 Q315.833 1445.17 312.199 1445.17 M312.199 1441.47 Q318.009 1441.47 321.065 1446.07 Q324.143 1450.66 324.143 1459.41 Q324.143 1468.13 321.065 1472.74 Q318.009 1477.32 312.199 1477.32 Q306.389 1477.32 303.31 1472.74 Q300.255 1468.13 300.255 1459.41 Q300.255 1450.66 303.31 1446.07 Q306.389 1441.47 312.199 1441.47 Z" fill="#000000" fill-rule="evenodd" fill-opacity="1" /><path clip-path="url(#clip280)" d="M 0 0 M339.213 1445.17 Q335.602 1445.17 333.773 1448.74 Q331.967 1452.28 331.967 1459.41 Q331.967 1466.51 333.773 1470.08 Q335.602 1473.62 339.213 1473.62 Q342.847 1473.62 344.653 1470.08 Q346.481 1466.51 346.481 1459.41 Q346.481 1452.28 344.653 1448.74 Q342.847 1445.17 339.213 1445.17 M339.213 1441.47 Q345.023 1441.47 348.079 1446.07 Q351.157 1450.66 351.157 1459.41 Q351.157 1468.13 348.079 1472.74 Q345.023 1477.32 339.213 1477.32 Q333.403 1477.32 330.324 1472.74 Q327.268 1468.13 327.268 1459.41 Q327.268 1450.66 330.324 1446.07 Q333.403 1441.47 339.213 1441.47 Z" fill="#000000" fill-rule="evenodd" fill-opacity="1" /><path clip-path="url(#clip280)" d="M 0 0 M366.227 1445.17 Q362.615 1445.17 360.787 1448.74 Q358.981 1452.28 358.981 1459.41 Q358.981 1466.51 360.787 1470.08 Q362.615 1473.62 366.227 1473.62 Q369.861 1473.62 371.666 1470.08 Q373.495 1466.51 373.495 1459.41 Q373.495 1452.28 371.666 1448.74 Q369.861 1445.17 366.227 1445.17 M366.227 1441.47 Q372.037 1441.47 375.092 1446.07 Q378.171 1450.66 378.171 1459.41 Q378.171 1468.13 375.092 1472.74 Q372.037 1477.32 366.227 1477.32 Q360.416 1477.32 357.338 1472.74 Q354.282 1468.13 354.282 1459.41 Q354.282 1450.66 357.338 1446.07 Q360.416 1441.47 366.227 1441.47 Z" fill="#000000" fill-rule="evenodd" fill-opacity="1" /><path clip-path="url(#clip280)" d="M 0 0 M658.596 1445.17 Q654.985 1445.17 653.157 1448.74 Q651.351 1452.28 651.351 1459.41 Q651.351 1466.51 653.157 1470.08 Q654.985 1473.62 658.596 1473.62 Q662.231 1473.62 664.036 1470.08 Q665.865 1466.51 665.865 1459.41 Q665.865 1452.28 664.036 1448.74 Q662.231 1445.17 658.596 1445.17 M658.596 1441.47 Q664.407 1441.47 667.462 1446.07 Q670.541 1450.66 670.541 1459.41 Q670.541 1468.13 667.462 1472.74 Q664.407 1477.32 658.596 1477.32 Q652.786 1477.32 649.708 1472.74 Q646.652 1468.13 646.652 1459.41 Q646.652 1450.66 649.708 1446.07 Q652.786 1441.47 658.596 1441.47 Z" fill="#000000" fill-rule="evenodd" fill-opacity="1" /><path clip-path="url(#clip280)" d="M 0 0 M675.61 1470.77 L680.494 1470.77 L680.494 1476.65 L675.61 1476.65 L675.61 1470.77 Z" fill="#000000" fill-rule="evenodd" fill-opacity="1" /><path clip-path="url(#clip280)" d="M 0 0 M695.564 1445.17 Q691.953 1445.17 690.124 1448.74 Q688.318 1452.28 688.318 1459.41 Q688.318 1466.51 690.124 1470.08 Q691.953 1473.62 695.564 1473.62 Q699.198 1473.62 701.004 1470.08 Q702.832 1466.51 702.832 1459.41 Q702.832 1452.28 701.004 1448.74 Q699.198 1445.17 695.564 1445.17 M695.564 1441.47 Q701.374 1441.47 704.43 1446.07 Q707.508 1450.66 707.508 1459.41 Q707.508 1468.13 704.43 1472.74 Q701.374 1477.32 695.564 1477.32 Q689.754 1477.32 686.675 1472.74 Q683.619 1468.13 683.619 1459.41 Q683.619 1450.66 686.675 1446.07 Q689.754 1441.47 695.564 1441.47 Z" fill="#000000" fill-rule="evenodd" fill-opacity="1" /><path clip-path="url(#clip280)" d="M 0 0 M722.578 1445.17 Q718.966 1445.17 717.138 1448.74 Q715.332 1452.28 715.332 1459.41 Q715.332 1466.51 717.138 1470.08 Q718.966 1473.62 722.578 1473.62 Q726.212 1473.62 728.017 1470.08 Q729.846 1466.51 729.846 1459.41 Q729.846 1452.28 728.017 1448.74 Q726.212 1445.17 722.578 1445.17 M722.578 1441.47 Q728.388 1441.47 731.443 1446.07 Q734.522 1450.66 734.522 1459.41 Q734.522 1468.13 731.443 1472.74 Q728.388 1477.32 722.578 1477.32 Q716.767 1477.32 713.689 1472.74 Q710.633 1468.13 710.633 1459.41 Q710.633 1450.66 713.689 1446.07 Q716.767 1441.47 722.578 1441.47 Z" fill="#000000" fill-rule="evenodd" fill-opacity="1" /><path clip-path="url(#clip280)" d="M 0 0 M740.402 1472.72 L748.04 1472.72 L748.04 1446.35 L739.73 1448.02 L739.73 1443.76 L747.994 1442.09 L752.67 1442.09 L752.67 1472.72 L760.309 1472.72 L760.309 1476.65 L740.402 1476.65 L740.402 1472.72 Z" fill="#000000" fill-rule="evenodd" fill-opacity="1" /><path clip-path="url(#clip280)" d="M 0 0 M1041.53 1445.17 Q1037.92 1445.17 1036.09 1448.74 Q1034.29 1452.28 1034.29 1459.41 Q1034.29 1466.51 1036.09 1470.08 Q1037.92 1473.62 1041.53 1473.62 Q1045.17 1473.62 1046.97 1470.08 Q1048.8 1466.51 1048.8 1459.41 Q1048.8 1452.28 1046.97 1448.74 Q1045.17 1445.17 1041.53 1445.17 M1041.53 1441.47 Q1047.34 1441.47 1050.4 1446.07 Q1053.48 1450.66 1053.48 1459.41 Q1053.48 1468.13 1050.4 1472.74 Q1047.34 1477.32 1041.53 1477.32 Q1035.72 1477.32 1032.64 1472.74 Q1029.59 1468.13 1029.59 1459.41 Q1029.59 1450.66 1032.64 1446.07 Q1035.72 1441.47 1041.53 1441.47 Z" fill="#000000" fill-rule="evenodd" fill-opacity="1" /><path clip-path="url(#clip280)" d="M 0 0 M1058.55 1470.77 L1063.43 1470.77 L1063.43 1476.65 L1058.55 1476.65 L1058.55 1470.77 Z" fill="#000000" fill-rule="evenodd" fill-opacity="1" /><path clip-path="url(#clip280)" d="M 0 0 M1078.5 1445.17 Q1074.89 1445.17 1073.06 1448.74 Q1071.25 1452.28 1071.25 1459.41 Q1071.25 1466.51 1073.06 1470.08 Q1074.89 1473.62 1078.5 1473.62 Q1082.13 1473.62 1083.94 1470.08 Q1085.77 1466.51 1085.77 1459.41 Q1085.77 1452.28 1083.94 1448.74 Q1082.13 1445.17 1078.5 1445.17 M1078.5 1441.47 Q1084.31 1441.47 1087.37 1446.07 Q1090.44 1450.66 1090.44 1459.41 Q1090.44 1468.13 1087.37 1472.74 Q1084.31 1477.32 1078.5 1477.32 Q1072.69 1477.32 1069.61 1472.74 Q1066.56 1468.13 1066.56 1459.41 Q1066.56 1450.66 1069.61 1446.07 Q1072.69 1441.47 1078.5 1441.47 Z" fill="#000000" fill-rule="evenodd" fill-opacity="1" /><path clip-path="url(#clip280)" d="M 0 0 M1105.51 1445.17 Q1101.9 1445.17 1100.07 1448.74 Q1098.27 1452.28 1098.27 1459.41 Q1098.27 1466.51 1100.07 1470.08 Q1101.9 1473.62 1105.51 1473.62 Q1109.15 1473.62 1110.95 1470.08 Q1112.78 1466.51 1112.78 1459.41 Q1112.78 1452.28 1110.95 1448.74 Q1109.15 1445.17 1105.51 1445.17 M1105.51 1441.47 Q1111.32 1441.47 1114.38 1446.07 Q1117.46 1450.66 1117.46 1459.41 Q1117.46 1468.13 1114.38 1472.74 Q1111.32 1477.32 1105.51 1477.32 Q1099.7 1477.32 1096.63 1472.74 Q1093.57 1468.13 1093.57 1459.41 Q1093.57 1450.66 1096.63 1446.07 Q1099.7 1441.47 1105.51 1441.47 Z" fill="#000000" fill-rule="evenodd" fill-opacity="1" /><path clip-path="url(#clip280)" d="M 0 0 M1126.56 1472.72 L1142.87 1472.72 L1142.87 1476.65 L1120.93 1476.65 L1120.93 1472.72 Q1123.59 1469.96 1128.18 1465.33 Q1132.78 1460.68 1133.96 1459.34 Q1136.21 1456.81 1137.09 1455.08 Q1137.99 1453.32 1137.99 1451.63 Q1137.99 1448.87 1136.05 1447.14 Q1134.13 1445.4 1131.02 1445.4 Q1128.82 1445.4 1126.37 1446.17 Q1123.94 1446.93 1121.16 1448.48 L1121.16 1443.76 Q1123.99 1442.62 1126.44 1442.05 Q1128.89 1441.47 1130.93 1441.47 Q1136.3 1441.47 1139.5 1444.15 Q1142.69 1446.84 1142.69 1451.33 Q1142.69 1453.46 1141.88 1455.38 Q1141.09 1457.28 1138.99 1459.87 Q1138.41 1460.54 1135.31 1463.76 Q1132.2 1466.95 1126.56 1472.72 Z" fill="#000000" fill-rule="evenodd" fill-opacity="1" /><path clip-path="url(#clip280)" d="M 0 0 M1423.81 1445.17 Q1420.2 1445.17 1418.37 1448.74 Q1416.56 1452.28 1416.56 1459.41 Q1416.56 1466.51 1418.37 1470.08 Q1420.2 1473.62 1423.81 1473.62 Q1427.44 1473.62 1429.25 1470.08 Q1431.08 1466.51 1431.08 1459.41 Q1431.08 1452.28 1429.25 1448.74 Q1427.44 1445.17 1423.81 1445.17 M1423.81 1441.47 Q1429.62 1441.47 1432.68 1446.07 Q1435.75 1450.66 1435.75 1459.41 Q1435.75 1468.13 1432.68 1472.74 Q1429.62 1477.32 1423.81 1477.32 Q1418 1477.32 1414.92 1472.74 Q1411.87 1468.13 1411.87 1459.41 Q1411.87 1450.66 1414.92 1446.07 Q1418 1441.47 1423.81 1441.47 Z" fill="#000000" fill-rule="evenodd" fill-opacity="1" /><path clip-path="url(#clip280)" d="M 0 0 M1440.82 1470.77 L1445.71 1470.77 L1445.71 1476.65 L1440.82 1476.65 L1440.82 1470.77 Z" fill="#000000" fill-rule="evenodd" fill-opacity="1" /><path clip-path="url(#clip280)" d="M 0 0 M1460.78 1445.17 Q1457.17 1445.17 1455.34 1448.74 Q1453.53 1452.28 1453.53 1459.41 Q1453.53 1466.51 1455.34 1470.08 Q1457.17 1473.62 1460.78 1473.62 Q1464.41 1473.62 1466.22 1470.08 Q1468.05 1466.51 1468.05 1459.41 Q1468.05 1452.28 1466.22 1448.74 Q1464.41 1445.17 1460.78 1445.17 M1460.78 1441.47 Q1466.59 1441.47 1469.64 1446.07 Q1472.72 1450.66 1472.72 1459.41 Q1472.72 1468.13 1469.64 1472.74 Q1466.59 1477.32 1460.78 1477.32 Q1454.97 1477.32 1451.89 1472.74 Q1448.83 1468.13 1448.83 1459.41 Q1448.83 1450.66 1451.89 1446.07 Q1454.97 1441.47 1460.78 1441.47 Z" fill="#000000" fill-rule="evenodd" fill-opacity="1" /><path clip-path="url(#clip280)" d="M 0 0 M1487.79 1445.17 Q1484.18 1445.17 1482.35 1448.74 Q1480.55 1452.28 1480.55 1459.41 Q1480.55 1466.51 1482.35 1470.08 Q1484.18 1473.62 1487.79 1473.62 Q1491.43 1473.62 1493.23 1470.08 Q1495.06 1466.51 1495.06 1459.41 Q1495.06 1452.28 1493.23 1448.74 Q1491.43 1445.17 1487.79 1445.17 M1487.79 1441.47 Q1493.6 1441.47 1496.66 1446.07 Q1499.74 1450.66 1499.74 1459.41 Q1499.74 1468.13 1496.66 1472.74 Q1493.6 1477.32 1487.79 1477.32 Q1481.98 1477.32 1478.9 1472.74 Q1475.85 1468.13 1475.85 1459.41 Q1475.85 1450.66 1478.9 1446.07 Q1481.98 1441.47 1487.79 1441.47 Z" fill="#000000" fill-rule="evenodd" fill-opacity="1" /><path clip-path="url(#clip280)" d="M 0 0 M1518.97 1458.02 Q1522.33 1458.74 1524.2 1461 Q1526.1 1463.27 1526.1 1466.61 Q1526.1 1471.72 1522.58 1474.52 Q1519.06 1477.32 1512.58 1477.32 Q1510.41 1477.32 1508.09 1476.88 Q1505.8 1476.47 1503.35 1475.61 L1503.35 1471.1 Q1505.29 1472.23 1507.61 1472.81 Q1509.92 1473.39 1512.44 1473.39 Q1516.84 1473.39 1519.13 1471.65 Q1521.45 1469.92 1521.45 1466.61 Q1521.45 1463.55 1519.3 1461.84 Q1517.17 1460.1 1513.35 1460.1 L1509.32 1460.1 L1509.32 1456.26 L1513.53 1456.26 Q1516.98 1456.26 1518.81 1454.89 Q1520.64 1453.5 1520.64 1450.91 Q1520.64 1448.25 1518.74 1446.84 Q1516.86 1445.4 1513.35 1445.4 Q1511.42 1445.4 1509.23 1445.82 Q1507.03 1446.24 1504.39 1447.11 L1504.39 1442.95 Q1507.05 1442.21 1509.36 1441.84 Q1511.7 1441.47 1513.76 1441.47 Q1519.09 1441.47 1522.19 1443.9 Q1525.29 1446.3 1525.29 1450.43 Q1525.29 1453.3 1523.65 1455.29 Q1522 1457.25 1518.97 1458.02 Z" fill="#000000" fill-rule="evenodd" fill-opacity="1" /><path clip-path="url(#clip280)" d="M 0 0 M1805.99 1445.17 Q1802.38 1445.17 1800.55 1448.74 Q1798.75 1452.28 1798.75 1459.41 Q1798.75 1466.51 1800.55 1470.08 Q1802.38 1473.62 1805.99 1473.62 Q1809.63 1473.62 1811.43 1470.08 Q1813.26 1466.51 1813.26 1459.41 Q1813.26 1452.28 1811.43 1448.74 Q1809.63 1445.17 1805.99 1445.17 M1805.99 1441.47 Q1811.8 1441.47 1814.86 1446.07 Q1817.94 1450.66 1817.94 1459.41 Q1817.94 1468.13 1814.86 1472.74 Q1811.8 1477.32 1805.99 1477.32 Q1800.18 1477.32 1797.11 1472.74 Q1794.05 1468.13 1794.05 1459.41 Q1794.05 1450.66 1797.11 1446.07 Q1800.18 1441.47 1805.99 1441.47 Z" fill="#000000" fill-rule="evenodd" fill-opacity="1" /><path clip-path="url(#clip280)" d="M 0 0 M1823.01 1470.77 L1827.89 1470.77 L1827.89 1476.65 L1823.01 1476.65 L1823.01 1470.77 Z" fill="#000000" fill-rule="evenodd" fill-opacity="1" /><path clip-path="url(#clip280)" d="M 0 0 M1842.96 1445.17 Q1839.35 1445.17 1837.52 1448.74 Q1835.72 1452.28 1835.72 1459.41 Q1835.72 1466.51 1837.52 1470.08 Q1839.35 1473.62 1842.96 1473.62 Q1846.6 1473.62 1848.4 1470.08 Q1850.23 1466.51 1850.23 1459.41 Q1850.23 1452.28 1848.4 1448.74 Q1846.6 1445.17 1842.96 1445.17 M1842.96 1441.47 Q1848.77 1441.47 1851.83 1446.07 Q1854.91 1450.66 1854.91 1459.41 Q1854.91 1468.13 1851.83 1472.74 Q1848.77 1477.32 1842.96 1477.32 Q1837.15 1477.32 1834.07 1472.74 Q1831.02 1468.13 1831.02 1459.41 Q1831.02 1450.66 1834.07 1446.07 Q1837.15 1441.47 1842.96 1441.47 Z" fill="#000000" fill-rule="evenodd" fill-opacity="1" /><path clip-path="url(#clip280)" d="M 0 0 M1869.98 1445.17 Q1866.36 1445.17 1864.54 1448.74 Q1862.73 1452.28 1862.73 1459.41 Q1862.73 1466.51 1864.54 1470.08 Q1866.36 1473.62 1869.98 1473.62 Q1873.61 1473.62 1875.41 1470.08 Q1877.24 1466.51 1877.24 1459.41 Q1877.24 1452.28 1875.41 1448.74 Q1873.61 1445.17 1869.98 1445.17 M1869.98 1441.47 Q1875.79 1441.47 1878.84 1446.07 Q1881.92 1450.66 1881.92 1459.41 Q1881.92 1468.13 1878.84 1472.74 Q1875.79 1477.32 1869.98 1477.32 Q1864.16 1477.32 1861.09 1472.74 Q1858.03 1468.13 1858.03 1459.41 Q1858.03 1450.66 1861.09 1446.07 Q1864.16 1441.47 1869.98 1441.47 Z" fill="#000000" fill-rule="evenodd" fill-opacity="1" /><path clip-path="url(#clip280)" d="M 0 0 M1899.84 1446.17 L1888.03 1464.61 L1899.84 1464.61 L1899.84 1446.17 M1898.61 1442.09 L1904.49 1442.09 L1904.49 1464.61 L1909.42 1464.61 L1909.42 1468.5 L1904.49 1468.5 L1904.49 1476.65 L1899.84 1476.65 L1899.84 1468.5 L1884.23 1468.5 L1884.23 1463.99 L1898.61 1442.09 Z" fill="#000000" fill-rule="evenodd" fill-opacity="1" /><path clip-path="url(#clip280)" d="M 0 0 M2189.49 1445.17 Q2185.87 1445.17 2184.05 1448.74 Q2182.24 1452.28 2182.24 1459.41 Q2182.24 1466.51 2184.05 1470.08 Q2185.87 1473.62 2189.49 1473.62 Q2193.12 1473.62 2194.93 1470.08 Q2196.75 1466.51 2196.75 1459.41 Q2196.75 1452.28 2194.93 1448.74 Q2193.12 1445.17 2189.49 1445.17 M2189.49 1441.47 Q2195.3 1441.47 2198.35 1446.07 Q2201.43 1450.66 2201.43 1459.41 Q2201.43 1468.13 2198.35 1472.74 Q2195.3 1477.32 2189.49 1477.32 Q2183.68 1477.32 2180.6 1472.74 Q2177.54 1468.13 2177.54 1459.41 Q2177.54 1450.66 2180.6 1446.07 Q2183.68 1441.47 2189.49 1441.47 Z" fill="#000000" fill-rule="evenodd" fill-opacity="1" /><path clip-path="url(#clip280)" d="M 0 0 M2206.5 1470.77 L2211.38 1470.77 L2211.38 1476.65 L2206.5 1476.65 L2206.5 1470.77 Z" fill="#000000" fill-rule="evenodd" fill-opacity="1" /><path clip-path="url(#clip280)" d="M 0 0 M2226.45 1445.17 Q2222.84 1445.17 2221.01 1448.74 Q2219.21 1452.28 2219.21 1459.41 Q2219.21 1466.51 2221.01 1470.08 Q2222.84 1473.62 2226.45 1473.62 Q2230.09 1473.62 2231.89 1470.08 Q2233.72 1466.51 2233.72 1459.41 Q2233.72 1452.28 2231.89 1448.74 Q2230.09 1445.17 2226.45 1445.17 M2226.45 1441.47 Q2232.26 1441.47 2235.32 1446.07 Q2238.4 1450.66 2238.4 1459.41 Q2238.4 1468.13 2235.32 1472.74 Q2232.26 1477.32 2226.45 1477.32 Q2220.64 1477.32 2217.56 1472.74 Q2214.51 1468.13 2214.51 1459.41 Q2214.51 1450.66 2217.56 1446.07 Q2220.64 1441.47 2226.45 1441.47 Z" fill="#000000" fill-rule="evenodd" fill-opacity="1" /><path clip-path="url(#clip280)" d="M 0 0 M2253.47 1445.17 Q2249.86 1445.17 2248.03 1448.74 Q2246.22 1452.28 2246.22 1459.41 Q2246.22 1466.51 2248.03 1470.08 Q2249.86 1473.62 2253.47 1473.62 Q2257.1 1473.62 2258.91 1470.08 Q2260.74 1466.51 2260.74 1459.41 Q2260.74 1452.28 2258.91 1448.74 Q2257.1 1445.17 2253.47 1445.17 M2253.47 1441.47 Q2259.28 1441.47 2262.33 1446.07 Q2265.41 1450.66 2265.41 1459.41 Q2265.41 1468.13 2262.33 1472.74 Q2259.28 1477.32 2253.47 1477.32 Q2247.66 1477.32 2244.58 1472.74 Q2241.52 1468.13 2241.52 1459.41 Q2241.52 1450.66 2244.58 1446.07 Q2247.66 1441.47 2253.47 1441.47 Z" fill="#000000" fill-rule="evenodd" fill-opacity="1" /><path clip-path="url(#clip280)" d="M 0 0 M2270.53 1442.09 L2288.88 1442.09 L2288.88 1446.03 L2274.81 1446.03 L2274.81 1454.5 Q2275.83 1454.15 2276.85 1453.99 Q2277.87 1453.8 2278.88 1453.8 Q2284.67 1453.8 2288.05 1456.98 Q2291.43 1460.15 2291.43 1465.56 Q2291.43 1471.14 2287.96 1474.24 Q2284.49 1477.32 2278.17 1477.32 Q2275.99 1477.32 2273.72 1476.95 Q2271.48 1476.58 2269.07 1475.84 L2269.07 1471.14 Q2271.15 1472.28 2273.37 1472.83 Q2275.6 1473.39 2278.07 1473.39 Q2282.08 1473.39 2284.42 1471.28 Q2286.75 1469.18 2286.75 1465.56 Q2286.75 1461.95 2284.42 1459.85 Q2282.08 1457.74 2278.07 1457.74 Q2276.2 1457.74 2274.32 1458.16 Q2272.47 1458.57 2270.53 1459.45 L2270.53 1442.09 Z" fill="#000000" fill-rule="evenodd" fill-opacity="1" /><path clip-path="url(#clip280)" d="M 0 0 M166.515 1370.04 Q162.903 1370.04 161.075 1373.6 Q159.269 1377.14 159.269 1384.27 Q159.269 1391.38 161.075 1394.94 Q162.903 1398.49 166.515 1398.49 Q170.149 1398.49 171.954 1394.94 Q173.783 1391.38 173.783 1384.27 Q173.783 1377.14 171.954 1373.6 Q170.149 1370.04 166.515 1370.04 M166.515 1366.33 Q172.325 1366.33 175.38 1370.94 Q178.459 1375.52 178.459 1384.27 Q178.459 1393 175.38 1397.61 Q172.325 1402.19 166.515 1402.19 Q160.704 1402.19 157.626 1397.61 Q154.57 1393 154.57 1384.27 Q154.57 1375.52 157.626 1370.94 Q160.704 1366.33 166.515 1366.33 Z" fill="#000000" fill-rule="evenodd" fill-opacity="1" /><path clip-path="url(#clip280)" d="M 0 0 M131.538 1064.75 L139.177 1064.75 L139.177 1038.38 L130.867 1040.05 L130.867 1035.79 L139.13 1034.12 L143.806 1034.12 L143.806 1064.75 L151.445 1064.75 L151.445 1068.68 L131.538 1068.68 L131.538 1064.75 Z" fill="#000000" fill-rule="evenodd" fill-opacity="1" /><path clip-path="url(#clip280)" d="M 0 0 M166.515 1037.2 Q162.903 1037.2 161.075 1040.77 Q159.269 1044.31 159.269 1051.44 Q159.269 1058.55 161.075 1062.11 Q162.903 1065.65 166.515 1065.65 Q170.149 1065.65 171.954 1062.11 Q173.783 1058.55 173.783 1051.44 Q173.783 1044.31 171.954 1040.77 Q170.149 1037.2 166.515 1037.2 M166.515 1033.5 Q172.325 1033.5 175.38 1038.11 Q178.459 1042.69 178.459 1051.44 Q178.459 1060.17 175.38 1064.77 Q172.325 1069.36 166.515 1069.36 Q160.704 1069.36 157.626 1064.77 Q154.57 1060.17 154.57 1051.44 Q154.57 1042.69 157.626 1038.11 Q160.704 1033.5 166.515 1033.5 Z" fill="#000000" fill-rule="evenodd" fill-opacity="1" /><path clip-path="url(#clip280)" d="M 0 0 M135.126 731.915 L151.445 731.915 L151.445 735.85 L129.501 735.85 L129.501 731.915 Q132.163 729.16 136.746 724.531 Q141.353 719.878 142.533 718.536 Q144.779 716.012 145.658 714.276 Q146.561 712.517 146.561 710.827 Q146.561 708.073 144.617 706.337 Q142.695 704.6 139.593 704.6 Q137.394 704.6 134.941 705.364 Q132.51 706.128 129.732 707.679 L129.732 702.957 Q132.556 701.823 135.01 701.244 Q137.464 700.665 139.501 700.665 Q144.871 700.665 148.066 703.35 Q151.26 706.036 151.26 710.526 Q151.26 712.656 150.45 714.577 Q149.663 716.475 147.556 719.068 Q146.978 719.739 143.876 722.957 Q140.774 726.151 135.126 731.915 Z" fill="#000000" fill-rule="evenodd" fill-opacity="1" /><path clip-path="url(#clip280)" d="M 0 0 M166.515 704.369 Q162.903 704.369 161.075 707.934 Q159.269 711.475 159.269 718.605 Q159.269 725.711 161.075 729.276 Q162.903 732.818 166.515 732.818 Q170.149 732.818 171.954 729.276 Q173.783 725.711 173.783 718.605 Q173.783 711.475 171.954 707.934 Q170.149 704.369 166.515 704.369 M166.515 700.665 Q172.325 700.665 175.38 705.272 Q178.459 709.855 178.459 718.605 Q178.459 727.332 175.38 731.938 Q172.325 736.522 166.515 736.522 Q160.704 736.522 157.626 731.938 Q154.57 727.332 154.57 718.605 Q154.57 709.855 157.626 705.272 Q160.704 700.665 166.515 700.665 Z" fill="#000000" fill-rule="evenodd" fill-opacity="1" /><path clip-path="url(#clip280)" d="M 0 0 M144.316 384.382 Q147.672 385.1 149.547 387.368 Q151.445 389.637 151.445 392.97 Q151.445 398.086 147.927 400.887 Q144.408 403.688 137.927 403.688 Q135.751 403.688 133.436 403.248 Q131.144 402.831 128.691 401.975 L128.691 397.461 Q130.635 398.595 132.95 399.174 Q135.265 399.752 137.788 399.752 Q142.186 399.752 144.478 398.016 Q146.792 396.28 146.792 392.97 Q146.792 389.914 144.64 388.202 Q142.51 386.465 138.691 386.465 L134.663 386.465 L134.663 382.623 L138.876 382.623 Q142.325 382.623 144.154 381.257 Q145.982 379.868 145.982 377.276 Q145.982 374.614 144.084 373.202 Q142.209 371.766 138.691 371.766 Q136.769 371.766 134.57 372.183 Q132.371 372.6 129.732 373.479 L129.732 369.313 Q132.394 368.572 134.709 368.202 Q137.047 367.831 139.107 367.831 Q144.431 367.831 147.533 370.262 Q150.635 372.669 150.635 376.79 Q150.635 379.66 148.992 381.651 Q147.348 383.618 144.316 384.382 Z" fill="#000000" fill-rule="evenodd" fill-opacity="1" /><path clip-path="url(#clip280)" d="M 0 0 M166.515 371.535 Q162.903 371.535 161.075 375.1 Q159.269 378.641 159.269 385.771 Q159.269 392.877 161.075 396.442 Q162.903 399.984 166.515 399.984 Q170.149 399.984 171.954 396.442 Q173.783 392.877 173.783 385.771 Q173.783 378.641 171.954 375.1 Q170.149 371.535 166.515 371.535 M166.515 367.831 Q172.325 367.831 175.38 372.438 Q178.459 377.021 178.459 385.771 Q178.459 394.498 175.38 399.104 Q172.325 403.688 166.515 403.688 Q160.704 403.688 157.626 399.104 Q154.57 394.498 154.57 385.771 Q154.57 377.021 157.626 372.438 Q160.704 367.831 166.515 367.831 Z" fill="#000000" fill-rule="evenodd" fill-opacity="1" /><path clip-path="url(#clip280)" d="M 0 0 M141.862 39.6963 L130.056 58.1453 L141.862 58.1453 L141.862 39.6963 M140.635 35.6223 L146.515 35.6223 L146.515 58.1453 L151.445 58.1453 L151.445 62.0342 L146.515 62.0342 L146.515 70.1823 L141.862 70.1823 L141.862 62.0342 L126.26 62.0342 L126.26 57.5203 L140.635 35.6223 Z" fill="#000000" fill-rule="evenodd" fill-opacity="1" /><path clip-path="url(#clip280)" d="M 0 0 M166.515 38.701 Q162.903 38.701 161.075 42.2658 Q159.269 45.8074 159.269 52.937 Q159.269 60.0434 161.075 63.6082 Q162.903 67.1499 166.515 67.1499 Q170.149 67.1499 171.954 63.6082 Q173.783 60.0434 173.783 52.937 Q173.783 45.8074 171.954 42.2658 Q170.149 38.701 166.515 38.701 M166.515 34.9973 Q172.325 34.9973 175.38 39.6037 Q178.459 44.187 178.459 52.937 Q178.459 61.6638 175.38 66.2703 Q172.325 70.8536 166.515 70.8536 Q160.704 70.8536 157.626 66.2703 Q154.57 61.6638 154.57 52.937 Q154.57 44.187 157.626 39.6037 Q160.704 34.9973 166.515 34.9973 Z" fill="#000000" fill-rule="evenodd" fill-opacity="1" /><path clip-path="url(#clip280)" d="M 0 0 M1237.06 1536.76 L1237.06 1539.62 L1210.13 1539.62 Q1210.51 1545.67 1213.76 1548.85 Q1217.04 1552 1222.86 1552 Q1226.24 1552 1229.39 1551.17 Q1232.57 1550.35 1235.69 1548.69 L1235.69 1554.23 Q1232.54 1555.57 1229.23 1556.27 Q1225.92 1556.97 1222.51 1556.97 Q1213.98 1556.97 1208.99 1552 Q1204.02 1547.04 1204.02 1538.57 Q1204.02 1529.82 1208.73 1524.69 Q1213.47 1519.54 1221.49 1519.54 Q1228.69 1519.54 1232.86 1524.18 Q1237.06 1528.8 1237.06 1536.76 M1231.2 1535.04 Q1231.14 1530.23 1228.5 1527.37 Q1225.89 1524.5 1221.56 1524.5 Q1216.66 1524.5 1213.7 1527.27 Q1210.77 1530.04 1210.32 1535.07 L1231.2 1535.04 Z" fill="#000000" fill-rule="evenodd" fill-opacity="1" /><path clip-path="url(#clip280)" d="M 0 0 M1263.86 1525.87 Q1262.87 1525.3 1261.69 1525.04 Q1260.55 1524.76 1259.15 1524.76 Q1254.18 1524.76 1251.51 1528 Q1248.87 1531.22 1248.87 1537.27 L1248.87 1556.04 L1242.98 1556.04 L1242.98 1520.4 L1248.87 1520.4 L1248.87 1525.93 Q1250.71 1522.69 1253.67 1521.13 Q1256.63 1519.54 1260.87 1519.54 Q1261.47 1519.54 1262.2 1519.63 Q1262.93 1519.7 1263.83 1519.85 L1263.86 1525.87 Z" fill="#000000" fill-rule="evenodd" fill-opacity="1" /><path clip-path="url(#clip280)" d="M 0 0 M1289.51 1525.87 Q1288.52 1525.3 1287.35 1525.04 Q1286.2 1524.76 1284.8 1524.76 Q1279.84 1524.76 1277.16 1528 Q1274.52 1531.22 1274.52 1537.27 L1274.52 1556.04 L1268.63 1556.04 L1268.63 1520.4 L1274.52 1520.4 L1274.52 1525.93 Q1276.37 1522.69 1279.33 1521.13 Q1282.29 1519.54 1286.52 1519.54 Q1287.12 1519.54 1287.86 1519.63 Q1288.59 1519.7 1289.48 1519.85 L1289.51 1525.87 Z" fill="#000000" fill-rule="evenodd" fill-opacity="1" /><path clip-path="url(#clip280)" d="M 0 0 M1308.04 1524.5 Q1303.32 1524.5 1300.59 1528.19 Q1297.85 1531.85 1297.85 1538.25 Q1297.85 1544.65 1300.56 1548.34 Q1303.29 1552 1308.04 1552 Q1312.71 1552 1315.45 1548.31 Q1318.19 1544.62 1318.19 1538.25 Q1318.19 1531.92 1315.45 1528.23 Q1312.71 1524.5 1308.04 1524.5 M1308.04 1519.54 Q1315.67 1519.54 1320.03 1524.5 Q1324.4 1529.47 1324.4 1538.25 Q1324.4 1547 1320.03 1552 Q1315.67 1556.97 1308.04 1556.97 Q1300.36 1556.97 1296 1552 Q1291.68 1547 1291.68 1538.25 Q1291.68 1529.47 1296 1524.5 Q1300.36 1519.54 1308.04 1519.54 Z" fill="#000000" fill-rule="evenodd" fill-opacity="1" /><path clip-path="url(#clip280)" d="M 0 0 M1351.19 1525.87 Q1350.21 1525.3 1349.03 1525.04 Q1347.88 1524.76 1346.48 1524.76 Q1341.52 1524.76 1338.85 1528 Q1336.2 1531.22 1336.2 1537.27 L1336.2 1556.04 L1330.32 1556.04 L1330.32 1520.4 L1336.2 1520.4 L1336.2 1525.93 Q1338.05 1522.69 1341.01 1521.13 Q1343.97 1519.54 1348.2 1519.54 Q1348.81 1519.54 1349.54 1519.63 Q1350.27 1519.7 1351.16 1519.85 L1351.19 1525.87 Z" fill="#000000" fill-rule="evenodd" fill-opacity="1" /><path clip-path="url(#clip280)" d="M 0 0 M40.4842 1021.46 L40.4842 1012.8 L80.238 991.734 L40.4842 991.734 L40.4842 985.496 L88.0042 985.496 L88.0042 994.153 L48.2503 1015.22 L88.0042 1015.22 L88.0042 1021.46 L40.4842 1021.46 Z" fill="#000000" fill-rule="evenodd" fill-opacity="1" /><path clip-path="url(#clip280)" d="M 0 0 M73.9359 979.957 L52.3562 979.957 L52.3562 974.101 L73.7131 974.101 Q78.7739 974.101 81.3202 972.128 Q83.8346 970.154 83.8346 966.208 Q83.8346 961.465 80.8109 958.728 Q77.7872 955.959 72.5673 955.959 L52.3562 955.959 L52.3562 950.102 L88.0042 950.102 L88.0042 955.959 L82.5296 955.959 Q85.7762 958.091 87.3676 960.924 Q88.9272 963.725 88.9272 967.449 Q88.9272 973.592 85.1078 976.775 Q81.2883 979.957 73.9359 979.957 M51.4968 965.221 L51.4968 965.221 Z" fill="#000000" fill-rule="evenodd" fill-opacity="1" /><path clip-path="url(#clip280)" d="M 0 0 M59.1993 916.205 Q55.2526 914.009 53.3747 910.953 Q51.4968 907.898 51.4968 903.76 Q51.4968 898.19 55.4117 895.166 Q59.2948 892.143 66.4881 892.143 L88.0042 892.143 L88.0042 898.031 L66.679 898.031 Q61.5546 898.031 59.072 899.845 Q56.5894 901.659 56.5894 905.383 Q56.5894 909.935 59.6131 912.576 Q62.6368 915.218 67.8567 915.218 L88.0042 915.218 L88.0042 921.107 L66.679 921.107 Q61.5228 921.107 59.072 922.921 Q56.5894 924.735 56.5894 928.523 Q56.5894 933.01 59.6449 935.652 Q62.6686 938.294 67.8567 938.294 L88.0042 938.294 L88.0042 944.182 L52.3562 944.182 L52.3562 938.294 L57.8944 938.294 Q54.616 936.289 53.0564 933.488 Q51.4968 930.687 51.4968 926.836 Q51.4968 922.953 53.4702 920.247 Q55.4436 917.51 59.1993 916.205 Z" fill="#000000" fill-rule="evenodd" fill-opacity="1" /><path clip-path="url(#clip280)" d="M 0 0 M70.212 860.41 Q63.7508 860.41 60.0905 863.083 Q56.3984 865.725 56.3984 870.372 Q56.3984 875.019 60.0905 877.692 Q63.7508 880.334 70.212 880.334 Q76.6732 880.334 80.3653 877.692 Q84.0256 875.019 84.0256 870.372 Q84.0256 865.725 80.3653 863.083 Q76.6732 860.41 70.212 860.41 M57.7671 880.334 Q54.5842 878.488 53.0564 875.687 Q51.4968 872.854 51.4968 868.94 Q51.4968 862.447 56.6531 858.404 Q61.8093 854.33 70.212 854.33 Q78.6147 854.33 83.771 858.404 Q88.9272 862.447 88.9272 868.94 Q88.9272 872.854 87.3994 875.687 Q85.8398 878.488 82.657 880.334 L88.0042 880.334 L88.0042 886.222 L38.479 886.222 L38.479 880.334 L57.7671 880.334 Z" fill="#000000" fill-rule="evenodd" fill-opacity="1" /><path clip-path="url(#clip280)" d="M 0 0 M68.7161 817.696 L71.5806 817.696 L71.5806 844.623 Q77.6281 844.241 80.8109 840.994 Q83.9619 837.716 83.9619 831.891 Q83.9619 828.517 83.1344 825.366 Q82.3069 822.183 80.6518 819.064 L86.1899 819.064 Q87.5267 822.215 88.227 825.525 Q88.9272 828.836 88.9272 832.241 Q88.9272 840.771 83.9619 845.768 Q78.9967 850.734 70.5303 850.734 Q61.7774 850.734 56.6531 846.023 Q51.4968 841.281 51.4968 833.26 Q51.4968 826.067 56.1438 821.897 Q60.7589 817.696 68.7161 817.696 M66.9973 823.552 Q62.1912 823.616 59.3266 826.257 Q56.4621 828.867 56.4621 833.196 Q56.4621 838.098 59.2312 841.058 Q62.0002 843.986 67.0292 844.432 L66.9973 823.552 Z" fill="#000000" fill-rule="evenodd" fill-opacity="1" /><path clip-path="url(#clip280)" d="M 0 0 M57.8307 790.896 Q57.2578 791.883 57.0032 793.06 Q56.7167 794.206 56.7167 795.607 Q56.7167 800.572 59.9632 803.245 Q63.1779 805.887 69.2253 805.887 L88.0042 805.887 L88.0042 811.776 L52.3562 811.776 L52.3562 805.887 L57.8944 805.887 Q54.6479 804.041 53.0883 801.081 Q51.4968 798.121 51.4968 793.888 Q51.4968 793.283 51.5923 792.551 Q51.656 791.819 51.8151 790.928 L57.8307 790.896 Z" fill="#000000" fill-rule="evenodd" fill-opacity="1" /><path clip-path="url(#clip280)" d="M 0 0 M56.4621 750.219 Q56.4621 754.93 60.1542 757.667 Q63.8145 760.404 70.212 760.404 Q76.6095 760.404 80.3017 757.699 Q83.9619 754.962 83.9619 750.219 Q83.9619 745.54 80.2698 742.803 Q76.5777 740.066 70.212 740.066 Q63.8781 740.066 60.186 742.803 Q56.4621 745.54 56.4621 750.219 M51.4968 750.219 Q51.4968 742.58 56.4621 738.22 Q61.4273 733.859 70.212 733.859 Q78.9649 733.859 83.9619 738.22 Q88.9272 742.58 88.9272 750.219 Q88.9272 757.89 83.9619 762.25 Q78.9649 766.579 70.212 766.579 Q61.4273 766.579 56.4621 762.25 Q51.4968 757.89 51.4968 750.219 Z" fill="#000000" fill-rule="evenodd" fill-opacity="1" /><path clip-path="url(#clip280)" d="M 0 0 M38.479 709.67 L43.3487 709.67 L43.3487 715.271 Q43.3487 718.422 44.6219 719.664 Q45.895 720.873 49.2052 720.873 L52.3562 720.873 L52.3562 711.229 L56.9077 711.229 L56.9077 720.873 L88.0042 720.873 L88.0042 726.761 L56.9077 726.761 L56.9077 732.363 L52.3562 732.363 L52.3562 726.761 L49.8736 726.761 Q43.9216 726.761 41.2162 723.992 Q38.479 721.223 38.479 715.208 L38.479 709.67 Z" fill="#000000" fill-rule="evenodd" fill-opacity="1" /><path clip-path="url(#clip280)" d="M 0 0 M53.4065 660.081 L58.9447 660.081 Q57.6716 662.563 57.035 665.237 Q56.3984 667.911 56.3984 670.775 Q56.3984 675.136 57.7352 677.332 Q59.072 679.496 61.7456 679.496 Q63.7826 679.496 64.9603 677.937 Q66.1061 676.377 67.1565 671.666 L67.6021 669.661 Q68.9389 663.423 71.3897 660.813 Q73.8086 658.171 78.1691 658.171 Q83.1344 658.171 86.0308 662.118 Q88.9272 666.033 88.9272 672.908 Q88.9272 675.772 88.3543 678.891 Q87.8132 681.979 86.6992 685.416 L80.6518 685.416 Q82.3387 682.17 83.198 679.019 Q84.0256 675.868 84.0256 672.78 Q84.0256 668.643 82.6251 666.415 Q81.1929 664.187 78.6147 664.187 Q76.2276 664.187 74.9545 665.81 Q73.6813 667.401 72.5037 672.844 L72.0262 674.881 Q70.8804 680.324 68.5251 682.743 Q66.138 685.162 62.0002 685.162 Q56.9713 685.162 54.2341 681.597 Q51.4968 678.032 51.4968 671.475 Q51.4968 668.229 51.9743 665.364 Q52.4517 662.5 53.4065 660.081 Z" fill="#000000" fill-rule="evenodd" fill-opacity="1" /><path clip-path="url(#clip280)" d="M 0 0 M70.0847 635.827 Q70.0847 642.925 71.7079 645.662 Q73.3312 648.4 77.2461 648.4 Q80.3653 648.4 82.2114 646.363 Q84.0256 644.294 84.0256 640.761 Q84.0256 635.891 80.5881 632.963 Q77.1188 630.003 71.3897 630.003 L70.0847 630.003 L70.0847 635.827 M67.6657 624.146 L88.0042 624.146 L88.0042 630.003 L82.5933 630.003 Q85.8398 632.008 87.3994 635 Q88.9272 637.992 88.9272 642.32 Q88.9272 647.795 85.8716 651.041 Q82.7843 654.256 77.6281 654.256 Q71.6125 654.256 68.5569 650.246 Q65.5014 646.203 65.5014 638.215 L65.5014 630.003 L64.9285 630.003 Q60.8862 630.003 58.6901 632.676 Q56.4621 635.318 56.4621 640.124 Q56.4621 643.18 57.1941 646.076 Q57.9262 648.973 59.3903 651.646 L53.9795 651.646 Q52.7381 648.431 52.1334 645.408 Q51.4968 642.384 51.4968 639.519 Q51.4968 631.785 55.5072 627.966 Q59.5176 624.146 67.6657 624.146 Z" fill="#000000" fill-rule="evenodd" fill-opacity="1" /><path clip-path="url(#clip280)" d="M 0 0 M59.1993 590.249 Q55.2526 588.053 53.3747 584.997 Q51.4968 581.942 51.4968 577.804 Q51.4968 572.234 55.4117 569.21 Q59.2948 566.187 66.4881 566.187 L88.0042 566.187 L88.0042 572.075 L66.679 572.075 Q61.5546 572.075 59.072 573.889 Q56.5894 575.703 56.5894 579.427 Q56.5894 583.979 59.6131 586.62 Q62.6368 589.262 67.8567 589.262 L88.0042 589.262 L88.0042 595.151 L66.679 595.151 Q61.5228 595.151 59.072 596.965 Q56.5894 598.779 56.5894 602.567 Q56.5894 607.054 59.6449 609.696 Q62.6686 612.338 67.8567 612.338 L88.0042 612.338 L88.0042 618.226 L52.3562 618.226 L52.3562 612.338 L57.8944 612.338 Q54.616 610.333 53.0564 607.532 Q51.4968 604.731 51.4968 600.88 Q51.4968 596.997 53.4702 594.291 Q55.4436 591.554 59.1993 590.249 Z" fill="#000000" fill-rule="evenodd" fill-opacity="1" /><path clip-path="url(#clip280)" d="M 0 0 M82.657 554.378 L101.563 554.378 L101.563 560.266 L52.3562 560.266 L52.3562 554.378 L57.7671 554.378 Q54.5842 552.532 53.0564 549.731 Q51.4968 546.898 51.4968 542.984 Q51.4968 536.491 56.6531 532.448 Q61.8093 528.374 70.212 528.374 Q78.6147 528.374 83.771 532.448 Q88.9272 536.491 88.9272 542.984 Q88.9272 546.898 87.3994 549.731 Q85.8398 552.532 82.657 554.378 M70.212 534.453 Q63.7508 534.453 60.0905 537.127 Q56.3984 539.769 56.3984 544.416 Q56.3984 549.063 60.0905 551.736 Q63.7508 554.378 70.212 554.378 Q76.6732 554.378 80.3653 551.736 Q84.0256 549.063 84.0256 544.416 Q84.0256 539.769 80.3653 537.127 Q76.6732 534.453 70.212 534.453 Z" fill="#000000" fill-rule="evenodd" fill-opacity="1" /><path clip-path="url(#clip280)" d="M 0 0 M38.479 522.231 L38.479 516.375 L88.0042 516.375 L88.0042 522.231 L38.479 522.231 Z" fill="#000000" fill-rule="evenodd" fill-opacity="1" /><path clip-path="url(#clip280)" d="M 0 0 M68.7161 479.74 L71.5806 479.74 L71.5806 506.667 Q77.6281 506.285 80.8109 503.039 Q83.9619 499.76 83.9619 493.936 Q83.9619 490.562 83.1344 487.411 Q82.3069 484.228 80.6518 481.109 L86.1899 481.109 Q87.5267 484.26 88.227 487.57 Q88.9272 490.88 88.9272 494.286 Q88.9272 502.816 83.9619 507.813 Q78.9967 512.778 70.5303 512.778 Q61.7774 512.778 56.6531 508.068 Q51.4968 503.325 51.4968 495.304 Q51.4968 488.111 56.1438 483.942 Q60.7589 479.74 68.7161 479.74 M66.9973 485.597 Q62.1912 485.66 59.3266 488.302 Q56.4621 490.912 56.4621 495.241 Q56.4621 500.142 59.2312 503.102 Q62.0002 506.031 67.0292 506.476 L66.9973 485.597 Z" fill="#000000" fill-rule="evenodd" fill-opacity="1" /><path clip-path="url(#clip280)" d="M 0 0 M53.4065 450.872 L58.9447 450.872 Q57.6716 453.354 57.035 456.028 Q56.3984 458.702 56.3984 461.566 Q56.3984 465.927 57.7352 468.123 Q59.072 470.287 61.7456 470.287 Q63.7826 470.287 64.9603 468.728 Q66.1061 467.168 67.1565 462.457 L67.6021 460.452 Q68.9389 454.214 71.3897 451.604 Q73.8086 448.962 78.1691 448.962 Q83.1344 448.962 86.0308 452.909 Q88.9272 456.824 88.9272 463.699 Q88.9272 466.563 88.3543 469.682 Q87.8132 472.77 86.6992 476.207 L80.6518 476.207 Q82.3387 472.961 83.198 469.81 Q84.0256 466.659 84.0256 463.571 Q84.0256 459.434 82.6251 457.206 Q81.1929 454.978 78.6147 454.978 Q76.2276 454.978 74.9545 456.601 Q73.6813 458.192 72.5037 463.635 L72.0262 465.672 Q70.8804 471.115 68.5251 473.534 Q66.138 475.953 62.0002 475.953 Q56.9713 475.953 54.2341 472.388 Q51.4968 468.823 51.4968 462.266 Q51.4968 459.02 51.9743 456.155 Q52.4517 453.291 53.4065 450.872 Z" fill="#000000" fill-rule="evenodd" fill-opacity="1" /><path clip-path="url(#clip282)" d="
M320.729 1284.39 L320.729 1384.24 L512.105 1384.24 L512.105 1284.39 L320.729 1284.39 L320.729 1284.39  Z
  " fill="#009af9" fill-rule="evenodd" fill-opacity="1"/>
<polyline clip-path="url(#clip282)" style="stroke:#000000; stroke-width:4; stroke-opacity:1; fill:none" points="
  320.729,1284.39 320.729,1384.24 512.105,1384.24 512.105,1284.39 320.729,1284.39 
  "/>
<path clip-path="url(#clip282)" d="
M512.105 86.1857 L512.105 1384.24 L703.48 1384.24 L703.48 86.1857 L512.105 86.1857 L512.105 86.1857  Z
  " fill="#009af9" fill-rule="evenodd" fill-opacity="1"/>
<polyline clip-path="url(#clip282)" style="stroke:#000000; stroke-width:4; stroke-opacity:1; fill:none" points="
  512.105,86.1857 512.105,1384.24 703.48,1384.24 703.48,86.1857 512.105,86.1857 
  "/>
<path clip-path="url(#clip282)" d="
M703.48 518.87 L703.48 1384.24 L894.856 1384.24 L894.856 518.87 L703.48 518.87 L703.48 518.87  Z
  " fill="#009af9" fill-rule="evenodd" fill-opacity="1"/>
<polyline clip-path="url(#clip282)" style="stroke:#000000; stroke-width:4; stroke-opacity:1; fill:none" points="
  703.48,518.87 703.48,1384.24 894.856,1384.24 894.856,518.87 703.48,518.87 
  "/>
<path clip-path="url(#clip282)" d="
M894.856 984.837 L894.856 1384.24 L1086.23 1384.24 L1086.23 984.837 L894.856 984.837 L894.856 984.837  Z
  " fill="#009af9" fill-rule="evenodd" fill-opacity="1"/>
<polyline clip-path="url(#clip282)" style="stroke:#000000; stroke-width:4; stroke-opacity:1; fill:none" points="
  894.856,984.837 894.856,1384.24 1086.23,1384.24 1086.23,984.837 894.856,984.837 
  "/>
<path clip-path="url(#clip282)" d="
M1086.23 1084.69 L1086.23 1384.24 L1277.61 1384.24 L1277.61 1084.69 L1086.23 1084.69 L1086.23 1084.69  Z
  " fill="#009af9" fill-rule="evenodd" fill-opacity="1"/>
<polyline clip-path="url(#clip282)" style="stroke:#000000; stroke-width:4; stroke-opacity:1; fill:none" points="
  1086.23,1084.69 1086.23,1384.24 1277.61,1384.24 1277.61,1084.69 1086.23,1084.69 
  "/>
<path clip-path="url(#clip282)" d="
M1277.61 1251.1 L1277.61 1384.24 L1468.98 1384.24 L1468.98 1251.1 L1277.61 1251.1 L1277.61 1251.1  Z
  " fill="#009af9" fill-rule="evenodd" fill-opacity="1"/>
<polyline clip-path="url(#clip282)" style="stroke:#000000; stroke-width:4; stroke-opacity:1; fill:none" points="
  1277.61,1251.1 1277.61,1384.24 1468.98,1384.24 1468.98,1251.1 1277.61,1251.1 
  "/>
<path clip-path="url(#clip282)" d="
M1468.98 1284.39 L1468.98 1384.24 L1660.36 1384.24 L1660.36 1284.39 L1468.98 1284.39 L1468.98 1284.39  Z
  " fill="#009af9" fill-rule="evenodd" fill-opacity="1"/>
<polyline clip-path="url(#clip282)" style="stroke:#000000; stroke-width:4; stroke-opacity:1; fill:none" points="
  1468.98,1284.39 1468.98,1384.24 1660.36,1384.24 1660.36,1284.39 1468.98,1284.39 
  "/>
<path clip-path="url(#clip282)" d="
M1660.36 1384.24 L1660.36 1384.24 L1851.73 1384.24 L1851.73 1384.24 L1660.36 1384.24 L1660.36 1384.24  Z
  " fill="#009af9" fill-rule="evenodd" fill-opacity="1"/>
<polyline clip-path="url(#clip282)" style="stroke:#000000; stroke-width:4; stroke-opacity:1; fill:none" points="
  1660.36,1384.24 1660.36,1384.24 1851.73,1384.24 1660.36,1384.24 
  "/>
<path clip-path="url(#clip282)" d="
M1851.73 1284.39 L1851.73 1384.24 L2043.11 1384.24 L2043.11 1284.39 L1851.73 1284.39 L1851.73 1284.39  Z
  " fill="#009af9" fill-rule="evenodd" fill-opacity="1"/>
<polyline clip-path="url(#clip282)" style="stroke:#000000; stroke-width:4; stroke-opacity:1; fill:none" points="
  1851.73,1284.39 1851.73,1384.24 2043.11,1384.24 2043.11,1284.39 1851.73,1284.39 
  "/>
<path clip-path="url(#clip282)" d="
M2043.11 1350.95 L2043.11 1384.24 L2234.49 1384.24 L2234.49 1350.95 L2043.11 1350.95 L2043.11 1350.95  Z
  " fill="#009af9" fill-rule="evenodd" fill-opacity="1"/>
<polyline clip-path="url(#clip282)" style="stroke:#000000; stroke-width:4; stroke-opacity:1; fill:none" points="
  2043.11,1350.95 2043.11,1384.24 2234.49,1384.24 2234.49,1350.95 2043.11,1350.95 
  "/>
</svg>
