<?xml version="1.0" encoding="utf-8"?>
<svg xmlns="http://www.w3.org/2000/svg" xmlns:xlink="http://www.w3.org/1999/xlink" width="600" height="400" viewBox="0 0 2400 1600">
<defs>
  <clipPath id="clip730">
    <rect x="0" y="0" width="2400" height="1600"/>
  </clipPath>
</defs>
<path clip-path="url(#clip730)" d="
M0 1600 L2400 1600 L2400 0 L0 0  Z
  " fill="#ffffff" fill-rule="evenodd" fill-opacity="1"/>
<defs>
  <clipPath id="clip731">
    <rect x="480" y="0" width="1681" height="1600"/>
  </clipPath>
</defs>
<path clip-path="url(#clip730)" d="
M202.459 1423.18 L2352.76 1423.18 L2352.76 47.2441 L202.459 47.2441  Z
  " fill="#ffffff" fill-rule="evenodd" fill-opacity="1"/>
<defs>
  <clipPath id="clip732">
    <rect x="202" y="47" width="2151" height="1377"/>
  </clipPath>
</defs>
<polyline clip-path="url(#clip732)" style="stroke:#000000; stroke-width:2; stroke-opacity:0.1; fill:none" points="
  320.729,1423.18 320.729,47.2441 
  "/>
<polyline clip-path="url(#clip732)" style="stroke:#000000; stroke-width:2; stroke-opacity:0.1; fill:none" points="
  799.168,1423.18 799.168,47.2441 
  "/>
<polyline clip-path="url(#clip732)" style="stroke:#000000; stroke-width:2; stroke-opacity:0.1; fill:none" points="
  1277.61,1423.18 1277.61,47.2441 
  "/>
<polyline clip-path="url(#clip732)" style="stroke:#000000; stroke-width:2; stroke-opacity:0.1; fill:none" points="
  1756.05,1423.18 1756.05,47.2441 
  "/>
<polyline clip-path="url(#clip732)" style="stroke:#000000; stroke-width:2; stroke-opacity:0.1; fill:none" points="
  2234.49,1423.18 2234.49,47.2441 
  "/>
<polyline clip-path="url(#clip732)" style="stroke:#000000; stroke-width:2; stroke-opacity:0.1; fill:none" points="
  202.459,1384.24 2352.76,1384.24 
  "/>
<polyline clip-path="url(#clip732)" style="stroke:#000000; stroke-width:2; stroke-opacity:0.1; fill:none" points="
  202.459,1160.44 2352.76,1160.44 
  "/>
<polyline clip-path="url(#clip732)" style="stroke:#000000; stroke-width:2; stroke-opacity:0.1; fill:none" points="
  202.459,936.634 2352.76,936.634 
  "/>
<polyline clip-path="url(#clip732)" style="stroke:#000000; stroke-width:2; stroke-opacity:0.1; fill:none" points="
  202.459,712.832 2352.76,712.832 
  "/>
<polyline clip-path="url(#clip732)" style="stroke:#000000; stroke-width:2; stroke-opacity:0.1; fill:none" points="
  202.459,489.03 2352.76,489.03 
  "/>
<polyline clip-path="url(#clip732)" style="stroke:#000000; stroke-width:2; stroke-opacity:0.1; fill:none" points="
  202.459,265.227 2352.76,265.227 
  "/>
<polyline clip-path="url(#clip730)" style="stroke:#000000; stroke-width:4; stroke-opacity:1; fill:none" points="
  202.459,1423.18 2352.76,1423.18 
  "/>
<polyline clip-path="url(#clip730)" style="stroke:#000000; stroke-width:4; stroke-opacity:1; fill:none" points="
  202.459,1423.18 202.459,47.2441 
  "/>
<polyline clip-path="url(#clip730)" style="stroke:#000000; stroke-width:4; stroke-opacity:1; fill:none" points="
  320.729,1423.18 320.729,1406.67 
  "/>
<polyline clip-path="url(#clip730)" style="stroke:#000000; stroke-width:4; stroke-opacity:1; fill:none" points="
  799.168,1423.18 799.168,1406.67 
  "/>
<polyline clip-path="url(#clip730)" style="stroke:#000000; stroke-width:4; stroke-opacity:1; fill:none" points="
  1277.61,1423.18 1277.61,1406.67 
  "/>
<polyline clip-path="url(#clip730)" style="stroke:#000000; stroke-width:4; stroke-opacity:1; fill:none" points="
  1756.05,1423.18 1756.05,1406.67 
  "/>
<polyline clip-path="url(#clip730)" style="stroke:#000000; stroke-width:4; stroke-opacity:1; fill:none" points="
  2234.49,1423.18 2234.49,1406.67 
  "/>
<polyline clip-path="url(#clip730)" style="stroke:#000000; stroke-width:4; stroke-opacity:1; fill:none" points="
  202.459,1384.24 228.263,1384.24 
  "/>
<polyline clip-path="url(#clip730)" style="stroke:#000000; stroke-width:4; stroke-opacity:1; fill:none" points="
  202.459,1160.44 228.263,1160.44 
  "/>
<polyline clip-path="url(#clip730)" style="stroke:#000000; stroke-width:4; stroke-opacity:1; fill:none" points="
  202.459,936.634 228.263,936.634 
  "/>
<polyline clip-path="url(#clip730)" style="stroke:#000000; stroke-width:4; stroke-opacity:1; fill:none" points="
  202.459,712.832 228.263,712.832 
  "/>
<polyline clip-path="url(#clip730)" style="stroke:#000000; stroke-width:4; stroke-opacity:1; fill:none" points="
  202.459,489.03 228.263,489.03 
  "/>
<polyline clip-path="url(#clip730)" style="stroke:#000000; stroke-width:4; stroke-opacity:1; fill:none" points="
  202.459,265.227 228.263,265.227 
  "/>
<path clip-path="url(#clip730)" d="M 0 0 M320.729 1445.17 Q317.118 1445.17 315.289 1448.74 Q313.484 1452.28 313.484 1459.41 Q313.484 1466.51 315.289 1470.08 Q317.118 1473.62 320.729 1473.62 Q324.363 1473.62 326.169 1470.08 Q327.998 1466.51 327.998 1459.41 Q327.998 1452.28 326.169 1448.74 Q324.363 1445.17 320.729 1445.17 M320.729 1441.47 Q326.539 1441.47 329.595 1446.07 Q332.673 1450.66 332.673 1459.41 Q332.673 1468.13 329.595 1472.74 Q326.539 1477.32 320.729 1477.32 Q314.919 1477.32 311.84 1472.74 Q308.785 1468.13 308.785 1459.41 Q308.785 1450.66 311.84 1446.07 Q314.919 1441.47 320.729 1441.47 Z" fill="#000000" fill-rule="evenodd" fill-opacity="1" /><path clip-path="url(#clip730)" d="M 0 0 M766.807 1472.72 L783.127 1472.72 L783.127 1476.65 L761.182 1476.65 L761.182 1472.72 Q763.844 1469.96 768.428 1465.33 Q773.034 1460.68 774.215 1459.34 Q776.46 1456.81 777.34 1455.08 Q778.242 1453.32 778.242 1451.63 Q778.242 1448.87 776.298 1447.14 Q774.377 1445.4 771.275 1445.4 Q769.076 1445.4 766.622 1446.17 Q764.192 1446.93 761.414 1448.48 L761.414 1443.76 Q764.238 1442.62 766.692 1442.05 Q769.145 1441.47 771.182 1441.47 Q776.553 1441.47 779.747 1444.15 Q782.942 1446.84 782.942 1451.33 Q782.942 1453.46 782.131 1455.38 Q781.344 1457.28 779.238 1459.87 Q778.659 1460.54 775.557 1463.76 Q772.455 1466.95 766.807 1472.72 Z" fill="#000000" fill-rule="evenodd" fill-opacity="1" /><path clip-path="url(#clip730)" d="M 0 0 M798.196 1445.17 Q794.585 1445.17 792.756 1448.74 Q790.951 1452.28 790.951 1459.41 Q790.951 1466.51 792.756 1470.08 Q794.585 1473.62 798.196 1473.62 Q801.83 1473.62 803.636 1470.08 Q805.465 1466.51 805.465 1459.41 Q805.465 1452.28 803.636 1448.74 Q801.83 1445.17 798.196 1445.17 M798.196 1441.47 Q804.006 1441.47 807.062 1446.07 Q810.14 1450.66 810.14 1459.41 Q810.14 1468.13 807.062 1472.74 Q804.006 1477.32 798.196 1477.32 Q792.386 1477.32 789.307 1472.74 Q786.252 1468.13 786.252 1459.41 Q786.252 1450.66 789.307 1446.07 Q792.386 1441.47 798.196 1441.47 Z" fill="#000000" fill-rule="evenodd" fill-opacity="1" /><path clip-path="url(#clip730)" d="M 0 0 M825.21 1445.17 Q821.599 1445.17 819.77 1448.74 Q817.964 1452.28 817.964 1459.41 Q817.964 1466.51 819.77 1470.08 Q821.599 1473.62 825.21 1473.62 Q828.844 1473.62 830.65 1470.08 Q832.478 1466.51 832.478 1459.41 Q832.478 1452.28 830.65 1448.74 Q828.844 1445.17 825.21 1445.17 M825.21 1441.47 Q831.02 1441.47 834.075 1446.07 Q837.154 1450.66 837.154 1459.41 Q837.154 1468.13 834.075 1472.74 Q831.02 1477.32 825.21 1477.32 Q819.4 1477.32 816.321 1472.74 Q813.265 1468.13 813.265 1459.41 Q813.265 1450.66 816.321 1446.07 Q819.4 1441.47 825.21 1441.47 Z" fill="#000000" fill-rule="evenodd" fill-opacity="1" /><path clip-path="url(#clip730)" d="M 0 0 M1253.6 1446.17 L1241.8 1464.61 L1253.6 1464.61 L1253.6 1446.17 M1252.38 1442.09 L1258.26 1442.09 L1258.26 1464.61 L1263.19 1464.61 L1263.19 1468.5 L1258.26 1468.5 L1258.26 1476.65 L1253.6 1476.65 L1253.6 1468.5 L1238 1468.5 L1238 1463.99 L1252.38 1442.09 Z" fill="#000000" fill-rule="evenodd" fill-opacity="1" /><path clip-path="url(#clip730)" d="M 0 0 M1278.26 1445.17 Q1274.64 1445.17 1272.82 1448.74 Q1271.01 1452.28 1271.01 1459.41 Q1271.01 1466.51 1272.82 1470.08 Q1274.64 1473.62 1278.26 1473.62 Q1281.89 1473.62 1283.7 1470.08 Q1285.52 1466.51 1285.52 1459.41 Q1285.52 1452.28 1283.7 1448.74 Q1281.89 1445.17 1278.26 1445.17 M1278.26 1441.47 Q1284.07 1441.47 1287.12 1446.07 Q1290.2 1450.66 1290.2 1459.41 Q1290.2 1468.13 1287.12 1472.74 Q1284.07 1477.32 1278.26 1477.32 Q1272.45 1477.32 1269.37 1472.74 Q1266.31 1468.13 1266.31 1459.41 Q1266.31 1450.66 1269.37 1446.07 Q1272.45 1441.47 1278.26 1441.47 Z" fill="#000000" fill-rule="evenodd" fill-opacity="1" /><path clip-path="url(#clip730)" d="M 0 0 M1305.27 1445.17 Q1301.66 1445.17 1299.83 1448.74 Q1298.02 1452.28 1298.02 1459.41 Q1298.02 1466.51 1299.83 1470.08 Q1301.66 1473.62 1305.27 1473.62 Q1308.9 1473.62 1310.71 1470.08 Q1312.54 1466.51 1312.54 1459.41 Q1312.54 1452.28 1310.71 1448.74 Q1308.9 1445.17 1305.27 1445.17 M1305.27 1441.47 Q1311.08 1441.47 1314.14 1446.07 Q1317.21 1450.66 1317.21 1459.41 Q1317.21 1468.13 1314.14 1472.74 Q1311.08 1477.32 1305.27 1477.32 Q1299.46 1477.32 1296.38 1472.74 Q1293.32 1468.13 1293.32 1459.41 Q1293.32 1450.66 1296.38 1446.07 Q1299.46 1441.47 1305.27 1441.47 Z" fill="#000000" fill-rule="evenodd" fill-opacity="1" /><path clip-path="url(#clip730)" d="M 0 0 M1729.44 1457.51 Q1726.29 1457.51 1724.44 1459.66 Q1722.61 1461.81 1722.61 1465.56 Q1722.61 1469.29 1724.44 1471.47 Q1726.29 1473.62 1729.44 1473.62 Q1732.59 1473.62 1734.41 1471.47 Q1736.27 1469.29 1736.27 1465.56 Q1736.27 1461.81 1734.41 1459.66 Q1732.59 1457.51 1729.44 1457.51 M1738.72 1442.86 L1738.72 1447.11 Q1736.96 1446.28 1735.16 1445.84 Q1733.37 1445.4 1731.61 1445.4 Q1726.98 1445.4 1724.53 1448.53 Q1722.1 1451.65 1721.75 1457.97 Q1723.12 1455.96 1725.18 1454.89 Q1727.24 1453.8 1729.72 1453.8 Q1734.92 1453.8 1737.93 1456.98 Q1740.97 1460.12 1740.97 1465.56 Q1740.97 1470.89 1737.82 1474.11 Q1734.67 1477.32 1729.44 1477.32 Q1723.44 1477.32 1720.27 1472.74 Q1717.1 1468.13 1717.1 1459.41 Q1717.1 1451.21 1720.99 1446.35 Q1724.88 1441.47 1731.43 1441.47 Q1733.19 1441.47 1734.97 1441.81 Q1736.78 1442.16 1738.72 1442.86 Z" fill="#000000" fill-rule="evenodd" fill-opacity="1" /><path clip-path="url(#clip730)" d="M 0 0 M1756.04 1445.17 Q1752.42 1445.17 1750.6 1448.74 Q1748.79 1452.28 1748.79 1459.41 Q1748.79 1466.51 1750.6 1470.08 Q1752.42 1473.62 1756.04 1473.62 Q1759.67 1473.62 1761.47 1470.08 Q1763.3 1466.51 1763.3 1459.41 Q1763.3 1452.28 1761.47 1448.74 Q1759.67 1445.17 1756.04 1445.17 M1756.04 1441.47 Q1761.85 1441.47 1764.9 1446.07 Q1767.98 1450.66 1767.98 1459.41 Q1767.98 1468.13 1764.9 1472.74 Q1761.85 1477.32 1756.04 1477.32 Q1750.22 1477.32 1747.15 1472.74 Q1744.09 1468.13 1744.09 1459.41 Q1744.09 1450.66 1747.15 1446.07 Q1750.22 1441.47 1756.04 1441.47 Z" fill="#000000" fill-rule="evenodd" fill-opacity="1" /><path clip-path="url(#clip730)" d="M 0 0 M1783.05 1445.17 Q1779.44 1445.17 1777.61 1448.74 Q1775.8 1452.28 1775.8 1459.41 Q1775.8 1466.51 1777.61 1470.08 Q1779.44 1473.62 1783.05 1473.62 Q1786.68 1473.62 1788.49 1470.08 Q1790.32 1466.51 1790.32 1459.41 Q1790.32 1452.28 1788.49 1448.74 Q1786.68 1445.17 1783.05 1445.17 M1783.05 1441.47 Q1788.86 1441.47 1791.91 1446.07 Q1794.99 1450.66 1794.99 1459.41 Q1794.99 1468.13 1791.91 1472.74 Q1788.86 1477.32 1783.05 1477.32 Q1777.24 1477.32 1774.16 1472.74 Q1771.1 1468.13 1771.1 1459.41 Q1771.1 1450.66 1774.16 1446.07 Q1777.24 1441.47 1783.05 1441.47 Z" fill="#000000" fill-rule="evenodd" fill-opacity="1" /><path clip-path="url(#clip730)" d="M 0 0 M2207.47 1460.24 Q2204.14 1460.24 2202.22 1462.02 Q2200.32 1463.8 2200.32 1466.93 Q2200.32 1470.05 2202.22 1471.84 Q2204.14 1473.62 2207.47 1473.62 Q2210.81 1473.62 2212.73 1471.84 Q2214.65 1470.03 2214.65 1466.93 Q2214.65 1463.8 2212.73 1462.02 Q2210.83 1460.24 2207.47 1460.24 M2202.8 1458.25 Q2199.79 1457.51 2198.1 1455.45 Q2196.43 1453.39 2196.43 1450.43 Q2196.43 1446.28 2199.37 1443.87 Q2202.33 1441.47 2207.47 1441.47 Q2212.63 1441.47 2215.57 1443.87 Q2218.51 1446.28 2218.51 1450.43 Q2218.51 1453.39 2216.82 1455.45 Q2215.16 1457.51 2212.17 1458.25 Q2215.55 1459.04 2217.43 1461.33 Q2219.32 1463.62 2219.32 1466.93 Q2219.32 1471.95 2216.25 1474.64 Q2213.19 1477.32 2207.47 1477.32 Q2201.75 1477.32 2198.68 1474.64 Q2195.62 1471.95 2195.62 1466.93 Q2195.62 1463.62 2197.52 1461.33 Q2199.42 1459.04 2202.8 1458.25 M2201.08 1450.86 Q2201.08 1453.55 2202.75 1455.05 Q2204.44 1456.56 2207.47 1456.56 Q2210.48 1456.56 2212.17 1455.05 Q2213.88 1453.55 2213.88 1450.86 Q2213.88 1448.18 2212.17 1446.68 Q2210.48 1445.17 2207.47 1445.17 Q2204.44 1445.17 2202.75 1446.68 Q2201.08 1448.18 2201.08 1450.86 Z" fill="#000000" fill-rule="evenodd" fill-opacity="1" /><path clip-path="url(#clip730)" d="M 0 0 M2234.39 1445.17 Q2230.78 1445.17 2228.95 1448.74 Q2227.15 1452.28 2227.15 1459.41 Q2227.15 1466.51 2228.95 1470.08 Q2230.78 1473.62 2234.39 1473.62 Q2238.03 1473.62 2239.83 1470.08 Q2241.66 1466.51 2241.66 1459.41 Q2241.66 1452.28 2239.83 1448.74 Q2238.03 1445.17 2234.39 1445.17 M2234.39 1441.47 Q2240.2 1441.47 2243.26 1446.07 Q2246.34 1450.66 2246.34 1459.41 Q2246.34 1468.13 2243.26 1472.74 Q2240.2 1477.32 2234.39 1477.32 Q2228.58 1477.32 2225.5 1472.74 Q2222.45 1468.13 2222.45 1459.41 Q2222.45 1450.66 2225.5 1446.07 Q2228.58 1441.47 2234.39 1441.47 Z" fill="#000000" fill-rule="evenodd" fill-opacity="1" /><path clip-path="url(#clip730)" d="M 0 0 M2261.41 1445.17 Q2257.8 1445.17 2255.97 1448.74 Q2254.16 1452.28 2254.16 1459.41 Q2254.16 1466.51 2255.97 1470.08 Q2257.8 1473.62 2261.41 1473.62 Q2265.04 1473.62 2266.85 1470.08 Q2268.68 1466.51 2268.68 1459.41 Q2268.68 1452.28 2266.85 1448.74 Q2265.04 1445.17 2261.41 1445.17 M2261.41 1441.47 Q2267.22 1441.47 2270.27 1446.07 Q2273.35 1450.66 2273.35 1459.41 Q2273.35 1468.13 2270.27 1472.74 Q2267.22 1477.32 2261.41 1477.32 Q2255.6 1477.32 2252.52 1472.74 Q2249.46 1468.13 2249.46 1459.41 Q2249.46 1450.66 2252.52 1446.07 Q2255.6 1441.47 2261.41 1441.47 Z" fill="#000000" fill-rule="evenodd" fill-opacity="1" /><path clip-path="url(#clip730)" d="M 0 0 M166.515 1370.04 Q162.903 1370.04 161.075 1373.6 Q159.269 1377.14 159.269 1384.27 Q159.269 1391.38 161.075 1394.94 Q162.903 1398.49 166.515 1398.49 Q170.149 1398.49 171.954 1394.94 Q173.783 1391.38 173.783 1384.27 Q173.783 1377.14 171.954 1373.6 Q170.149 1370.04 166.515 1370.04 M166.515 1366.33 Q172.325 1366.33 175.38 1370.94 Q178.459 1375.52 178.459 1384.27 Q178.459 1393 175.38 1397.61 Q172.325 1402.19 166.515 1402.19 Q160.704 1402.19 157.626 1397.61 Q154.57 1393 154.57 1384.27 Q154.57 1375.52 157.626 1370.94 Q160.704 1366.33 166.515 1366.33 Z" fill="#000000" fill-rule="evenodd" fill-opacity="1" /><path clip-path="url(#clip730)" d="M 0 0 M131.538 1173.78 L139.177 1173.78 L139.177 1147.42 L130.867 1149.08 L130.867 1144.82 L139.13 1143.16 L143.806 1143.16 L143.806 1173.78 L151.445 1173.78 L151.445 1177.72 L131.538 1177.72 L131.538 1173.78 Z" fill="#000000" fill-rule="evenodd" fill-opacity="1" /><path clip-path="url(#clip730)" d="M 0 0 M166.515 1146.23 Q162.903 1146.23 161.075 1149.8 Q159.269 1153.34 159.269 1160.47 Q159.269 1167.58 161.075 1171.14 Q162.903 1174.68 166.515 1174.68 Q170.149 1174.68 171.954 1171.14 Q173.783 1167.58 173.783 1160.47 Q173.783 1153.34 171.954 1149.8 Q170.149 1146.23 166.515 1146.23 M166.515 1142.53 Q172.325 1142.53 175.38 1147.14 Q178.459 1151.72 178.459 1160.47 Q178.459 1169.2 175.38 1173.8 Q172.325 1178.39 166.515 1178.39 Q160.704 1178.39 157.626 1173.8 Q154.57 1169.2 154.57 1160.47 Q154.57 1151.72 157.626 1147.14 Q160.704 1142.53 166.515 1142.53 Z" fill="#000000" fill-rule="evenodd" fill-opacity="1" /><path clip-path="url(#clip730)" d="M 0 0 M135.126 949.979 L151.445 949.979 L151.445 953.914 L129.501 953.914 L129.501 949.979 Q132.163 947.224 136.746 942.595 Q141.353 937.942 142.533 936.599 Q144.779 934.076 145.658 932.34 Q146.561 930.581 146.561 928.891 Q146.561 926.136 144.617 924.4 Q142.695 922.664 139.593 922.664 Q137.394 922.664 134.941 923.428 Q132.51 924.192 129.732 925.743 L129.732 921.021 Q132.556 919.886 135.01 919.308 Q137.464 918.729 139.501 918.729 Q144.871 918.729 148.066 921.414 Q151.26 924.099 151.26 928.59 Q151.26 930.72 150.45 932.641 Q149.663 934.539 147.556 937.132 Q146.978 937.803 143.876 941.02 Q140.774 944.215 135.126 949.979 Z" fill="#000000" fill-rule="evenodd" fill-opacity="1" /><path clip-path="url(#clip730)" d="M 0 0 M166.515 922.433 Q162.903 922.433 161.075 925.997 Q159.269 929.539 159.269 936.669 Q159.269 943.775 161.075 947.34 Q162.903 950.882 166.515 950.882 Q170.149 950.882 171.954 947.34 Q173.783 943.775 173.783 936.669 Q173.783 929.539 171.954 925.997 Q170.149 922.433 166.515 922.433 M166.515 918.729 Q172.325 918.729 175.38 923.335 Q178.459 927.919 178.459 936.669 Q178.459 945.395 175.38 950.002 Q172.325 954.585 166.515 954.585 Q160.704 954.585 157.626 950.002 Q154.57 945.395 154.57 936.669 Q154.57 927.919 157.626 923.335 Q160.704 918.729 166.515 918.729 Z" fill="#000000" fill-rule="evenodd" fill-opacity="1" /><path clip-path="url(#clip730)" d="M 0 0 M144.316 711.478 Q147.672 712.195 149.547 714.464 Q151.445 716.732 151.445 720.066 Q151.445 725.181 147.927 727.982 Q144.408 730.783 137.927 730.783 Q135.751 730.783 133.436 730.343 Q131.144 729.927 128.691 729.07 L128.691 724.556 Q130.635 725.69 132.95 726.269 Q135.265 726.848 137.788 726.848 Q142.186 726.848 144.478 725.112 Q146.792 723.376 146.792 720.066 Q146.792 717.01 144.64 715.297 Q142.51 713.561 138.691 713.561 L134.663 713.561 L134.663 709.718 L138.876 709.718 Q142.325 709.718 144.154 708.353 Q145.982 706.964 145.982 704.371 Q145.982 701.709 144.084 700.297 Q142.209 698.862 138.691 698.862 Q136.769 698.862 134.57 699.279 Q132.371 699.695 129.732 700.575 L129.732 696.408 Q132.394 695.667 134.709 695.297 Q137.047 694.927 139.107 694.927 Q144.431 694.927 147.533 697.357 Q150.635 699.765 150.635 703.885 Q150.635 706.755 148.992 708.746 Q147.348 710.714 144.316 711.478 Z" fill="#000000" fill-rule="evenodd" fill-opacity="1" /><path clip-path="url(#clip730)" d="M 0 0 M166.515 698.63 Q162.903 698.63 161.075 702.195 Q159.269 705.737 159.269 712.866 Q159.269 719.973 161.075 723.538 Q162.903 727.079 166.515 727.079 Q170.149 727.079 171.954 723.538 Q173.783 719.973 173.783 712.866 Q173.783 705.737 171.954 702.195 Q170.149 698.63 166.515 698.63 M166.515 694.927 Q172.325 694.927 175.38 699.533 Q178.459 704.117 178.459 712.866 Q178.459 721.593 175.38 726.2 Q172.325 730.783 166.515 730.783 Q160.704 730.783 157.626 726.2 Q154.57 721.593 154.57 712.866 Q154.57 704.117 157.626 699.533 Q160.704 694.927 166.515 694.927 Z" fill="#000000" fill-rule="evenodd" fill-opacity="1" /><path clip-path="url(#clip730)" d="M 0 0 M141.862 475.824 L130.056 494.273 L141.862 494.273 L141.862 475.824 M140.635 471.75 L146.515 471.75 L146.515 494.273 L151.445 494.273 L151.445 498.161 L146.515 498.161 L146.515 506.31 L141.862 506.31 L141.862 498.161 L126.26 498.161 L126.26 493.648 L140.635 471.75 Z" fill="#000000" fill-rule="evenodd" fill-opacity="1" /><path clip-path="url(#clip730)" d="M 0 0 M166.515 474.828 Q162.903 474.828 161.075 478.393 Q159.269 481.935 159.269 489.064 Q159.269 496.171 161.075 499.736 Q162.903 503.277 166.515 503.277 Q170.149 503.277 171.954 499.736 Q173.783 496.171 173.783 489.064 Q173.783 481.935 171.954 478.393 Q170.149 474.828 166.515 474.828 M166.515 471.125 Q172.325 471.125 175.38 475.731 Q178.459 480.314 178.459 489.064 Q178.459 497.791 175.38 502.398 Q172.325 506.981 166.515 506.981 Q160.704 506.981 157.626 502.398 Q154.57 497.791 154.57 489.064 Q154.57 480.314 157.626 475.731 Q160.704 471.125 166.515 471.125 Z" fill="#000000" fill-rule="evenodd" fill-opacity="1" /><path clip-path="url(#clip730)" d="M 0 0 M130.543 247.947 L148.899 247.947 L148.899 251.883 L134.825 251.883 L134.825 260.355 Q135.843 260.008 136.862 259.845 Q137.88 259.66 138.899 259.66 Q144.686 259.66 148.066 262.832 Q151.445 266.003 151.445 271.42 Q151.445 276.998 147.973 280.1 Q144.501 283.179 138.181 283.179 Q136.005 283.179 133.737 282.808 Q131.492 282.438 129.084 281.697 L129.084 276.998 Q131.168 278.132 133.39 278.688 Q135.612 279.244 138.089 279.244 Q142.093 279.244 144.431 277.137 Q146.769 275.031 146.769 271.42 Q146.769 267.808 144.431 265.702 Q142.093 263.595 138.089 263.595 Q136.214 263.595 134.339 264.012 Q132.487 264.429 130.543 265.308 L130.543 247.947 Z" fill="#000000" fill-rule="evenodd" fill-opacity="1" /><path clip-path="url(#clip730)" d="M 0 0 M166.515 251.026 Q162.903 251.026 161.075 254.591 Q159.269 258.133 159.269 265.262 Q159.269 272.369 161.075 275.933 Q162.903 279.475 166.515 279.475 Q170.149 279.475 171.954 275.933 Q173.783 272.369 173.783 265.262 Q173.783 258.133 171.954 254.591 Q170.149 251.026 166.515 251.026 M166.515 247.322 Q172.325 247.322 175.38 251.929 Q178.459 256.512 178.459 265.262 Q178.459 273.989 175.38 278.595 Q172.325 283.179 166.515 283.179 Q160.704 283.179 157.626 278.595 Q154.57 273.989 154.57 265.262 Q154.57 256.512 157.626 251.929 Q160.704 247.322 166.515 247.322 Z" fill="#000000" fill-rule="evenodd" fill-opacity="1" /><path clip-path="url(#clip730)" d="M 0 0 M1237.06 1536.76 L1237.06 1539.62 L1210.13 1539.62 Q1210.51 1545.67 1213.76 1548.85 Q1217.04 1552 1222.86 1552 Q1226.24 1552 1229.39 1551.17 Q1232.57 1550.35 1235.69 1548.69 L1235.69 1554.23 Q1232.54 1555.57 1229.23 1556.27 Q1225.92 1556.97 1222.51 1556.97 Q1213.98 1556.97 1208.99 1552 Q1204.02 1547.04 1204.02 1538.57 Q1204.02 1529.82 1208.73 1524.69 Q1213.47 1519.54 1221.49 1519.54 Q1228.69 1519.54 1232.86 1524.18 Q1237.06 1528.8 1237.06 1536.76 M1231.2 1535.04 Q1231.14 1530.23 1228.5 1527.37 Q1225.89 1524.5 1221.56 1524.5 Q1216.66 1524.5 1213.7 1527.27 Q1210.77 1530.04 1210.32 1535.07 L1231.2 1535.04 Z" fill="#000000" fill-rule="evenodd" fill-opacity="1" /><path clip-path="url(#clip730)" d="M 0 0 M1263.86 1525.87 Q1262.87 1525.3 1261.69 1525.04 Q1260.55 1524.76 1259.15 1524.76 Q1254.18 1524.76 1251.51 1528 Q1248.87 1531.22 1248.87 1537.27 L1248.87 1556.04 L1242.98 1556.04 L1242.98 1520.4 L1248.87 1520.4 L1248.87 1525.93 Q1250.71 1522.69 1253.67 1521.13 Q1256.63 1519.54 1260.87 1519.54 Q1261.47 1519.54 1262.2 1519.63 Q1262.93 1519.7 1263.83 1519.85 L1263.86 1525.87 Z" fill="#000000" fill-rule="evenodd" fill-opacity="1" /><path clip-path="url(#clip730)" d="M 0 0 M1289.51 1525.87 Q1288.52 1525.3 1287.35 1525.04 Q1286.2 1524.76 1284.8 1524.76 Q1279.84 1524.76 1277.16 1528 Q1274.52 1531.22 1274.52 1537.27 L1274.52 1556.04 L1268.63 1556.04 L1268.63 1520.4 L1274.52 1520.4 L1274.52 1525.93 Q1276.37 1522.69 1279.33 1521.13 Q1282.29 1519.54 1286.52 1519.54 Q1287.12 1519.54 1287.86 1519.63 Q1288.59 1519.7 1289.48 1519.85 L1289.51 1525.87 Z" fill="#000000" fill-rule="evenodd" fill-opacity="1" /><path clip-path="url(#clip730)" d="M 0 0 M1308.04 1524.5 Q1303.32 1524.5 1300.59 1528.19 Q1297.85 1531.85 1297.85 1538.25 Q1297.85 1544.65 1300.56 1548.34 Q1303.29 1552 1308.04 1552 Q1312.71 1552 1315.45 1548.31 Q1318.19 1544.62 1318.19 1538.25 Q1318.19 1531.92 1315.45 1528.23 Q1312.71 1524.5 1308.04 1524.5 M1308.04 1519.54 Q1315.67 1519.54 1320.03 1524.5 Q1324.4 1529.47 1324.4 1538.25 Q1324.4 1547 1320.03 1552 Q1315.67 1556.97 1308.04 1556.97 Q1300.36 1556.97 1296 1552 Q1291.68 1547 1291.68 1538.25 Q1291.68 1529.47 1296 1524.5 Q1300.36 1519.54 1308.04 1519.54 Z" fill="#000000" fill-rule="evenodd" fill-opacity="1" /><path clip-path="url(#clip730)" d="M 0 0 M1351.19 1525.87 Q1350.21 1525.3 1349.03 1525.04 Q1347.88 1524.76 1346.48 1524.76 Q1341.52 1524.76 1338.85 1528 Q1336.2 1531.22 1336.2 1537.27 L1336.2 1556.04 L1330.32 1556.04 L1330.32 1520.4 L1336.2 1520.4 L1336.2 1525.93 Q1338.05 1522.69 1341.01 1521.13 Q1343.97 1519.54 1348.2 1519.54 Q1348.81 1519.54 1349.54 1519.63 Q1350.27 1519.7 1351.16 1519.85 L1351.19 1525.87 Z" fill="#000000" fill-rule="evenodd" fill-opacity="1" /><path clip-path="url(#clip730)" d="M 0 0 M40.4842 1021.46 L40.4842 1012.8 L80.238 991.734 L40.4842 991.734 L40.4842 985.496 L88.0042 985.496 L88.0042 994.153 L48.2503 1015.22 L88.0042 1015.22 L88.0042 1021.46 L40.4842 1021.46 Z" fill="#000000" fill-rule="evenodd" fill-opacity="1" /><path clip-path="url(#clip730)" d="M 0 0 M73.9359 979.957 L52.3562 979.957 L52.3562 974.101 L73.7131 974.101 Q78.7739 974.101 81.3202 972.128 Q83.8346 970.154 83.8346 966.208 Q83.8346 961.465 80.8109 958.728 Q77.7872 955.959 72.5673 955.959 L52.3562 955.959 L52.3562 950.102 L88.0042 950.102 L88.0042 955.959 L82.5296 955.959 Q85.7762 958.091 87.3676 960.924 Q88.9272 963.725 88.9272 967.449 Q88.9272 973.592 85.1078 976.775 Q81.2883 979.957 73.9359 979.957 M51.4968 965.221 L51.4968 965.221 Z" fill="#000000" fill-rule="evenodd" fill-opacity="1" /><path clip-path="url(#clip730)" d="M 0 0 M59.1993 916.205 Q55.2526 914.009 53.3747 910.953 Q51.4968 907.898 51.4968 903.76 Q51.4968 898.19 55.4117 895.166 Q59.2948 892.143 66.4881 892.143 L88.0042 892.143 L88.0042 898.031 L66.679 898.031 Q61.5546 898.031 59.072 899.845 Q56.5894 901.659 56.5894 905.383 Q56.5894 909.935 59.6131 912.576 Q62.6368 915.218 67.8567 915.218 L88.0042 915.218 L88.0042 921.107 L66.679 921.107 Q61.5228 921.107 59.072 922.921 Q56.5894 924.735 56.5894 928.523 Q56.5894 933.01 59.6449 935.652 Q62.6686 938.294 67.8567 938.294 L88.0042 938.294 L88.0042 944.182 L52.3562 944.182 L52.3562 938.294 L57.8944 938.294 Q54.616 936.289 53.0564 933.488 Q51.4968 930.687 51.4968 926.836 Q51.4968 922.953 53.4702 920.247 Q55.4436 917.51 59.1993 916.205 Z" fill="#000000" fill-rule="evenodd" fill-opacity="1" /><path clip-path="url(#clip730)" d="M 0 0 M70.212 860.41 Q63.7508 860.41 60.0905 863.083 Q56.3984 865.725 56.3984 870.372 Q56.3984 875.019 60.0905 877.692 Q63.7508 880.334 70.212 880.334 Q76.6732 880.334 80.3653 877.692 Q84.0256 875.019 84.0256 870.372 Q84.0256 865.725 80.3653 863.083 Q76.6732 860.41 70.212 860.41 M57.7671 880.334 Q54.5842 878.488 53.0564 875.687 Q51.4968 872.854 51.4968 868.94 Q51.4968 862.447 56.6531 858.404 Q61.8093 854.33 70.212 854.33 Q78.6147 854.33 83.771 858.404 Q88.9272 862.447 88.9272 868.94 Q88.9272 872.854 87.3994 875.687 Q85.8398 878.488 82.657 880.334 L88.0042 880.334 L88.0042 886.222 L38.479 886.222 L38.479 880.334 L57.7671 880.334 Z" fill="#000000" fill-rule="evenodd" fill-opacity="1" /><path clip-path="url(#clip730)" d="M 0 0 M68.7161 817.696 L71.5806 817.696 L71.5806 844.623 Q77.6281 844.241 80.8109 840.994 Q83.9619 837.716 83.9619 831.891 Q83.9619 828.517 83.1344 825.366 Q82.3069 822.183 80.6518 819.064 L86.1899 819.064 Q87.5267 822.215 88.227 825.525 Q88.9272 828.836 88.9272 832.241 Q88.9272 840.771 83.9619 845.768 Q78.9967 850.734 70.5303 850.734 Q61.7774 850.734 56.6531 846.023 Q51.4968 841.281 51.4968 833.26 Q51.4968 826.067 56.1438 821.897 Q60.7589 817.696 68.7161 817.696 M66.9973 823.552 Q62.1912 823.616 59.3266 826.257 Q56.4621 828.867 56.4621 833.196 Q56.4621 838.098 59.2312 841.058 Q62.0002 843.986 67.0292 844.432 L66.9973 823.552 Z" fill="#000000" fill-rule="evenodd" fill-opacity="1" /><path clip-path="url(#clip730)" d="M 0 0 M57.8307 790.896 Q57.2578 791.883 57.0032 793.06 Q56.7167 794.206 56.7167 795.607 Q56.7167 800.572 59.9632 803.245 Q63.1779 805.887 69.2253 805.887 L88.0042 805.887 L88.0042 811.776 L52.3562 811.776 L52.3562 805.887 L57.8944 805.887 Q54.6479 804.041 53.0883 801.081 Q51.4968 798.121 51.4968 793.888 Q51.4968 793.283 51.5923 792.551 Q51.656 791.819 51.8151 790.928 L57.8307 790.896 Z" fill="#000000" fill-rule="evenodd" fill-opacity="1" /><path clip-path="url(#clip730)" d="M 0 0 M56.4621 750.219 Q56.4621 754.93 60.1542 757.667 Q63.8145 760.404 70.212 760.404 Q76.6095 760.404 80.3017 757.699 Q83.9619 754.962 83.9619 750.219 Q83.9619 745.54 80.2698 742.803 Q76.5777 740.066 70.212 740.066 Q63.8781 740.066 60.186 742.803 Q56.4621 745.54 56.4621 750.219 M51.4968 750.219 Q51.4968 742.58 56.4621 738.22 Q61.4273 733.859 70.212 733.859 Q78.9649 733.859 83.9619 738.22 Q88.9272 742.58 88.9272 750.219 Q88.9272 757.89 83.9619 762.25 Q78.9649 766.579 70.212 766.579 Q61.4273 766.579 56.4621 762.25 Q51.4968 757.89 51.4968 750.219 Z" fill="#000000" fill-rule="evenodd" fill-opacity="1" /><path clip-path="url(#clip730)" d="M 0 0 M38.479 709.67 L43.3487 709.67 L43.3487 715.271 Q43.3487 718.422 44.6219 719.664 Q45.895 720.873 49.2052 720.873 L52.3562 720.873 L52.3562 711.229 L56.9077 711.229 L56.9077 720.873 L88.0042 720.873 L88.0042 726.761 L56.9077 726.761 L56.9077 732.363 L52.3562 732.363 L52.3562 726.761 L49.8736 726.761 Q43.9216 726.761 41.2162 723.992 Q38.479 721.223 38.479 715.208 L38.479 709.67 Z" fill="#000000" fill-rule="evenodd" fill-opacity="1" /><path clip-path="url(#clip730)" d="M 0 0 M53.4065 660.081 L58.9447 660.081 Q57.6716 662.563 57.035 665.237 Q56.3984 667.911 56.3984 670.775 Q56.3984 675.136 57.7352 677.332 Q59.072 679.496 61.7456 679.496 Q63.7826 679.496 64.9603 677.937 Q66.1061 676.377 67.1565 671.666 L67.6021 669.661 Q68.9389 663.423 71.3897 660.813 Q73.8086 658.171 78.1691 658.171 Q83.1344 658.171 86.0308 662.118 Q88.9272 666.033 88.9272 672.908 Q88.9272 675.772 88.3543 678.891 Q87.8132 681.979 86.6992 685.416 L80.6518 685.416 Q82.3387 682.17 83.198 679.019 Q84.0256 675.868 84.0256 672.78 Q84.0256 668.643 82.6251 666.415 Q81.1929 664.187 78.6147 664.187 Q76.2276 664.187 74.9545 665.81 Q73.6813 667.401 72.5037 672.844 L72.0262 674.881 Q70.8804 680.324 68.5251 682.743 Q66.138 685.162 62.0002 685.162 Q56.9713 685.162 54.2341 681.597 Q51.4968 678.032 51.4968 671.475 Q51.4968 668.229 51.9743 665.364 Q52.4517 662.5 53.4065 660.081 Z" fill="#000000" fill-rule="evenodd" fill-opacity="1" /><path clip-path="url(#clip730)" d="M 0 0 M70.0847 635.827 Q70.0847 642.925 71.7079 645.662 Q73.3312 648.4 77.2461 648.4 Q80.3653 648.4 82.2114 646.363 Q84.0256 644.294 84.0256 640.761 Q84.0256 635.891 80.5881 632.963 Q77.1188 630.003 71.3897 630.003 L70.0847 630.003 L70.0847 635.827 M67.6657 624.146 L88.0042 624.146 L88.0042 630.003 L82.5933 630.003 Q85.8398 632.008 87.3994 635 Q88.9272 637.992 88.9272 642.32 Q88.9272 647.795 85.8716 651.041 Q82.7843 654.256 77.6281 654.256 Q71.6125 654.256 68.5569 650.246 Q65.5014 646.203 65.5014 638.215 L65.5014 630.003 L64.9285 630.003 Q60.8862 630.003 58.6901 632.676 Q56.4621 635.318 56.4621 640.124 Q56.4621 643.18 57.1941 646.076 Q57.9262 648.973 59.3903 651.646 L53.9795 651.646 Q52.7381 648.431 52.1334 645.408 Q51.4968 642.384 51.4968 639.519 Q51.4968 631.785 55.5072 627.966 Q59.5176 624.146 67.6657 624.146 Z" fill="#000000" fill-rule="evenodd" fill-opacity="1" /><path clip-path="url(#clip730)" d="M 0 0 M59.1993 590.249 Q55.2526 588.053 53.3747 584.997 Q51.4968 581.942 51.4968 577.804 Q51.4968 572.234 55.4117 569.21 Q59.2948 566.187 66.4881 566.187 L88.0042 566.187 L88.0042 572.075 L66.679 572.075 Q61.5546 572.075 59.072 573.889 Q56.5894 575.703 56.5894 579.427 Q56.5894 583.979 59.6131 586.62 Q62.6368 589.262 67.8567 589.262 L88.0042 589.262 L88.0042 595.151 L66.679 595.151 Q61.5228 595.151 59.072 596.965 Q56.5894 598.779 56.5894 602.567 Q56.5894 607.054 59.6449 609.696 Q62.6686 612.338 67.8567 612.338 L88.0042 612.338 L88.0042 618.226 L52.3562 618.226 L52.3562 612.338 L57.8944 612.338 Q54.616 610.333 53.0564 607.532 Q51.4968 604.731 51.4968 600.88 Q51.4968 596.997 53.4702 594.291 Q55.4436 591.554 59.1993 590.249 Z" fill="#000000" fill-rule="evenodd" fill-opacity="1" /><path clip-path="url(#clip730)" d="M 0 0 M82.657 554.378 L101.563 554.378 L101.563 560.266 L52.3562 560.266 L52.3562 554.378 L57.7671 554.378 Q54.5842 552.532 53.0564 549.731 Q51.4968 546.898 51.4968 542.984 Q51.4968 536.491 56.6531 532.448 Q61.8093 528.374 70.212 528.374 Q78.6147 528.374 83.771 532.448 Q88.9272 536.491 88.9272 542.984 Q88.9272 546.898 87.3994 549.731 Q85.8398 552.532 82.657 554.378 M70.212 534.453 Q63.7508 534.453 60.0905 537.127 Q56.3984 539.769 56.3984 544.416 Q56.3984 549.063 60.0905 551.736 Q63.7508 554.378 70.212 554.378 Q76.6732 554.378 80.3653 551.736 Q84.0256 549.063 84.0256 544.416 Q84.0256 539.769 80.3653 537.127 Q76.6732 534.453 70.212 534.453 Z" fill="#000000" fill-rule="evenodd" fill-opacity="1" /><path clip-path="url(#clip730)" d="M 0 0 M38.479 522.231 L38.479 516.375 L88.0042 516.375 L88.0042 522.231 L38.479 522.231 Z" fill="#000000" fill-rule="evenodd" fill-opacity="1" /><path clip-path="url(#clip730)" d="M 0 0 M68.7161 479.74 L71.5806 479.74 L71.5806 506.667 Q77.6281 506.285 80.8109 503.039 Q83.9619 499.76 83.9619 493.936 Q83.9619 490.562 83.1344 487.411 Q82.3069 484.228 80.6518 481.109 L86.1899 481.109 Q87.5267 484.26 88.227 487.57 Q88.9272 490.88 88.9272 494.286 Q88.9272 502.816 83.9619 507.813 Q78.9967 512.778 70.5303 512.778 Q61.7774 512.778 56.6531 508.068 Q51.4968 503.325 51.4968 495.304 Q51.4968 488.111 56.1438 483.942 Q60.7589 479.74 68.7161 479.74 M66.9973 485.597 Q62.1912 485.66 59.3266 488.302 Q56.4621 490.912 56.4621 495.241 Q56.4621 500.142 59.2312 503.102 Q62.0002 506.031 67.0292 506.476 L66.9973 485.597 Z" fill="#000000" fill-rule="evenodd" fill-opacity="1" /><path clip-path="url(#clip730)" d="M 0 0 M53.4065 450.872 L58.9447 450.872 Q57.6716 453.354 57.035 456.028 Q56.3984 458.702 56.3984 461.566 Q56.3984 465.927 57.7352 468.123 Q59.072 470.287 61.7456 470.287 Q63.7826 470.287 64.9603 468.728 Q66.1061 467.168 67.1565 462.457 L67.6021 460.452 Q68.9389 454.214 71.3897 451.604 Q73.8086 448.962 78.1691 448.962 Q83.1344 448.962 86.0308 452.909 Q88.9272 456.824 88.9272 463.699 Q88.9272 466.563 88.3543 469.682 Q87.8132 472.77 86.6992 476.207 L80.6518 476.207 Q82.3387 472.961 83.198 469.81 Q84.0256 466.659 84.0256 463.571 Q84.0256 459.434 82.6251 457.206 Q81.1929 454.978 78.6147 454.978 Q76.2276 454.978 74.9545 456.601 Q73.6813 458.192 72.5037 463.635 L72.0262 465.672 Q70.8804 471.115 68.5251 473.534 Q66.138 475.953 62.0002 475.953 Q56.9713 475.953 54.2341 472.388 Q51.4968 468.823 51.4968 462.266 Q51.4968 459.02 51.9743 456.155 Q52.4517 453.291 53.4065 450.872 Z" fill="#000000" fill-rule="evenodd" fill-opacity="1" /><path clip-path="url(#clip732)" d="
M320.729 1339.48 L320.729 1384.24 L559.949 1384.24 L559.949 1339.48 L320.729 1339.48 L320.729 1339.48  Z
  " fill="#009af9" fill-rule="evenodd" fill-opacity="1"/>
<polyline clip-path="url(#clip732)" style="stroke:#000000; stroke-width:4; stroke-opacity:1; fill:none" points="
  320.729,1339.48 320.729,1384.24 559.949,1384.24 559.949,1339.48 320.729,1339.48 
  "/>
<path clip-path="url(#clip732)" d="
M559.949 86.1857 L559.949 1384.24 L799.168 1384.24 L799.168 86.1857 L559.949 86.1857 L559.949 86.1857  Z
  " fill="#009af9" fill-rule="evenodd" fill-opacity="1"/>
<polyline clip-path="url(#clip732)" style="stroke:#000000; stroke-width:4; stroke-opacity:1; fill:none" points="
  559.949,86.1857 559.949,1384.24 799.168,1384.24 799.168,86.1857 559.949,86.1857 
  "/>
<path clip-path="url(#clip732)" d="
M799.168 1003.77 L799.168 1384.24 L1038.39 1384.24 L1038.39 1003.77 L799.168 1003.77 L799.168 1003.77  Z
  " fill="#009af9" fill-rule="evenodd" fill-opacity="1"/>
<polyline clip-path="url(#clip732)" style="stroke:#000000; stroke-width:4; stroke-opacity:1; fill:none" points="
  799.168,1003.77 799.168,1384.24 1038.39,1384.24 1038.39,1003.77 799.168,1003.77 
  "/>
<path clip-path="url(#clip732)" d="
M1038.39 1227.58 L1038.39 1384.24 L1277.61 1384.24 L1277.61 1227.58 L1038.39 1227.58 L1038.39 1227.58  Z
  " fill="#009af9" fill-rule="evenodd" fill-opacity="1"/>
<polyline clip-path="url(#clip732)" style="stroke:#000000; stroke-width:4; stroke-opacity:1; fill:none" points="
  1038.39,1227.58 1038.39,1384.24 1277.61,1384.24 1277.61,1227.58 1038.39,1227.58 
  "/>
<path clip-path="url(#clip732)" d="
M1277.61 1182.82 L1277.61 1384.24 L1516.83 1384.24 L1516.83 1182.82 L1277.61 1182.82 L1277.61 1182.82  Z
  " fill="#009af9" fill-rule="evenodd" fill-opacity="1"/>
<polyline clip-path="url(#clip732)" style="stroke:#000000; stroke-width:4; stroke-opacity:1; fill:none" points="
  1277.61,1182.82 1277.61,1384.24 1516.83,1384.24 1516.83,1182.82 1277.61,1182.82 
  "/>
<path clip-path="url(#clip732)" d="
M1516.83 1317.1 L1516.83 1384.24 L1756.05 1384.24 L1756.05 1317.1 L1516.83 1317.1 L1516.83 1317.1  Z
  " fill="#009af9" fill-rule="evenodd" fill-opacity="1"/>
<polyline clip-path="url(#clip732)" style="stroke:#000000; stroke-width:4; stroke-opacity:1; fill:none" points="
  1516.83,1317.1 1516.83,1384.24 1756.05,1384.24 1756.05,1317.1 1516.83,1317.1 
  "/>
<path clip-path="url(#clip732)" d="
M1756.05 1317.1 L1756.05 1384.24 L1995.27 1384.24 L1995.27 1317.1 L1756.05 1317.1 L1756.05 1317.1  Z
  " fill="#009af9" fill-rule="evenodd" fill-opacity="1"/>
<polyline clip-path="url(#clip732)" style="stroke:#000000; stroke-width:4; stroke-opacity:1; fill:none" points="
  1756.05,1317.1 1756.05,1384.24 1995.27,1384.24 1995.27,1317.1 1756.05,1317.1 
  "/>
<path clip-path="url(#clip732)" d="
M1995.27 1361.86 L1995.27 1384.24 L2234.49 1384.24 L2234.49 1361.86 L1995.27 1361.86 L1995.27 1361.86  Z
  " fill="#009af9" fill-rule="evenodd" fill-opacity="1"/>
<polyline clip-path="url(#clip732)" style="stroke:#000000; stroke-width:4; stroke-opacity:1; fill:none" points="
  1995.27,1361.86 1995.27,1384.24 2234.49,1384.24 2234.49,1361.86 1995.27,1361.86 
  "/>
</svg>
