<?xml version="1.0" encoding="utf-8"?>
<svg xmlns="http://www.w3.org/2000/svg" xmlns:xlink="http://www.w3.org/1999/xlink" width="600" height="400" viewBox="0 0 2400 1600">
<defs>
  <clipPath id="clip510">
    <rect x="0" y="0" width="2400" height="1600"/>
  </clipPath>
</defs>
<path clip-path="url(#clip510)" d="
M0 1600 L2400 1600 L2400 0 L0 0  Z
  " fill="#ffffff" fill-rule="evenodd" fill-opacity="1"/>
<defs>
  <clipPath id="clip511">
    <rect x="480" y="0" width="1681" height="1600"/>
  </clipPath>
</defs>
<path clip-path="url(#clip510)" d="
M277.224 1423.18 L2352.76 1423.18 L2352.76 47.2441 L277.224 47.2441  Z
  " fill="#ffffff" fill-rule="evenodd" fill-opacity="1"/>
<defs>
  <clipPath id="clip512">
    <rect x="277" y="47" width="2077" height="1377"/>
  </clipPath>
</defs>
<polyline clip-path="url(#clip512)" style="stroke:#000000; stroke-width:2; stroke-opacity:0.1; fill:none" points="
  629.733,1423.18 629.733,47.2441 
  "/>
<polyline clip-path="url(#clip512)" style="stroke:#000000; stroke-width:2; stroke-opacity:0.1; fill:none" points="
  987.258,1423.18 987.258,47.2441 
  "/>
<polyline clip-path="url(#clip512)" style="stroke:#000000; stroke-width:2; stroke-opacity:0.1; fill:none" points="
  1344.78,1423.18 1344.78,47.2441 
  "/>
<polyline clip-path="url(#clip512)" style="stroke:#000000; stroke-width:2; stroke-opacity:0.1; fill:none" points="
  1702.31,1423.18 1702.31,47.2441 
  "/>
<polyline clip-path="url(#clip512)" style="stroke:#000000; stroke-width:2; stroke-opacity:0.1; fill:none" points="
  2059.84,1423.18 2059.84,47.2441 
  "/>
<polyline clip-path="url(#clip510)" style="stroke:#000000; stroke-width:4; stroke-opacity:1; fill:none" points="
  277.224,1423.18 2352.76,1423.18 
  "/>
<polyline clip-path="url(#clip510)" style="stroke:#000000; stroke-width:4; stroke-opacity:1; fill:none" points="
  629.733,1423.18 629.733,1406.67 
  "/>
<polyline clip-path="url(#clip510)" style="stroke:#000000; stroke-width:4; stroke-opacity:1; fill:none" points="
  987.258,1423.18 987.258,1406.67 
  "/>
<polyline clip-path="url(#clip510)" style="stroke:#000000; stroke-width:4; stroke-opacity:1; fill:none" points="
  1344.78,1423.18 1344.78,1406.67 
  "/>
<polyline clip-path="url(#clip510)" style="stroke:#000000; stroke-width:4; stroke-opacity:1; fill:none" points="
  1702.31,1423.18 1702.31,1406.67 
  "/>
<polyline clip-path="url(#clip510)" style="stroke:#000000; stroke-width:4; stroke-opacity:1; fill:none" points="
  2059.84,1423.18 2059.84,1406.67 
  "/>
<path clip-path="url(#clip510)" d="M 0 0 M584.825 1452.37 Q581.214 1452.37 579.386 1455.94 Q577.58 1459.48 577.58 1466.61 Q577.58 1473.71 579.386 1477.28 Q581.214 1480.82 584.825 1480.82 Q588.46 1480.82 590.265 1477.28 Q592.094 1473.71 592.094 1466.61 Q592.094 1459.48 590.265 1455.94 Q588.46 1452.37 584.825 1452.37 M584.825 1448.67 Q590.636 1448.67 593.691 1453.27 Q596.77 1457.86 596.77 1466.61 Q596.77 1475.33 593.691 1479.94 Q590.636 1484.52 584.825 1484.52 Q579.015 1484.52 575.937 1479.94 Q572.881 1475.33 572.881 1466.61 Q572.881 1457.86 575.937 1453.27 Q579.015 1448.67 584.825 1448.67 Z" fill="#000000" fill-rule="evenodd" fill-opacity="1" /><path clip-path="url(#clip510)" d="M 0 0 M601.839 1477.97 L606.723 1477.97 L606.723 1483.85 L601.839 1483.85 L601.839 1477.97 Z" fill="#000000" fill-rule="evenodd" fill-opacity="1" /><path clip-path="url(#clip510)" d="M 0 0 M611.932 1483.13 L611.932 1478.88 Q613.691 1479.71 615.497 1480.15 Q617.302 1480.59 619.038 1480.59 Q623.668 1480.59 626.098 1477.49 Q628.552 1474.36 628.899 1468.02 Q627.557 1470.01 625.496 1471.07 Q623.436 1472.14 620.936 1472.14 Q615.751 1472.14 612.719 1469.01 Q609.71 1465.87 609.71 1460.43 Q609.71 1455.1 612.858 1451.88 Q616.006 1448.67 621.237 1448.67 Q627.233 1448.67 630.381 1453.27 Q633.552 1457.86 633.552 1466.61 Q633.552 1474.78 629.663 1479.66 Q625.797 1484.52 619.246 1484.52 Q617.487 1484.52 615.682 1484.18 Q613.876 1483.83 611.932 1483.13 M621.237 1468.48 Q624.385 1468.48 626.214 1466.33 Q628.066 1464.18 628.066 1460.43 Q628.066 1456.7 626.214 1454.55 Q624.385 1452.37 621.237 1452.37 Q618.089 1452.37 616.237 1454.55 Q614.409 1456.7 614.409 1460.43 Q614.409 1464.18 616.237 1466.33 Q618.089 1468.48 621.237 1468.48 Z" fill="#000000" fill-rule="evenodd" fill-opacity="1" /><path clip-path="url(#clip510)" d="M 0 0 M648.621 1467.44 Q645.288 1467.44 643.367 1469.22 Q641.469 1471 641.469 1474.13 Q641.469 1477.25 643.367 1479.04 Q645.288 1480.82 648.621 1480.82 Q651.955 1480.82 653.876 1479.04 Q655.797 1477.23 655.797 1474.13 Q655.797 1471 653.876 1469.22 Q651.978 1467.44 648.621 1467.44 M643.945 1465.45 Q640.936 1464.71 639.246 1462.65 Q637.58 1460.59 637.58 1457.63 Q637.58 1453.48 640.52 1451.07 Q643.482 1448.67 648.621 1448.67 Q653.783 1448.67 656.723 1451.07 Q659.663 1453.48 659.663 1457.63 Q659.663 1460.59 657.973 1462.65 Q656.306 1464.71 653.32 1465.45 Q656.7 1466.24 658.575 1468.53 Q660.473 1470.82 660.473 1474.13 Q660.473 1479.15 657.394 1481.84 Q654.339 1484.52 648.621 1484.52 Q642.904 1484.52 639.825 1481.84 Q636.77 1479.15 636.77 1474.13 Q636.77 1470.82 638.668 1468.53 Q640.566 1466.24 643.945 1465.45 M642.232 1458.06 Q642.232 1460.75 643.899 1462.25 Q645.589 1463.76 648.621 1463.76 Q651.631 1463.76 653.32 1462.25 Q655.033 1460.75 655.033 1458.06 Q655.033 1455.38 653.32 1453.88 Q651.631 1452.37 648.621 1452.37 Q645.589 1452.37 643.899 1453.88 Q642.232 1455.38 642.232 1458.06 Z" fill="#000000" fill-rule="evenodd" fill-opacity="1" /><path clip-path="url(#clip510)" d="M 0 0 M664.362 1449.29 L686.584 1449.29 L686.584 1451.28 L674.038 1483.85 L669.154 1483.85 L680.959 1453.23 L664.362 1453.23 L664.362 1449.29 Z" fill="#000000" fill-rule="evenodd" fill-opacity="1" /><path clip-path="url(#clip510)" d="M 0 0 M941.946 1452.37 Q938.335 1452.37 936.506 1455.94 Q934.701 1459.48 934.701 1466.61 Q934.701 1473.71 936.506 1477.28 Q938.335 1480.82 941.946 1480.82 Q945.58 1480.82 947.386 1477.28 Q949.214 1473.71 949.214 1466.61 Q949.214 1459.48 947.386 1455.94 Q945.58 1452.37 941.946 1452.37 M941.946 1448.67 Q947.756 1448.67 950.812 1453.27 Q953.89 1457.86 953.89 1466.61 Q953.89 1475.33 950.812 1479.94 Q947.756 1484.52 941.946 1484.52 Q936.136 1484.52 933.057 1479.94 Q930.002 1475.33 930.002 1466.61 Q930.002 1457.86 933.057 1453.27 Q936.136 1448.67 941.946 1448.67 Z" fill="#000000" fill-rule="evenodd" fill-opacity="1" /><path clip-path="url(#clip510)" d="M 0 0 M958.96 1477.97 L963.844 1477.97 L963.844 1483.85 L958.96 1483.85 L958.96 1477.97 Z" fill="#000000" fill-rule="evenodd" fill-opacity="1" /><path clip-path="url(#clip510)" d="M 0 0 M969.052 1483.13 L969.052 1478.88 Q970.812 1479.71 972.617 1480.15 Q974.423 1480.59 976.159 1480.59 Q980.788 1480.59 983.219 1477.49 Q985.673 1474.36 986.02 1468.02 Q984.677 1470.01 982.617 1471.07 Q980.557 1472.14 978.057 1472.14 Q972.872 1472.14 969.839 1469.01 Q966.83 1465.87 966.83 1460.43 Q966.83 1455.1 969.978 1451.88 Q973.126 1448.67 978.358 1448.67 Q984.353 1448.67 987.501 1453.27 Q990.673 1457.86 990.673 1466.61 Q990.673 1474.78 986.784 1479.66 Q982.918 1484.52 976.367 1484.52 Q974.608 1484.52 972.802 1484.18 Q970.997 1483.83 969.052 1483.13 M978.358 1468.48 Q981.506 1468.48 983.335 1466.33 Q985.186 1464.18 985.186 1460.43 Q985.186 1456.7 983.335 1454.55 Q981.506 1452.37 978.358 1452.37 Q975.21 1452.37 973.358 1454.55 Q971.529 1456.7 971.529 1460.43 Q971.529 1464.18 973.358 1466.33 Q975.21 1468.48 978.358 1468.48 Z" fill="#000000" fill-rule="evenodd" fill-opacity="1" /><path clip-path="url(#clip510)" d="M 0 0 M995.881 1483.13 L995.881 1478.88 Q997.64 1479.71 999.446 1480.15 Q1001.25 1480.59 1002.99 1480.59 Q1007.62 1480.59 1010.05 1477.49 Q1012.5 1474.36 1012.85 1468.02 Q1011.51 1470.01 1009.45 1471.07 Q1007.39 1472.14 1004.89 1472.14 Q999.7 1472.14 996.668 1469.01 Q993.659 1465.87 993.659 1460.43 Q993.659 1455.1 996.807 1451.88 Q999.955 1448.67 1005.19 1448.67 Q1011.18 1448.67 1014.33 1453.27 Q1017.5 1457.86 1017.5 1466.61 Q1017.5 1474.78 1013.61 1479.66 Q1009.75 1484.52 1003.2 1484.52 Q1001.44 1484.52 999.631 1484.18 Q997.825 1483.83 995.881 1483.13 M1005.19 1468.48 Q1008.33 1468.48 1010.16 1466.33 Q1012.02 1464.18 1012.02 1460.43 Q1012.02 1456.7 1010.16 1454.55 Q1008.33 1452.37 1005.19 1452.37 Q1002.04 1452.37 1000.19 1454.55 Q998.358 1456.7 998.358 1460.43 Q998.358 1464.18 1000.19 1466.33 Q1002.04 1468.48 1005.19 1468.48 Z" fill="#000000" fill-rule="evenodd" fill-opacity="1" /><path clip-path="url(#clip510)" d="M 0 0 M1032.57 1452.37 Q1028.96 1452.37 1027.13 1455.94 Q1025.33 1459.48 1025.33 1466.61 Q1025.33 1473.71 1027.13 1477.28 Q1028.96 1480.82 1032.57 1480.82 Q1036.2 1480.82 1038.01 1477.28 Q1039.84 1473.71 1039.84 1466.61 Q1039.84 1459.48 1038.01 1455.94 Q1036.2 1452.37 1032.57 1452.37 M1032.57 1448.67 Q1038.38 1448.67 1041.44 1453.27 Q1044.51 1457.86 1044.51 1466.61 Q1044.51 1475.33 1041.44 1479.94 Q1038.38 1484.52 1032.57 1484.52 Q1026.76 1484.52 1023.68 1479.94 Q1020.63 1475.33 1020.63 1466.61 Q1020.63 1457.86 1023.68 1453.27 Q1026.76 1448.67 1032.57 1448.67 Z" fill="#000000" fill-rule="evenodd" fill-opacity="1" /><path clip-path="url(#clip510)" d="M 0 0 M1299.8 1452.37 Q1296.18 1452.37 1294.36 1455.94 Q1292.55 1459.48 1292.55 1466.61 Q1292.55 1473.71 1294.36 1477.28 Q1296.18 1480.82 1299.8 1480.82 Q1303.43 1480.82 1305.24 1477.28 Q1307.06 1473.71 1307.06 1466.61 Q1307.06 1459.48 1305.24 1455.94 Q1303.43 1452.37 1299.8 1452.37 M1299.8 1448.67 Q1305.61 1448.67 1308.66 1453.27 Q1311.74 1457.86 1311.74 1466.61 Q1311.74 1475.33 1308.66 1479.94 Q1305.61 1484.52 1299.8 1484.52 Q1293.99 1484.52 1290.91 1479.94 Q1287.85 1475.33 1287.85 1466.61 Q1287.85 1457.86 1290.91 1453.27 Q1293.99 1448.67 1299.8 1448.67 Z" fill="#000000" fill-rule="evenodd" fill-opacity="1" /><path clip-path="url(#clip510)" d="M 0 0 M1316.81 1477.97 L1321.69 1477.97 L1321.69 1483.85 L1316.81 1483.85 L1316.81 1477.97 Z" fill="#000000" fill-rule="evenodd" fill-opacity="1" /><path clip-path="url(#clip510)" d="M 0 0 M1326.9 1483.13 L1326.9 1478.88 Q1328.66 1479.71 1330.47 1480.15 Q1332.27 1480.59 1334.01 1480.59 Q1338.64 1480.59 1341.07 1477.49 Q1343.52 1474.36 1343.87 1468.02 Q1342.53 1470.01 1340.47 1471.07 Q1338.41 1472.14 1335.91 1472.14 Q1330.72 1472.14 1327.69 1469.01 Q1324.68 1465.87 1324.68 1460.43 Q1324.68 1455.1 1327.83 1451.88 Q1330.98 1448.67 1336.21 1448.67 Q1342.2 1448.67 1345.35 1453.27 Q1348.52 1457.86 1348.52 1466.61 Q1348.52 1474.78 1344.63 1479.66 Q1340.77 1484.52 1334.22 1484.52 Q1332.46 1484.52 1330.65 1484.18 Q1328.85 1483.83 1326.9 1483.13 M1336.21 1468.48 Q1339.36 1468.48 1341.18 1466.33 Q1343.04 1464.18 1343.04 1460.43 Q1343.04 1456.7 1341.18 1454.55 Q1339.36 1452.37 1336.21 1452.37 Q1333.06 1452.37 1331.21 1454.55 Q1329.38 1456.7 1329.38 1460.43 Q1329.38 1464.18 1331.21 1466.33 Q1333.06 1468.48 1336.21 1468.48 Z" fill="#000000" fill-rule="evenodd" fill-opacity="1" /><path clip-path="url(#clip510)" d="M 0 0 M1353.73 1483.13 L1353.73 1478.88 Q1355.49 1479.71 1357.3 1480.15 Q1359.1 1480.59 1360.84 1480.59 Q1365.47 1480.59 1367.9 1477.49 Q1370.35 1474.36 1370.7 1468.02 Q1369.36 1470.01 1367.3 1471.07 Q1365.24 1472.14 1362.74 1472.14 Q1357.55 1472.14 1354.52 1469.01 Q1351.51 1465.87 1351.51 1460.43 Q1351.51 1455.1 1354.66 1451.88 Q1357.8 1448.67 1363.04 1448.67 Q1369.03 1448.67 1372.18 1453.27 Q1375.35 1457.86 1375.35 1466.61 Q1375.35 1474.78 1371.46 1479.66 Q1367.6 1484.52 1361.05 1484.52 Q1359.29 1484.52 1357.48 1484.18 Q1355.67 1483.83 1353.73 1483.13 M1363.04 1468.48 Q1366.18 1468.48 1368.01 1466.33 Q1369.86 1464.18 1369.86 1460.43 Q1369.86 1456.7 1368.01 1454.55 Q1366.18 1452.37 1363.04 1452.37 Q1359.89 1452.37 1358.04 1454.55 Q1356.21 1456.7 1356.21 1460.43 Q1356.21 1464.18 1358.04 1466.33 Q1359.89 1468.48 1363.04 1468.48 Z" fill="#000000" fill-rule="evenodd" fill-opacity="1" /><path clip-path="url(#clip510)" d="M 0 0 M1394.59 1465.22 Q1397.94 1465.94 1399.82 1468.2 Q1401.72 1470.47 1401.72 1473.81 Q1401.72 1478.92 1398.2 1481.72 Q1394.68 1484.52 1388.2 1484.52 Q1386.02 1484.52 1383.71 1484.08 Q1381.42 1483.67 1378.96 1482.81 L1378.96 1478.3 Q1380.91 1479.43 1383.22 1480.01 Q1385.54 1480.59 1388.06 1480.59 Q1392.46 1480.59 1394.75 1478.85 Q1397.06 1477.12 1397.06 1473.81 Q1397.06 1470.75 1394.91 1469.04 Q1392.78 1467.3 1388.96 1467.3 L1384.93 1467.3 L1384.93 1463.46 L1389.15 1463.46 Q1392.6 1463.46 1394.42 1462.09 Q1396.25 1460.7 1396.25 1458.11 Q1396.25 1455.45 1394.36 1454.04 Q1392.48 1452.6 1388.96 1452.6 Q1387.04 1452.6 1384.84 1453.02 Q1382.64 1453.44 1380 1454.31 L1380 1450.15 Q1382.67 1449.41 1384.98 1449.04 Q1387.32 1448.67 1389.38 1448.67 Q1394.7 1448.67 1397.8 1451.1 Q1400.91 1453.5 1400.91 1457.63 Q1400.91 1460.5 1399.26 1462.49 Q1397.62 1464.45 1394.59 1465.22 Z" fill="#000000" fill-rule="evenodd" fill-opacity="1" /><path clip-path="url(#clip510)" d="M 0 0 M1656.92 1452.37 Q1653.31 1452.37 1651.48 1455.94 Q1649.67 1459.48 1649.67 1466.61 Q1649.67 1473.71 1651.48 1477.28 Q1653.31 1480.82 1656.92 1480.82 Q1660.55 1480.82 1662.36 1477.28 Q1664.18 1473.71 1664.18 1466.61 Q1664.18 1459.48 1662.36 1455.94 Q1660.55 1452.37 1656.92 1452.37 M1656.92 1448.67 Q1662.73 1448.67 1665.78 1453.27 Q1668.86 1457.86 1668.86 1466.61 Q1668.86 1475.33 1665.78 1479.94 Q1662.73 1484.52 1656.92 1484.52 Q1651.11 1484.52 1648.03 1479.94 Q1644.97 1475.33 1644.97 1466.61 Q1644.97 1457.86 1648.03 1453.27 Q1651.11 1448.67 1656.92 1448.67 Z" fill="#000000" fill-rule="evenodd" fill-opacity="1" /><path clip-path="url(#clip510)" d="M 0 0 M1673.93 1477.97 L1678.81 1477.97 L1678.81 1483.85 L1673.93 1483.85 L1673.93 1477.97 Z" fill="#000000" fill-rule="evenodd" fill-opacity="1" /><path clip-path="url(#clip510)" d="M 0 0 M1684.02 1483.13 L1684.02 1478.88 Q1685.78 1479.71 1687.59 1480.15 Q1689.39 1480.59 1691.13 1480.59 Q1695.76 1480.59 1698.19 1477.49 Q1700.64 1474.36 1700.99 1468.02 Q1699.65 1470.01 1697.59 1471.07 Q1695.53 1472.14 1693.03 1472.14 Q1687.84 1472.14 1684.81 1469.01 Q1681.8 1465.87 1681.8 1460.43 Q1681.8 1455.1 1684.95 1451.88 Q1688.1 1448.67 1693.33 1448.67 Q1699.32 1448.67 1702.47 1453.27 Q1705.64 1457.86 1705.64 1466.61 Q1705.64 1474.78 1701.75 1479.66 Q1697.89 1484.52 1691.34 1484.52 Q1689.58 1484.52 1687.77 1484.18 Q1685.97 1483.83 1684.02 1483.13 M1693.33 1468.48 Q1696.48 1468.48 1698.3 1466.33 Q1700.16 1464.18 1700.16 1460.43 Q1700.16 1456.7 1698.3 1454.55 Q1696.48 1452.37 1693.33 1452.37 Q1690.18 1452.37 1688.33 1454.55 Q1686.5 1456.7 1686.5 1460.43 Q1686.5 1464.18 1688.33 1466.33 Q1690.18 1468.48 1693.33 1468.48 Z" fill="#000000" fill-rule="evenodd" fill-opacity="1" /><path clip-path="url(#clip510)" d="M 0 0 M1710.85 1483.13 L1710.85 1478.88 Q1712.61 1479.71 1714.42 1480.15 Q1716.22 1480.59 1717.96 1480.59 Q1722.59 1480.59 1725.02 1477.49 Q1727.47 1474.36 1727.82 1468.02 Q1726.48 1470.01 1724.42 1471.07 Q1722.36 1472.14 1719.86 1472.14 Q1714.67 1472.14 1711.64 1469.01 Q1708.63 1465.87 1708.63 1460.43 Q1708.63 1455.1 1711.78 1451.88 Q1714.93 1448.67 1720.16 1448.67 Q1726.15 1448.67 1729.3 1453.27 Q1732.47 1457.86 1732.47 1466.61 Q1732.47 1474.78 1728.58 1479.66 Q1724.72 1484.52 1718.17 1484.52 Q1716.41 1484.52 1714.6 1484.18 Q1712.8 1483.83 1710.85 1483.13 M1720.16 1468.48 Q1723.3 1468.48 1725.13 1466.33 Q1726.99 1464.18 1726.99 1460.43 Q1726.99 1456.7 1725.13 1454.55 Q1723.3 1452.37 1720.16 1452.37 Q1717.01 1452.37 1715.16 1454.55 Q1713.33 1456.7 1713.33 1460.43 Q1713.33 1464.18 1715.16 1466.33 Q1717.01 1468.48 1720.16 1468.48 Z" fill="#000000" fill-rule="evenodd" fill-opacity="1" /><path clip-path="url(#clip510)" d="M 0 0 M1748.12 1464.71 Q1744.97 1464.71 1743.12 1466.86 Q1741.29 1469.01 1741.29 1472.76 Q1741.29 1476.49 1743.12 1478.67 Q1744.97 1480.82 1748.12 1480.82 Q1751.27 1480.82 1753.1 1478.67 Q1754.95 1476.49 1754.95 1472.76 Q1754.95 1469.01 1753.1 1466.86 Q1751.27 1464.71 1748.12 1464.71 M1757.4 1450.06 L1757.4 1454.31 Q1755.64 1453.48 1753.84 1453.04 Q1752.05 1452.6 1750.3 1452.6 Q1745.67 1452.6 1743.21 1455.73 Q1740.78 1458.85 1740.43 1465.17 Q1741.8 1463.16 1743.86 1462.09 Q1745.92 1461 1748.4 1461 Q1753.61 1461 1756.61 1464.18 Q1759.65 1467.32 1759.65 1472.76 Q1759.65 1478.09 1756.5 1481.31 Q1753.35 1484.52 1748.12 1484.52 Q1742.12 1484.52 1738.95 1479.94 Q1735.78 1475.33 1735.78 1466.61 Q1735.78 1458.41 1739.67 1453.55 Q1743.56 1448.67 1750.11 1448.67 Q1751.87 1448.67 1753.65 1449.01 Q1755.46 1449.36 1757.4 1450.06 Z" fill="#000000" fill-rule="evenodd" fill-opacity="1" /><path clip-path="url(#clip510)" d="M 0 0 M2014.62 1452.37 Q2011 1452.37 2009.18 1455.94 Q2007.37 1459.48 2007.37 1466.61 Q2007.37 1473.71 2009.18 1477.28 Q2011 1480.82 2014.62 1480.82 Q2018.25 1480.82 2020.06 1477.28 Q2021.88 1473.71 2021.88 1466.61 Q2021.88 1459.48 2020.06 1455.94 Q2018.25 1452.37 2014.62 1452.37 M2014.62 1448.67 Q2020.43 1448.67 2023.48 1453.27 Q2026.56 1457.86 2026.56 1466.61 Q2026.56 1475.33 2023.48 1479.94 Q2020.43 1484.52 2014.62 1484.52 Q2008.81 1484.52 2005.73 1479.94 Q2002.67 1475.33 2002.67 1466.61 Q2002.67 1457.86 2005.73 1453.27 Q2008.81 1448.67 2014.62 1448.67 Z" fill="#000000" fill-rule="evenodd" fill-opacity="1" /><path clip-path="url(#clip510)" d="M 0 0 M2031.63 1477.97 L2036.51 1477.97 L2036.51 1483.85 L2031.63 1483.85 L2031.63 1477.97 Z" fill="#000000" fill-rule="evenodd" fill-opacity="1" /><path clip-path="url(#clip510)" d="M 0 0 M2041.72 1483.13 L2041.72 1478.88 Q2043.48 1479.71 2045.29 1480.15 Q2047.09 1480.59 2048.83 1480.59 Q2053.46 1480.59 2055.89 1477.49 Q2058.34 1474.36 2058.69 1468.02 Q2057.35 1470.01 2055.29 1471.07 Q2053.23 1472.14 2050.73 1472.14 Q2045.54 1472.14 2042.51 1469.01 Q2039.5 1465.87 2039.5 1460.43 Q2039.5 1455.1 2042.65 1451.88 Q2045.8 1448.67 2051.03 1448.67 Q2057.02 1448.67 2060.17 1453.27 Q2063.34 1457.86 2063.34 1466.61 Q2063.34 1474.78 2059.45 1479.66 Q2055.59 1484.52 2049.04 1484.52 Q2047.28 1484.52 2045.47 1484.18 Q2043.67 1483.83 2041.72 1483.13 M2051.03 1468.48 Q2054.18 1468.48 2056 1466.33 Q2057.86 1464.18 2057.86 1460.43 Q2057.86 1456.7 2056 1454.55 Q2054.18 1452.37 2051.03 1452.37 Q2047.88 1452.37 2046.03 1454.55 Q2044.2 1456.7 2044.2 1460.43 Q2044.2 1464.18 2046.03 1466.33 Q2047.88 1468.48 2051.03 1468.48 Z" fill="#000000" fill-rule="evenodd" fill-opacity="1" /><path clip-path="url(#clip510)" d="M 0 0 M2068.55 1483.13 L2068.55 1478.88 Q2070.31 1479.71 2072.12 1480.15 Q2073.92 1480.59 2075.66 1480.59 Q2080.29 1480.59 2082.72 1477.49 Q2085.17 1474.36 2085.52 1468.02 Q2084.18 1470.01 2082.12 1471.07 Q2080.05 1472.14 2077.55 1472.14 Q2072.37 1472.14 2069.34 1469.01 Q2066.33 1465.87 2066.33 1460.43 Q2066.33 1455.1 2069.48 1451.88 Q2072.62 1448.67 2077.86 1448.67 Q2083.85 1448.67 2087 1453.27 Q2090.17 1457.86 2090.17 1466.61 Q2090.17 1474.78 2086.28 1479.66 Q2082.42 1484.52 2075.87 1484.52 Q2074.11 1484.52 2072.3 1484.18 Q2070.49 1483.83 2068.55 1483.13 M2077.86 1468.48 Q2081 1468.48 2082.83 1466.33 Q2084.68 1464.18 2084.68 1460.43 Q2084.68 1456.7 2082.83 1454.55 Q2081 1452.37 2077.86 1452.37 Q2074.71 1452.37 2072.86 1454.55 Q2071.03 1456.7 2071.03 1460.43 Q2071.03 1464.18 2072.86 1466.33 Q2074.71 1468.48 2077.86 1468.48 Z" fill="#000000" fill-rule="evenodd" fill-opacity="1" /><path clip-path="url(#clip510)" d="M 0 0 M2095.38 1483.13 L2095.38 1478.88 Q2097.14 1479.71 2098.94 1480.15 Q2100.75 1480.59 2102.49 1480.59 Q2107.11 1480.59 2109.55 1477.49 Q2112 1474.36 2112.35 1468.02 Q2111 1470.01 2108.94 1471.07 Q2106.88 1472.14 2104.38 1472.14 Q2099.2 1472.14 2096.17 1469.01 Q2093.16 1465.87 2093.16 1460.43 Q2093.16 1455.1 2096.3 1451.88 Q2099.45 1448.67 2104.68 1448.67 Q2110.68 1448.67 2113.83 1453.27 Q2117 1457.86 2117 1466.61 Q2117 1474.78 2113.11 1479.66 Q2109.24 1484.52 2102.69 1484.52 Q2100.93 1484.52 2099.13 1484.18 Q2097.32 1483.83 2095.38 1483.13 M2104.68 1468.48 Q2107.83 1468.48 2109.66 1466.33 Q2111.51 1464.18 2111.51 1460.43 Q2111.51 1456.7 2109.66 1454.55 Q2107.83 1452.37 2104.68 1452.37 Q2101.54 1452.37 2099.68 1454.55 Q2097.86 1456.7 2097.86 1460.43 Q2097.86 1464.18 2099.68 1466.33 Q2101.54 1468.48 2104.68 1468.48 Z" fill="#000000" fill-rule="evenodd" fill-opacity="1" /><path clip-path="url(#clip510)" d="M 0 0 M1010.61 1562.7 L1010.61 1581.6 L1004.73 1581.6 L1004.73 1532.4 L1010.61 1532.4 L1010.61 1537.81 Q1012.46 1534.62 1015.26 1533.1 Q1018.09 1531.54 1022.01 1531.54 Q1028.5 1531.54 1032.54 1536.69 Q1036.62 1541.85 1036.62 1550.25 Q1036.62 1558.65 1032.54 1563.81 Q1028.5 1568.97 1022.01 1568.97 Q1018.09 1568.97 1015.26 1567.44 Q1012.46 1565.88 1010.61 1562.7 M1030.54 1550.25 Q1030.54 1543.79 1027.86 1540.13 Q1025.22 1536.44 1020.58 1536.44 Q1015.93 1536.44 1013.26 1540.13 Q1010.61 1543.79 1010.61 1550.25 Q1010.61 1556.71 1013.26 1560.4 Q1015.93 1564.07 1020.58 1564.07 Q1025.22 1564.07 1027.86 1560.4 Q1030.54 1556.71 1030.54 1550.25 Z" fill="#000000" fill-rule="evenodd" fill-opacity="1" /><path clip-path="url(#clip510)" d="M 0 0 M1073.25 1548.76 L1073.25 1551.62 L1046.33 1551.62 Q1046.71 1557.67 1049.95 1560.85 Q1053.23 1564 1059.06 1564 Q1062.43 1564 1065.58 1563.17 Q1068.76 1562.35 1071.88 1560.69 L1071.88 1566.23 Q1068.73 1567.57 1065.42 1568.27 Q1062.11 1568.97 1058.71 1568.97 Q1050.18 1568.97 1045.18 1564 Q1040.21 1559.04 1040.21 1550.57 Q1040.21 1541.82 1044.92 1536.69 Q1049.67 1531.54 1057.69 1531.54 Q1064.88 1531.54 1069.05 1536.18 Q1073.25 1540.8 1073.25 1548.76 M1067.4 1547.04 Q1067.33 1542.23 1064.69 1539.37 Q1062.08 1536.5 1057.75 1536.5 Q1052.85 1536.5 1049.89 1539.27 Q1046.96 1542.04 1046.52 1547.07 L1067.4 1547.04 Z" fill="#000000" fill-rule="evenodd" fill-opacity="1" /><path clip-path="url(#clip510)" d="M 0 0 M1100.05 1537.87 Q1099.07 1537.3 1097.89 1537.04 Q1096.74 1536.76 1095.34 1536.76 Q1090.38 1536.76 1087.7 1540 Q1085.06 1543.22 1085.06 1549.27 L1085.06 1568.04 L1079.17 1568.04 L1079.17 1532.4 L1085.06 1532.4 L1085.06 1537.93 Q1086.91 1534.69 1089.87 1533.13 Q1092.83 1531.54 1097.06 1531.54 Q1097.66 1531.54 1098.4 1531.63 Q1099.13 1531.7 1100.02 1531.85 L1100.05 1537.87 Z" fill="#000000" fill-rule="evenodd" fill-opacity="1" /><path clip-path="url(#clip510)" d="M 0 0 M1099.07 1547.58 L1116.22 1547.58 L1116.22 1552.8 L1099.07 1552.8 L1099.07 1547.58 Z" fill="#000000" fill-rule="evenodd" fill-opacity="1" /><path clip-path="url(#clip510)" d="M 0 0 M1151.1 1522.08 L1151.1 1528.35 Q1147.44 1526.6 1144.2 1525.74 Q1140.95 1524.88 1137.93 1524.88 Q1132.68 1524.88 1129.81 1526.92 Q1126.98 1528.96 1126.98 1532.71 Q1126.98 1535.87 1128.86 1537.49 Q1130.77 1539.08 1136.05 1540.07 L1139.93 1540.86 Q1147.13 1542.23 1150.53 1545.7 Q1153.97 1549.14 1153.97 1554.93 Q1153.97 1561.84 1149.32 1565.4 Q1144.71 1568.97 1135.76 1568.97 Q1132.39 1568.97 1128.57 1568.2 Q1124.78 1567.44 1120.71 1565.94 L1120.71 1559.32 Q1124.62 1561.52 1128.38 1562.63 Q1132.14 1563.75 1135.76 1563.75 Q1141.27 1563.75 1144.26 1561.58 Q1147.25 1559.42 1147.25 1555.41 Q1147.25 1551.91 1145.09 1549.93 Q1142.96 1547.96 1138.06 1546.97 L1134.14 1546.21 Q1126.95 1544.78 1123.73 1541.72 Q1120.52 1538.67 1120.52 1533.22 Q1120.52 1526.92 1124.94 1523.29 Q1129.4 1519.66 1137.2 1519.66 Q1140.54 1519.66 1144.01 1520.27 Q1147.48 1520.87 1151.1 1522.08 Z" fill="#000000" fill-rule="evenodd" fill-opacity="1" /><path clip-path="url(#clip510)" d="M 0 0 M1160.37 1520.52 L1169.02 1520.52 L1190.09 1560.28 L1190.09 1520.52 L1196.33 1520.52 L1196.33 1568.04 L1187.68 1568.04 L1166.61 1528.29 L1166.61 1568.04 L1160.37 1568.04 L1160.37 1520.52 Z" fill="#000000" fill-rule="evenodd" fill-opacity="1" /><path clip-path="url(#clip510)" d="M 0 0 M1209.16 1525.81 L1209.16 1543.66 L1217.24 1543.66 Q1221.73 1543.66 1224.18 1541.34 Q1226.63 1539.02 1226.63 1534.72 Q1226.63 1530.45 1224.18 1528.13 Q1221.73 1525.81 1217.24 1525.81 L1209.16 1525.81 M1202.73 1520.52 L1217.24 1520.52 Q1225.23 1520.52 1229.31 1524.15 Q1233.41 1527.75 1233.41 1534.72 Q1233.41 1541.75 1229.31 1545.35 Q1225.23 1548.95 1217.24 1548.95 L1209.16 1548.95 L1209.16 1568.04 L1202.73 1568.04 L1202.73 1520.52 Z" fill="#000000" fill-rule="evenodd" fill-opacity="1" /><path clip-path="url(#clip510)" d="M 0 0 M1263.78 1550.25 Q1263.78 1556.71 1266.42 1560.4 Q1269.09 1564.07 1273.74 1564.07 Q1278.39 1564.07 1281.06 1560.4 Q1283.73 1556.71 1283.73 1550.25 Q1283.73 1543.79 1281.06 1540.13 Q1278.39 1536.44 1273.74 1536.44 Q1269.09 1536.44 1266.42 1540.13 Q1263.78 1543.79 1263.78 1550.25 M1283.73 1562.7 Q1281.89 1565.88 1279.06 1567.44 Q1276.25 1568.97 1272.31 1568.97 Q1265.85 1568.97 1261.77 1563.81 Q1257.73 1558.65 1257.73 1550.25 Q1257.73 1541.85 1261.77 1536.69 Q1265.85 1531.54 1272.31 1531.54 Q1276.25 1531.54 1279.06 1533.1 Q1281.89 1534.62 1283.73 1537.81 L1283.73 1532.4 L1289.59 1532.4 L1289.59 1581.6 L1283.73 1581.6 L1283.73 1562.7 Z" fill="#000000" fill-rule="evenodd" fill-opacity="1" /><path clip-path="url(#clip510)" d="M 0 0 M1295.13 1553.98 L1295.13 1532.4 L1300.99 1532.4 L1300.99 1553.75 Q1300.99 1558.81 1302.96 1561.36 Q1304.93 1563.87 1308.88 1563.87 Q1313.62 1563.87 1316.36 1560.85 Q1319.13 1557.83 1319.13 1552.61 L1319.13 1532.4 L1324.98 1532.4 L1324.98 1568.04 L1319.13 1568.04 L1319.13 1562.57 Q1317 1565.82 1314.16 1567.41 Q1311.36 1568.97 1307.64 1568.97 Q1301.49 1568.97 1298.31 1565.15 Q1295.13 1561.33 1295.13 1553.98 M1309.87 1531.54 L1309.87 1531.54 Z" fill="#000000" fill-rule="evenodd" fill-opacity="1" /><path clip-path="url(#clip510)" d="M 0 0 M1347.33 1550.12 Q1340.23 1550.12 1337.49 1551.75 Q1334.76 1553.37 1334.76 1557.29 Q1334.76 1560.4 1336.79 1562.25 Q1338.86 1564.07 1342.39 1564.07 Q1347.26 1564.07 1350.19 1560.63 Q1353.15 1557.16 1353.15 1551.43 L1353.15 1550.12 L1347.33 1550.12 M1359.01 1547.71 L1359.01 1568.04 L1353.15 1568.04 L1353.15 1562.63 Q1351.15 1565.88 1348.16 1567.44 Q1345.16 1568.97 1340.83 1568.97 Q1335.36 1568.97 1332.11 1565.91 Q1328.9 1562.82 1328.9 1557.67 Q1328.9 1551.65 1332.91 1548.6 Q1336.95 1545.54 1344.94 1545.54 L1353.15 1545.54 L1353.15 1544.97 Q1353.15 1540.93 1350.48 1538.73 Q1347.84 1536.5 1343.03 1536.5 Q1339.98 1536.5 1337.08 1537.23 Q1334.18 1537.97 1331.51 1539.43 L1331.51 1534.02 Q1334.72 1532.78 1337.75 1532.17 Q1340.77 1531.54 1343.64 1531.54 Q1351.37 1531.54 1355.19 1535.55 Q1359.01 1539.56 1359.01 1547.71 Z" fill="#000000" fill-rule="evenodd" fill-opacity="1" /><path clip-path="url(#clip510)" d="M 0 0 M1365.15 1518.52 L1371.01 1518.52 L1371.01 1568.04 L1365.15 1568.04 L1365.15 1518.52 Z" fill="#000000" fill-rule="evenodd" fill-opacity="1" /><path clip-path="url(#clip510)" d="M 0 0 M1377.15 1532.4 L1383.01 1532.4 L1383.01 1568.04 L1377.15 1568.04 L1377.15 1532.4 M1377.15 1518.52 L1383.01 1518.52 L1383.01 1525.93 L1377.15 1525.93 L1377.15 1518.52 Z" fill="#000000" fill-rule="evenodd" fill-opacity="1" /><path clip-path="url(#clip510)" d="M 0 0 M1394.94 1522.27 L1394.94 1532.4 L1407.01 1532.4 L1407.01 1536.95 L1394.94 1536.95 L1394.94 1556.3 Q1394.94 1560.66 1396.12 1561.9 Q1397.33 1563.14 1400.99 1563.14 L1407.01 1563.14 L1407.01 1568.04 L1400.99 1568.04 Q1394.21 1568.04 1391.63 1565.53 Q1389.06 1562.98 1389.06 1556.3 L1389.06 1536.95 L1384.76 1536.95 L1384.76 1532.4 L1389.06 1532.4 L1389.06 1522.27 L1394.94 1522.27 Z" fill="#000000" fill-rule="evenodd" fill-opacity="1" /><path clip-path="url(#clip510)" d="M 0 0 M1427.98 1571.35 Q1425.5 1577.72 1423.14 1579.66 Q1420.79 1581.6 1416.84 1581.6 L1412.16 1581.6 L1412.16 1576.7 L1415.6 1576.7 Q1418.02 1576.7 1419.36 1575.56 Q1420.69 1574.41 1422.32 1570.14 L1423.37 1567.47 L1408.95 1532.4 L1415.15 1532.4 L1426.29 1560.28 L1437.43 1532.4 L1443.64 1532.4 L1427.98 1571.35 Z" fill="#000000" fill-rule="evenodd" fill-opacity="1" /><path clip-path="url(#clip510)" d="M 0 0 M1493.23 1533.45 L1493.23 1538.98 Q1490.75 1537.71 1488.07 1537.07 Q1485.4 1536.44 1482.54 1536.44 Q1478.17 1536.44 1475.98 1537.77 Q1473.81 1539.11 1473.81 1541.79 Q1473.81 1543.82 1475.37 1545 Q1476.93 1546.15 1481.64 1547.2 L1483.65 1547.64 Q1489.89 1548.98 1492.5 1551.43 Q1495.14 1553.85 1495.14 1558.21 Q1495.14 1563.17 1491.19 1566.07 Q1487.28 1568.97 1480.4 1568.97 Q1477.54 1568.97 1474.42 1568.39 Q1471.33 1567.85 1467.89 1566.74 L1467.89 1560.69 Q1471.14 1562.38 1474.29 1563.24 Q1477.44 1564.07 1480.53 1564.07 Q1484.67 1564.07 1486.9 1562.66 Q1489.12 1561.23 1489.12 1558.65 Q1489.12 1556.27 1487.5 1554.99 Q1485.91 1553.72 1480.47 1552.54 L1478.43 1552.07 Q1472.99 1550.92 1470.57 1548.56 Q1468.15 1546.18 1468.15 1542.04 Q1468.15 1537.01 1471.71 1534.27 Q1475.28 1531.54 1481.84 1531.54 Q1485.08 1531.54 1487.95 1532.01 Q1490.81 1532.49 1493.23 1533.45 Z" fill="#000000" fill-rule="evenodd" fill-opacity="1" /><path clip-path="url(#clip510)" d="M 0 0 M1526.94 1533.76 L1526.94 1539.24 Q1524.45 1537.87 1521.94 1537.2 Q1519.46 1536.5 1516.91 1536.5 Q1511.21 1536.5 1508.06 1540.13 Q1504.91 1543.73 1504.91 1550.25 Q1504.91 1556.78 1508.06 1560.4 Q1511.21 1564 1516.91 1564 Q1519.46 1564 1521.94 1563.33 Q1524.45 1562.63 1526.94 1561.26 L1526.94 1566.68 Q1524.49 1567.82 1521.84 1568.39 Q1519.23 1568.97 1516.27 1568.97 Q1508.22 1568.97 1503.48 1563.91 Q1498.74 1558.85 1498.74 1550.25 Q1498.74 1541.53 1503.51 1536.53 Q1508.32 1531.54 1516.66 1531.54 Q1519.36 1531.54 1521.94 1532.11 Q1524.52 1532.65 1526.94 1533.76 Z" fill="#000000" fill-rule="evenodd" fill-opacity="1" /><path clip-path="url(#clip510)" d="M 0 0 M1546.89 1536.5 Q1542.18 1536.5 1539.44 1540.19 Q1536.71 1543.85 1536.71 1550.25 Q1536.71 1556.65 1539.41 1560.34 Q1542.15 1564 1546.89 1564 Q1551.57 1564 1554.31 1560.31 Q1557.05 1556.62 1557.05 1550.25 Q1557.05 1543.92 1554.31 1540.23 Q1551.57 1536.5 1546.89 1536.5 M1546.89 1531.54 Q1554.53 1531.54 1558.89 1536.5 Q1563.25 1541.47 1563.25 1550.25 Q1563.25 1559 1558.89 1564 Q1554.53 1568.97 1546.89 1568.97 Q1539.22 1568.97 1534.86 1564 Q1530.53 1559 1530.53 1550.25 Q1530.53 1541.47 1534.86 1536.5 Q1539.22 1531.54 1546.89 1531.54 Z" fill="#000000" fill-rule="evenodd" fill-opacity="1" /><path clip-path="url(#clip510)" d="M 0 0 M1590.05 1537.87 Q1589.07 1537.3 1587.89 1537.04 Q1586.74 1536.76 1585.34 1536.76 Q1580.38 1536.76 1577.7 1540 Q1575.06 1543.22 1575.06 1549.27 L1575.06 1568.04 L1569.17 1568.04 L1569.17 1532.4 L1575.06 1532.4 L1575.06 1537.93 Q1576.91 1534.69 1579.87 1533.13 Q1582.83 1531.54 1587.06 1531.54 Q1587.67 1531.54 1588.4 1531.63 Q1589.13 1531.7 1590.02 1531.85 L1590.05 1537.87 Z" fill="#000000" fill-rule="evenodd" fill-opacity="1" /><path clip-path="url(#clip510)" d="M 0 0 M1625.25 1548.76 L1625.25 1551.62 L1598.33 1551.62 Q1598.71 1557.67 1601.96 1560.85 Q1605.23 1564 1611.06 1564 Q1614.43 1564 1617.58 1563.17 Q1620.77 1562.35 1623.89 1560.69 L1623.89 1566.23 Q1620.73 1567.57 1617.42 1568.27 Q1614.11 1568.97 1610.71 1568.97 Q1602.18 1568.97 1597.18 1564 Q1592.22 1559.04 1592.22 1550.57 Q1592.22 1541.82 1596.93 1536.69 Q1601.67 1531.54 1609.69 1531.54 Q1616.88 1531.54 1621.05 1536.18 Q1625.25 1540.8 1625.25 1548.76 M1619.4 1547.04 Q1619.33 1542.23 1616.69 1539.37 Q1614.08 1536.5 1609.75 1536.5 Q1604.85 1536.5 1601.89 1539.27 Q1598.96 1542.04 1598.52 1547.07 L1619.4 1547.04 Z" fill="#000000" fill-rule="evenodd" fill-opacity="1" /><polyline clip-path="url(#clip512)" style="stroke:#000000; stroke-width:2; stroke-opacity:0.1; fill:none" points="
  277.224,1384.24 2352.76,1384.24 
  "/>
<polyline clip-path="url(#clip512)" style="stroke:#000000; stroke-width:2; stroke-opacity:0.1; fill:none" points="
  277.224,992.262 2352.76,992.262 
  "/>
<polyline clip-path="url(#clip512)" style="stroke:#000000; stroke-width:2; stroke-opacity:0.1; fill:none" points="
  277.224,600.286 2352.76,600.286 
  "/>
<polyline clip-path="url(#clip512)" style="stroke:#000000; stroke-width:2; stroke-opacity:0.1; fill:none" points="
  277.224,208.31 2352.76,208.31 
  "/>
<polyline clip-path="url(#clip510)" style="stroke:#000000; stroke-width:4; stroke-opacity:1; fill:none" points="
  277.224,1423.18 277.224,47.2441 
  "/>
<polyline clip-path="url(#clip510)" style="stroke:#000000; stroke-width:4; stroke-opacity:1; fill:none" points="
  277.224,1384.24 302.131,1384.24 
  "/>
<polyline clip-path="url(#clip510)" style="stroke:#000000; stroke-width:4; stroke-opacity:1; fill:none" points="
  277.224,992.262 302.131,992.262 
  "/>
<polyline clip-path="url(#clip510)" style="stroke:#000000; stroke-width:4; stroke-opacity:1; fill:none" points="
  277.224,600.286 302.131,600.286 
  "/>
<polyline clip-path="url(#clip510)" style="stroke:#000000; stroke-width:4; stroke-opacity:1; fill:none" points="
  277.224,208.31 302.131,208.31 
  "/>
<path clip-path="url(#clip510)" d="M 0 0 M229.28 1370.04 Q225.669 1370.04 223.84 1373.6 Q222.034 1377.14 222.034 1384.27 Q222.034 1391.38 223.84 1394.94 Q225.669 1398.49 229.28 1398.49 Q232.914 1398.49 234.72 1394.94 Q236.548 1391.38 236.548 1384.27 Q236.548 1377.14 234.72 1373.6 Q232.914 1370.04 229.28 1370.04 M229.28 1366.33 Q235.09 1366.33 238.145 1370.94 Q241.224 1375.52 241.224 1384.27 Q241.224 1393 238.145 1397.61 Q235.09 1402.19 229.28 1402.19 Q223.47 1402.19 220.391 1397.61 Q217.335 1393 217.335 1384.27 Q217.335 1375.52 220.391 1370.94 Q223.47 1366.33 229.28 1366.33 Z" fill="#000000" fill-rule="evenodd" fill-opacity="1" /><path clip-path="url(#clip510)" d="M 0 0 M117.107 1012.05 L124.746 1012.05 L124.746 985.689 L116.436 987.356 L116.436 983.096 L124.7 981.43 L129.376 981.43 L129.376 1012.05 L137.015 1012.05 L137.015 1015.99 L117.107 1015.99 L117.107 1012.05 Z" fill="#000000" fill-rule="evenodd" fill-opacity="1" /><path clip-path="url(#clip510)" d="M 0 0 M170.255 990.527 L159.677 1001.15 L170.255 1011.73 L167.501 1014.53 L156.876 1003.91 L146.251 1014.53 L143.519 1011.73 L154.075 1001.15 L143.519 990.527 L146.251 987.726 L156.876 998.351 L167.501 987.726 L170.255 990.527 Z" fill="#000000" fill-rule="evenodd" fill-opacity="1" /><path clip-path="url(#clip510)" d="M 0 0 M176.135 1012.05 L183.774 1012.05 L183.774 985.689 L175.464 987.356 L175.464 983.096 L183.727 981.43 L188.403 981.43 L188.403 1012.05 L196.042 1012.05 L196.042 1015.99 L176.135 1015.99 L176.135 1012.05 Z" fill="#000000" fill-rule="evenodd" fill-opacity="1" /><path clip-path="url(#clip510)" d="M 0 0 M211.111 984.508 Q207.5 984.508 205.672 988.073 Q203.866 991.615 203.866 998.744 Q203.866 1005.85 205.672 1009.42 Q207.5 1012.96 211.111 1012.96 Q214.746 1012.96 216.551 1009.42 Q218.38 1005.85 218.38 998.744 Q218.38 991.615 216.551 988.073 Q214.746 984.508 211.111 984.508 M211.111 980.805 Q216.922 980.805 219.977 985.411 Q223.056 989.994 223.056 998.744 Q223.056 1007.47 219.977 1012.08 Q216.922 1016.66 211.111 1016.66 Q205.301 1016.66 202.223 1012.08 Q199.167 1007.47 199.167 998.744 Q199.167 989.994 202.223 985.411 Q205.301 980.805 211.111 980.805 Z" fill="#000000" fill-rule="evenodd" fill-opacity="1" /><path clip-path="url(#clip510)" d="M 0 0 M224.241 960.499 L239.155 960.499 L239.155 963.697 L227.72 963.697 L227.72 970.58 Q228.548 970.298 229.375 970.166 Q230.203 970.016 231.03 970.016 Q235.732 970.016 238.478 972.593 Q241.224 975.169 241.224 979.57 Q241.224 984.103 238.403 986.623 Q235.582 989.125 230.447 989.125 Q228.679 989.125 226.836 988.824 Q225.012 988.523 223.056 987.921 L223.056 984.103 Q224.749 985.025 226.554 985.476 Q228.36 985.927 230.372 985.927 Q233.626 985.927 235.525 984.216 Q237.425 982.504 237.425 979.57 Q237.425 976.636 235.525 974.925 Q233.626 973.213 230.372 973.213 Q228.849 973.213 227.325 973.552 Q225.821 973.89 224.241 974.605 L224.241 960.499 Z" fill="#000000" fill-rule="evenodd" fill-opacity="1" /><path clip-path="url(#clip510)" d="M 0 0 M120.695 620.078 L137.015 620.078 L137.015 624.014 L115.07 624.014 L115.07 620.078 Q117.732 617.324 122.316 612.694 Q126.922 608.041 128.103 606.699 Q130.348 604.176 131.228 602.44 Q132.13 600.68 132.13 598.991 Q132.13 596.236 130.186 594.5 Q128.265 592.764 125.163 592.764 Q122.964 592.764 120.51 593.528 Q118.08 594.291 115.302 595.842 L115.302 591.12 Q118.126 589.986 120.58 589.407 Q123.033 588.829 125.07 588.829 Q130.441 588.829 133.635 591.514 Q136.829 594.199 136.829 598.69 Q136.829 600.819 136.019 602.74 Q135.232 604.639 133.126 607.231 Q132.547 607.903 129.445 611.12 Q126.343 614.315 120.695 620.078 Z" fill="#000000" fill-rule="evenodd" fill-opacity="1" /><path clip-path="url(#clip510)" d="M 0 0 M170.255 598.551 L159.677 609.176 L170.255 619.754 L167.501 622.555 L156.876 611.93 L146.251 622.555 L143.519 619.754 L154.075 609.176 L143.519 598.551 L146.251 595.75 L156.876 606.375 L167.501 595.75 L170.255 598.551 Z" fill="#000000" fill-rule="evenodd" fill-opacity="1" /><path clip-path="url(#clip510)" d="M 0 0 M176.135 620.078 L183.774 620.078 L183.774 593.713 L175.464 595.379 L175.464 591.12 L183.727 589.454 L188.403 589.454 L188.403 620.078 L196.042 620.078 L196.042 624.014 L176.135 624.014 L176.135 620.078 Z" fill="#000000" fill-rule="evenodd" fill-opacity="1" /><path clip-path="url(#clip510)" d="M 0 0 M211.111 592.532 Q207.5 592.532 205.672 596.097 Q203.866 599.639 203.866 606.768 Q203.866 613.875 205.672 617.439 Q207.5 620.981 211.111 620.981 Q214.746 620.981 216.551 617.439 Q218.38 613.875 218.38 606.768 Q218.38 599.639 216.551 596.097 Q214.746 592.532 211.111 592.532 M211.111 588.829 Q216.922 588.829 219.977 593.435 Q223.056 598.018 223.056 606.768 Q223.056 615.495 219.977 620.102 Q216.922 624.685 211.111 624.685 Q205.301 624.685 202.223 620.102 Q199.167 615.495 199.167 606.768 Q199.167 598.018 202.223 593.435 Q205.301 588.829 211.111 588.829 Z" fill="#000000" fill-rule="evenodd" fill-opacity="1" /><path clip-path="url(#clip510)" d="M 0 0 M224.241 568.523 L239.155 568.523 L239.155 571.72 L227.72 571.72 L227.72 578.604 Q228.548 578.322 229.375 578.19 Q230.203 578.04 231.03 578.04 Q235.732 578.04 238.478 580.617 Q241.224 583.193 241.224 587.594 Q241.224 592.127 238.403 594.647 Q235.582 597.149 230.447 597.149 Q228.679 597.149 226.836 596.848 Q225.012 596.547 223.056 595.945 L223.056 592.127 Q224.749 593.048 226.554 593.5 Q228.36 593.951 230.372 593.951 Q233.626 593.951 235.525 592.24 Q237.425 590.528 237.425 587.594 Q237.425 584.66 235.525 582.949 Q233.626 581.237 230.372 581.237 Q228.849 581.237 227.325 581.576 Q225.821 581.914 224.241 582.629 L224.241 568.523 Z" fill="#000000" fill-rule="evenodd" fill-opacity="1" /><path clip-path="url(#clip510)" d="M 0 0 M129.885 213.403 Q133.242 214.121 135.117 216.389 Q137.015 218.658 137.015 221.991 Q137.015 227.107 133.496 229.908 Q129.978 232.709 123.496 232.709 Q121.32 232.709 119.006 232.269 Q116.714 231.852 114.26 230.996 L114.26 226.482 Q116.205 227.616 118.519 228.195 Q120.834 228.773 123.357 228.773 Q127.755 228.773 130.047 227.037 Q132.362 225.301 132.362 221.991 Q132.362 218.936 130.209 217.223 Q128.08 215.487 124.26 215.487 L120.232 215.487 L120.232 211.644 L124.445 211.644 Q127.894 211.644 129.723 210.278 Q131.552 208.889 131.552 206.297 Q131.552 203.635 129.654 202.223 Q127.779 200.788 124.26 200.788 Q122.339 200.788 120.14 201.204 Q117.941 201.621 115.302 202.5 L115.302 198.334 Q117.964 197.593 120.279 197.223 Q122.617 196.852 124.677 196.852 Q130.001 196.852 133.103 199.283 Q136.204 201.69 136.204 205.811 Q136.204 208.681 134.561 210.672 Q132.917 212.639 129.885 213.403 Z" fill="#000000" fill-rule="evenodd" fill-opacity="1" /><path clip-path="url(#clip510)" d="M 0 0 M170.255 206.575 L159.677 217.199 L170.255 227.778 L167.501 230.579 L156.876 219.954 L146.251 230.579 L143.519 227.778 L154.075 217.199 L143.519 206.575 L146.251 203.774 L156.876 214.399 L167.501 203.774 L170.255 206.575 Z" fill="#000000" fill-rule="evenodd" fill-opacity="1" /><path clip-path="url(#clip510)" d="M 0 0 M176.135 228.102 L183.774 228.102 L183.774 201.737 L175.464 203.403 L175.464 199.144 L183.727 197.477 L188.403 197.477 L188.403 228.102 L196.042 228.102 L196.042 232.037 L176.135 232.037 L176.135 228.102 Z" fill="#000000" fill-rule="evenodd" fill-opacity="1" /><path clip-path="url(#clip510)" d="M 0 0 M211.111 200.556 Q207.5 200.556 205.672 204.121 Q203.866 207.662 203.866 214.792 Q203.866 221.899 205.672 225.463 Q207.5 229.005 211.111 229.005 Q214.746 229.005 216.551 225.463 Q218.38 221.899 218.38 214.792 Q218.38 207.662 216.551 204.121 Q214.746 200.556 211.111 200.556 M211.111 196.852 Q216.922 196.852 219.977 201.459 Q223.056 206.042 223.056 214.792 Q223.056 223.519 219.977 228.125 Q216.922 232.709 211.111 232.709 Q205.301 232.709 202.223 228.125 Q199.167 223.519 199.167 214.792 Q199.167 206.042 202.223 201.459 Q205.301 196.852 211.111 196.852 Z" fill="#000000" fill-rule="evenodd" fill-opacity="1" /><path clip-path="url(#clip510)" d="M 0 0 M224.241 176.547 L239.155 176.547 L239.155 179.744 L227.72 179.744 L227.72 186.628 Q228.548 186.346 229.375 186.214 Q230.203 186.064 231.03 186.064 Q235.732 186.064 238.478 188.64 Q241.224 191.217 241.224 195.618 Q241.224 200.151 238.403 202.671 Q235.582 205.172 230.447 205.172 Q228.679 205.172 226.836 204.871 Q225.012 204.571 223.056 203.969 L223.056 200.151 Q224.749 201.072 226.554 201.524 Q228.36 201.975 230.372 201.975 Q233.626 201.975 235.525 200.264 Q237.425 198.552 237.425 195.618 Q237.425 192.684 235.525 190.973 Q233.626 189.261 230.372 189.261 Q228.849 189.261 227.325 189.6 Q225.821 189.938 224.241 190.653 L224.241 176.547 Z" fill="#000000" fill-rule="evenodd" fill-opacity="1" /><path clip-path="url(#clip510)" d="M 0 0 M18.0438 868.462 L24.314 868.462 Q22.5634 872.122 21.704 875.369 Q20.8447 878.615 20.8447 881.639 Q20.8447 886.891 22.8817 889.755 Q24.9187 892.588 28.6745 892.588 Q31.8255 892.588 33.4488 890.71 Q35.0402 888.801 36.0269 883.517 L36.8226 879.634 Q38.1912 872.441 41.6605 869.035 Q45.098 865.598 50.8908 865.598 Q57.7976 865.598 61.3624 870.245 Q64.9272 874.86 64.9272 883.803 Q64.9272 887.177 64.1633 890.997 Q63.3994 894.784 61.9035 898.858 L55.2831 898.858 Q57.4793 894.943 58.5933 891.188 Q59.7073 887.432 59.7073 883.803 Q59.7073 878.297 57.543 875.305 Q55.3786 872.313 51.3682 872.313 Q47.8671 872.313 45.8937 874.478 Q43.9204 876.61 42.9337 881.512 L42.1698 885.427 Q40.7375 892.62 37.682 895.835 Q34.6264 899.049 29.1837 899.049 Q22.8817 899.049 19.2532 894.625 Q15.6248 890.169 15.6248 882.371 Q15.6248 879.029 16.2295 875.56 Q16.8343 872.091 18.0438 868.462 Z" fill="#000000" fill-rule="evenodd" fill-opacity="1" /><path clip-path="url(#clip510)" d="M 0 0 M16.4842 859.2 L16.4842 850.543 L56.238 829.472 L16.4842 829.472 L16.4842 823.234 L64.0042 823.234 L64.0042 831.891 L24.2503 852.962 L64.0042 852.962 L64.0042 859.2 L16.4842 859.2 Z" fill="#000000" fill-rule="evenodd" fill-opacity="1" /><path clip-path="url(#clip510)" d="M 0 0 M21.7677 810.407 L39.6235 810.407 L39.6235 802.322 Q39.6235 797.835 37.3 795.384 Q34.9765 792.933 30.6797 792.933 Q26.4147 792.933 24.0912 795.384 Q21.7677 797.835 21.7677 802.322 L21.7677 810.407 M16.4842 816.836 L16.4842 802.322 Q16.4842 794.333 20.1126 790.259 Q23.7092 786.154 30.6797 786.154 Q37.7138 786.154 41.3104 790.259 Q44.907 794.333 44.907 802.322 L44.907 810.407 L64.0042 810.407 L64.0042 816.836 L16.4842 816.836 Z" fill="#000000" fill-rule="evenodd" fill-opacity="1" /><path clip-path="url(#clip510)" d="M 0 0 M29.7248 733.636 L35.1993 733.636 Q33.8307 736.119 33.1623 738.634 Q32.4621 741.116 32.4621 743.662 Q32.4621 749.36 36.0905 752.511 Q39.6872 755.662 46.212 755.662 Q52.7369 755.662 56.3653 752.511 Q59.9619 749.36 59.9619 743.662 Q59.9619 741.116 59.2935 738.634 Q58.5933 736.119 57.2247 733.636 L62.6355 733.636 Q63.7814 736.087 64.3543 738.729 Q64.9272 741.339 64.9272 744.299 Q64.9272 752.352 59.8664 757.094 Q54.8057 761.837 46.212 761.837 Q37.491 761.837 32.4939 757.062 Q27.4968 752.256 27.4968 743.917 Q27.4968 741.212 28.0697 738.634 Q28.6108 736.055 29.7248 733.636 Z" fill="#000000" fill-rule="evenodd" fill-opacity="1" /><path clip-path="url(#clip510)" d="M 0 0 M32.4621 713.68 Q32.4621 718.391 36.1542 721.128 Q39.8145 723.865 46.212 723.865 Q52.6095 723.865 56.3017 721.16 Q59.9619 718.422 59.9619 713.68 Q59.9619 709.001 56.2698 706.264 Q52.5777 703.527 46.212 703.527 Q39.8781 703.527 36.186 706.264 Q32.4621 709.001 32.4621 713.68 M27.4968 713.68 Q27.4968 706.041 32.4621 701.681 Q37.4273 697.32 46.212 697.32 Q54.9649 697.32 59.9619 701.681 Q64.9272 706.041 64.9272 713.68 Q64.9272 721.351 59.9619 725.711 Q54.9649 730.04 46.212 730.04 Q37.4273 730.04 32.4621 725.711 Q27.4968 721.351 27.4968 713.68 Z" fill="#000000" fill-rule="evenodd" fill-opacity="1" /><path clip-path="url(#clip510)" d="M 0 0 M49.9359 691.782 L28.3562 691.782 L28.3562 685.925 L49.7131 685.925 Q54.7739 685.925 57.3202 683.952 Q59.8346 681.979 59.8346 678.032 Q59.8346 673.29 56.8109 670.552 Q53.7872 667.783 48.5673 667.783 L28.3562 667.783 L28.3562 661.927 L64.0042 661.927 L64.0042 667.783 L58.5296 667.783 Q61.7762 669.916 63.3676 672.748 Q64.9272 675.549 64.9272 679.273 Q64.9272 685.416 61.1078 688.599 Q57.2883 691.782 49.9359 691.782 M27.4968 677.045 L27.4968 677.045 Z" fill="#000000" fill-rule="evenodd" fill-opacity="1" /><path clip-path="url(#clip510)" d="M 0 0 M42.4881 626.151 L64.0042 626.151 L64.0042 632.008 L42.679 632.008 Q37.6183 632.008 35.1038 633.981 Q32.5894 635.955 32.5894 639.901 Q32.5894 644.644 35.6131 647.381 Q38.6368 650.118 43.8567 650.118 L64.0042 650.118 L64.0042 656.007 L28.3562 656.007 L28.3562 650.118 L33.8944 650.118 Q30.6797 648.018 29.0883 645.185 Q27.4968 642.32 27.4968 638.596 Q27.4968 632.454 31.3163 629.303 Q35.1038 626.151 42.4881 626.151 Z" fill="#000000" fill-rule="evenodd" fill-opacity="1" /><path clip-path="url(#clip510)" d="M 0 0 M18.2347 614.216 L28.3562 614.216 L28.3562 602.153 L32.9077 602.153 L32.9077 614.216 L52.2594 614.216 Q56.6199 614.216 57.8613 613.038 Q59.1026 611.829 59.1026 608.168 L59.1026 602.153 L64.0042 602.153 L64.0042 608.168 Q64.0042 614.948 61.4897 617.526 Q58.9434 620.104 52.2594 620.104 L32.9077 620.104 L32.9077 624.401 L28.3562 624.401 L28.3562 620.104 L18.2347 620.104 L18.2347 614.216 Z" fill="#000000" fill-rule="evenodd" fill-opacity="1" /><path clip-path="url(#clip510)" d="M 0 0 M29.4065 573.284 L34.9447 573.284 Q33.6716 575.767 33.035 578.441 Q32.3984 581.114 32.3984 583.979 Q32.3984 588.339 33.7352 590.535 Q35.072 592.7 37.7456 592.7 Q39.7826 592.7 40.9603 591.14 Q42.1061 589.581 43.1565 584.87 L43.6021 582.865 Q44.9389 576.626 47.3897 574.016 Q49.8086 571.375 54.1691 571.375 Q59.1344 571.375 62.0308 575.321 Q64.9272 579.236 64.9272 586.111 Q64.9272 588.976 64.3543 592.095 Q63.8132 595.182 62.6992 598.62 L56.6518 598.62 Q58.3387 595.373 59.198 592.222 Q60.0256 589.071 60.0256 585.984 Q60.0256 581.846 58.6251 579.618 Q57.1929 577.39 54.6147 577.39 Q52.2276 577.39 50.9545 579.013 Q49.6813 580.605 48.5037 586.048 L48.0262 588.085 Q46.8804 593.527 44.5251 595.946 Q42.138 598.365 38.0002 598.365 Q32.9713 598.365 30.2341 594.8 Q27.4968 591.236 27.4968 584.679 Q27.4968 581.432 27.9743 578.568 Q28.4517 575.703 29.4065 573.284 Z" fill="#000000" fill-rule="evenodd" fill-opacity="1" /><path clip-path="url(#clip512)" d="
M391.382 1384.23 L391.382 1384.24 L450.97 1384.24 L450.97 1384.23 L391.382 1384.23 L391.382 1384.23  Z
  " fill="#009af9" fill-rule="evenodd" fill-opacity="1"/>
<polyline clip-path="url(#clip512)" style="stroke:#000000; stroke-width:4; stroke-opacity:1; fill:none" points="
  391.382,1384.23 391.382,1384.24 450.97,1384.24 450.97,1384.23 391.382,1384.23 
  "/>
<path clip-path="url(#clip512)" d="
M450.97 1384.24 L450.97 1384.24 L510.557 1384.24 L510.557 1384.24 L450.97 1384.24 L450.97 1384.24  Z
  " fill="#009af9" fill-rule="evenodd" fill-opacity="1"/>
<polyline clip-path="url(#clip512)" style="stroke:#000000; stroke-width:4; stroke-opacity:1; fill:none" points="
  450.97,1384.24 450.97,1384.24 510.557,1384.24 450.97,1384.24 
  "/>
<path clip-path="url(#clip512)" d="
M510.557 1384.24 L510.557 1384.24 L570.145 1384.24 L570.145 1384.24 L510.557 1384.24 L510.557 1384.24  Z
  " fill="#009af9" fill-rule="evenodd" fill-opacity="1"/>
<polyline clip-path="url(#clip512)" style="stroke:#000000; stroke-width:4; stroke-opacity:1; fill:none" points="
  510.557,1384.24 510.557,1384.24 570.145,1384.24 510.557,1384.24 
  "/>
<path clip-path="url(#clip512)" d="
M570.145 1384.24 L570.145 1384.24 L629.733 1384.24 L629.733 1384.24 L570.145 1384.24 L570.145 1384.24  Z
  " fill="#009af9" fill-rule="evenodd" fill-opacity="1"/>
<polyline clip-path="url(#clip512)" style="stroke:#000000; stroke-width:4; stroke-opacity:1; fill:none" points="
  570.145,1384.24 570.145,1384.24 629.733,1384.24 570.145,1384.24 
  "/>
<path clip-path="url(#clip512)" d="
M629.733 1384.23 L629.733 1384.24 L689.32 1384.24 L689.32 1384.23 L629.733 1384.23 L629.733 1384.23  Z
  " fill="#009af9" fill-rule="evenodd" fill-opacity="1"/>
<polyline clip-path="url(#clip512)" style="stroke:#000000; stroke-width:4; stroke-opacity:1; fill:none" points="
  629.733,1384.23 629.733,1384.24 689.32,1384.24 689.32,1384.23 629.733,1384.23 
  "/>
<path clip-path="url(#clip512)" d="
M689.32 1384.24 L689.32 1384.24 L748.908 1384.24 L748.908 1384.24 L689.32 1384.24 L689.32 1384.24  Z
  " fill="#009af9" fill-rule="evenodd" fill-opacity="1"/>
<polyline clip-path="url(#clip512)" style="stroke:#000000; stroke-width:4; stroke-opacity:1; fill:none" points="
  689.32,1384.24 689.32,1384.24 748.908,1384.24 689.32,1384.24 
  "/>
<path clip-path="url(#clip512)" d="
M748.908 1384.2 L748.908 1384.24 L808.495 1384.24 L808.495 1384.2 L748.908 1384.2 L748.908 1384.2  Z
  " fill="#009af9" fill-rule="evenodd" fill-opacity="1"/>
<polyline clip-path="url(#clip512)" style="stroke:#000000; stroke-width:4; stroke-opacity:1; fill:none" points="
  748.908,1384.2 748.908,1384.24 808.495,1384.24 808.495,1384.2 748.908,1384.2 
  "/>
<path clip-path="url(#clip512)" d="
M808.495 1384.24 L808.495 1384.24 L868.083 1384.24 L868.083 1384.24 L808.495 1384.24 L808.495 1384.24  Z
  " fill="#009af9" fill-rule="evenodd" fill-opacity="1"/>
<polyline clip-path="url(#clip512)" style="stroke:#000000; stroke-width:4; stroke-opacity:1; fill:none" points="
  808.495,1384.24 808.495,1384.24 868.083,1384.24 808.495,1384.24 
  "/>
<path clip-path="url(#clip512)" d="
M868.083 1384.24 L868.083 1384.24 L927.671 1384.24 L927.671 1384.24 L868.083 1384.24 L868.083 1384.24  Z
  " fill="#009af9" fill-rule="evenodd" fill-opacity="1"/>
<polyline clip-path="url(#clip512)" style="stroke:#000000; stroke-width:4; stroke-opacity:1; fill:none" points="
  868.083,1384.24 868.083,1384.24 927.671,1384.24 868.083,1384.24 
  "/>
<path clip-path="url(#clip512)" d="
M927.671 1384.24 L927.671 1384.24 L987.258 1384.24 L987.258 1384.24 L927.671 1384.24 L927.671 1384.24  Z
  " fill="#009af9" fill-rule="evenodd" fill-opacity="1"/>
<polyline clip-path="url(#clip512)" style="stroke:#000000; stroke-width:4; stroke-opacity:1; fill:none" points="
  927.671,1384.24 927.671,1384.24 987.258,1384.24 927.671,1384.24 
  "/>
<path clip-path="url(#clip512)" d="
M987.258 1384.08 L987.258 1384.24 L1046.85 1384.24 L1046.85 1384.08 L987.258 1384.08 L987.258 1384.08  Z
  " fill="#009af9" fill-rule="evenodd" fill-opacity="1"/>
<polyline clip-path="url(#clip512)" style="stroke:#000000; stroke-width:4; stroke-opacity:1; fill:none" points="
  987.258,1384.08 987.258,1384.24 1046.85,1384.24 1046.85,1384.08 987.258,1384.08 
  "/>
<path clip-path="url(#clip512)" d="
M1046.85 1384.24 L1046.85 1384.24 L1106.43 1384.24 L1106.43 1384.24 L1046.85 1384.24 L1046.85 1384.24  Z
  " fill="#009af9" fill-rule="evenodd" fill-opacity="1"/>
<polyline clip-path="url(#clip512)" style="stroke:#000000; stroke-width:4; stroke-opacity:1; fill:none" points="
  1046.85,1384.24 1046.85,1384.24 1106.43,1384.24 1046.85,1384.24 
  "/>
<path clip-path="url(#clip512)" d="
M1106.43 1384.17 L1106.43 1384.24 L1166.02 1384.24 L1166.02 1384.17 L1106.43 1384.17 L1106.43 1384.17  Z
  " fill="#009af9" fill-rule="evenodd" fill-opacity="1"/>
<polyline clip-path="url(#clip512)" style="stroke:#000000; stroke-width:4; stroke-opacity:1; fill:none" points="
  1106.43,1384.17 1106.43,1384.24 1166.02,1384.24 1166.02,1384.17 1106.43,1384.17 
  "/>
<path clip-path="url(#clip512)" d="
M1166.02 1384.24 L1166.02 1384.24 L1225.61 1384.24 L1225.61 1384.24 L1166.02 1384.24 L1166.02 1384.24  Z
  " fill="#009af9" fill-rule="evenodd" fill-opacity="1"/>
<polyline clip-path="url(#clip512)" style="stroke:#000000; stroke-width:4; stroke-opacity:1; fill:none" points="
  1166.02,1384.24 1166.02,1384.24 1225.61,1384.24 1166.02,1384.24 
  "/>
<path clip-path="url(#clip512)" d="
M1225.61 1383.09 L1225.61 1384.24 L1285.2 1384.24 L1285.2 1383.09 L1225.61 1383.09 L1225.61 1383.09  Z
  " fill="#009af9" fill-rule="evenodd" fill-opacity="1"/>
<polyline clip-path="url(#clip512)" style="stroke:#000000; stroke-width:4; stroke-opacity:1; fill:none" points="
  1225.61,1383.09 1225.61,1384.24 1285.2,1384.24 1285.2,1383.09 1225.61,1383.09 
  "/>
<path clip-path="url(#clip512)" d="
M1285.2 1384.24 L1285.2 1384.24 L1344.78 1384.24 L1344.78 1384.24 L1285.2 1384.24 L1285.2 1384.24  Z
  " fill="#009af9" fill-rule="evenodd" fill-opacity="1"/>
<polyline clip-path="url(#clip512)" style="stroke:#000000; stroke-width:4; stroke-opacity:1; fill:none" points="
  1285.2,1384.24 1285.2,1384.24 1344.78,1384.24 1285.2,1384.24 
  "/>
<path clip-path="url(#clip512)" d="
M1344.78 1384.24 L1344.78 1384.24 L1404.37 1384.24 L1404.37 1384.24 L1344.78 1384.24 L1344.78 1384.24  Z
  " fill="#009af9" fill-rule="evenodd" fill-opacity="1"/>
<polyline clip-path="url(#clip512)" style="stroke:#000000; stroke-width:4; stroke-opacity:1; fill:none" points="
  1344.78,1384.24 1344.78,1384.24 1404.37,1384.24 1344.78,1384.24 
  "/>
<path clip-path="url(#clip512)" d="
M1404.37 1384.24 L1404.37 1384.24 L1463.96 1384.24 L1463.96 1384.24 L1404.37 1384.24 L1404.37 1384.24  Z
  " fill="#009af9" fill-rule="evenodd" fill-opacity="1"/>
<polyline clip-path="url(#clip512)" style="stroke:#000000; stroke-width:4; stroke-opacity:1; fill:none" points="
  1404.37,1384.24 1404.37,1384.24 1463.96,1384.24 1404.37,1384.24 
  "/>
<path clip-path="url(#clip512)" d="
M1463.96 1383.11 L1463.96 1384.24 L1523.55 1384.24 L1523.55 1383.11 L1463.96 1383.11 L1463.96 1383.11  Z
  " fill="#009af9" fill-rule="evenodd" fill-opacity="1"/>
<polyline clip-path="url(#clip512)" style="stroke:#000000; stroke-width:4; stroke-opacity:1; fill:none" points="
  1463.96,1383.11 1463.96,1384.24 1523.55,1384.24 1523.55,1383.11 1463.96,1383.11 
  "/>
<path clip-path="url(#clip512)" d="
M1523.55 1384.24 L1523.55 1384.24 L1583.13 1384.24 L1583.13 1384.24 L1523.55 1384.24 L1523.55 1384.24  Z
  " fill="#009af9" fill-rule="evenodd" fill-opacity="1"/>
<polyline clip-path="url(#clip512)" style="stroke:#000000; stroke-width:4; stroke-opacity:1; fill:none" points="
  1523.55,1384.24 1523.55,1384.24 1583.13,1384.24 1523.55,1384.24 
  "/>
<path clip-path="url(#clip512)" d="
M1583.13 1375.9 L1583.13 1384.24 L1642.72 1384.24 L1642.72 1375.9 L1583.13 1375.9 L1583.13 1375.9  Z
  " fill="#009af9" fill-rule="evenodd" fill-opacity="1"/>
<polyline clip-path="url(#clip512)" style="stroke:#000000; stroke-width:4; stroke-opacity:1; fill:none" points="
  1583.13,1375.9 1583.13,1384.24 1642.72,1384.24 1642.72,1375.9 1583.13,1375.9 
  "/>
<path clip-path="url(#clip512)" d="
M1642.72 1384.24 L1642.72 1384.24 L1702.31 1384.24 L1702.31 1384.24 L1642.72 1384.24 L1642.72 1384.24  Z
  " fill="#009af9" fill-rule="evenodd" fill-opacity="1"/>
<polyline clip-path="url(#clip512)" style="stroke:#000000; stroke-width:4; stroke-opacity:1; fill:none" points="
  1642.72,1384.24 1642.72,1384.24 1702.31,1384.24 1642.72,1384.24 
  "/>
<path clip-path="url(#clip512)" d="
M1702.31 1370.83 L1702.31 1384.24 L1761.9 1384.24 L1761.9 1370.83 L1702.31 1370.83 L1702.31 1370.83  Z
  " fill="#009af9" fill-rule="evenodd" fill-opacity="1"/>
<polyline clip-path="url(#clip512)" style="stroke:#000000; stroke-width:4; stroke-opacity:1; fill:none" points="
  1702.31,1370.83 1702.31,1384.24 1761.9,1384.24 1761.9,1370.83 1702.31,1370.83 
  "/>
<path clip-path="url(#clip512)" d="
M1761.9 1384.24 L1761.9 1384.24 L1821.48 1384.24 L1821.48 1384.24 L1761.9 1384.24 L1761.9 1384.24  Z
  " fill="#009af9" fill-rule="evenodd" fill-opacity="1"/>
<polyline clip-path="url(#clip512)" style="stroke:#000000; stroke-width:4; stroke-opacity:1; fill:none" points="
  1761.9,1384.24 1761.9,1384.24 1821.48,1384.24 1761.9,1384.24 
  "/>
<path clip-path="url(#clip512)" d="
M1821.48 1373.2 L1821.48 1384.24 L1881.07 1384.24 L1881.07 1373.2 L1821.48 1373.2 L1821.48 1373.2  Z
  " fill="#009af9" fill-rule="evenodd" fill-opacity="1"/>
<polyline clip-path="url(#clip512)" style="stroke:#000000; stroke-width:4; stroke-opacity:1; fill:none" points="
  1821.48,1373.2 1821.48,1384.24 1881.07,1384.24 1881.07,1373.2 1821.48,1373.2 
  "/>
<path clip-path="url(#clip512)" d="
M1881.07 1384.24 L1881.07 1384.24 L1940.66 1384.24 L1940.66 1384.24 L1881.07 1384.24 L1881.07 1384.24  Z
  " fill="#009af9" fill-rule="evenodd" fill-opacity="1"/>
<polyline clip-path="url(#clip512)" style="stroke:#000000; stroke-width:4; stroke-opacity:1; fill:none" points="
  1881.07,1384.24 1881.07,1384.24 1940.66,1384.24 1881.07,1384.24 
  "/>
<path clip-path="url(#clip512)" d="
M1940.66 1299.45 L1940.66 1384.24 L2000.25 1384.24 L2000.25 1299.45 L1940.66 1299.45 L1940.66 1299.45  Z
  " fill="#009af9" fill-rule="evenodd" fill-opacity="1"/>
<polyline clip-path="url(#clip512)" style="stroke:#000000; stroke-width:4; stroke-opacity:1; fill:none" points="
  1940.66,1299.45 1940.66,1384.24 2000.25,1384.24 2000.25,1299.45 1940.66,1299.45 
  "/>
<path clip-path="url(#clip512)" d="
M2000.25 1384.24 L2000.25 1384.24 L2059.84 1384.24 L2059.84 1384.24 L2000.25 1384.24 L2000.25 1384.24  Z
  " fill="#009af9" fill-rule="evenodd" fill-opacity="1"/>
<polyline clip-path="url(#clip512)" style="stroke:#000000; stroke-width:4; stroke-opacity:1; fill:none" points="
  2000.25,1384.24 2000.25,1384.24 2059.84,1384.24 2000.25,1384.24 
  "/>
<path clip-path="url(#clip512)" d="
M2059.84 1165.17 L2059.84 1384.24 L2119.42 1384.24 L2119.42 1165.17 L2059.84 1165.17 L2059.84 1165.17  Z
  " fill="#009af9" fill-rule="evenodd" fill-opacity="1"/>
<polyline clip-path="url(#clip512)" style="stroke:#000000; stroke-width:4; stroke-opacity:1; fill:none" points="
  2059.84,1165.17 2059.84,1384.24 2119.42,1384.24 2119.42,1165.17 2059.84,1165.17 
  "/>
<path clip-path="url(#clip512)" d="
M2119.42 1384.24 L2119.42 1384.24 L2179.01 1384.24 L2179.01 1384.24 L2119.42 1384.24 L2119.42 1384.24  Z
  " fill="#009af9" fill-rule="evenodd" fill-opacity="1"/>
<polyline clip-path="url(#clip512)" style="stroke:#000000; stroke-width:4; stroke-opacity:1; fill:none" points="
  2119.42,1384.24 2119.42,1384.24 2179.01,1384.24 2119.42,1384.24 
  "/>
<path clip-path="url(#clip512)" d="
M2179.01 86.1857 L2179.01 1384.24 L2238.6 1384.24 L2238.6 86.1857 L2179.01 86.1857 L2179.01 86.1857  Z
  " fill="#009af9" fill-rule="evenodd" fill-opacity="1"/>
<polyline clip-path="url(#clip512)" style="stroke:#000000; stroke-width:4; stroke-opacity:1; fill:none" points="
  2179.01,86.1857 2179.01,1384.24 2238.6,1384.24 2238.6,86.1857 2179.01,86.1857 
  "/>
</svg>
