<?xml version="1.0" encoding="utf-8"?>
<svg xmlns="http://www.w3.org/2000/svg" xmlns:xlink="http://www.w3.org/1999/xlink" width="600" height="400" viewBox="0 0 2400 1600">
<defs>
  <clipPath id="clip330">
    <rect x="0" y="0" width="2400" height="1600"/>
  </clipPath>
</defs>
<path clip-path="url(#clip330)" d="
M0 1600 L2400 1600 L2400 0 L0 0  Z
  " fill="#ffffff" fill-rule="evenodd" fill-opacity="1"/>
<defs>
  <clipPath id="clip331">
    <rect x="480" y="0" width="1681" height="1600"/>
  </clipPath>
</defs>
<path clip-path="url(#clip330)" d="
M277.224 1423.18 L2352.76 1423.18 L2352.76 47.2441 L277.224 47.2441  Z
  " fill="#ffffff" fill-rule="evenodd" fill-opacity="1"/>
<defs>
  <clipPath id="clip332">
    <rect x="277" y="47" width="2077" height="1377"/>
  </clipPath>
</defs>
<polyline clip-path="url(#clip332)" style="stroke:#000000; stroke-width:2; stroke-opacity:0.1; fill:none" points="
  391.382,1423.18 391.382,47.2441 
  "/>
<polyline clip-path="url(#clip332)" style="stroke:#000000; stroke-width:2; stroke-opacity:0.1; fill:none" points="
  689.32,1423.18 689.32,47.2441 
  "/>
<polyline clip-path="url(#clip332)" style="stroke:#000000; stroke-width:2; stroke-opacity:0.1; fill:none" points="
  987.258,1423.18 987.258,47.2441 
  "/>
<polyline clip-path="url(#clip332)" style="stroke:#000000; stroke-width:2; stroke-opacity:0.1; fill:none" points="
  1285.2,1423.18 1285.2,47.2441 
  "/>
<polyline clip-path="url(#clip332)" style="stroke:#000000; stroke-width:2; stroke-opacity:0.1; fill:none" points="
  1583.13,1423.18 1583.13,47.2441 
  "/>
<polyline clip-path="url(#clip332)" style="stroke:#000000; stroke-width:2; stroke-opacity:0.1; fill:none" points="
  1881.07,1423.18 1881.07,47.2441 
  "/>
<polyline clip-path="url(#clip332)" style="stroke:#000000; stroke-width:2; stroke-opacity:0.1; fill:none" points="
  2179.01,1423.18 2179.01,47.2441 
  "/>
<polyline clip-path="url(#clip332)" style="stroke:#000000; stroke-width:2; stroke-opacity:0.1; fill:none" points="
  277.224,1384.24 2352.76,1384.24 
  "/>
<polyline clip-path="url(#clip332)" style="stroke:#000000; stroke-width:2; stroke-opacity:0.1; fill:none" points="
  277.224,992.262 2352.76,992.262 
  "/>
<polyline clip-path="url(#clip332)" style="stroke:#000000; stroke-width:2; stroke-opacity:0.1; fill:none" points="
  277.224,600.286 2352.76,600.286 
  "/>
<polyline clip-path="url(#clip332)" style="stroke:#000000; stroke-width:2; stroke-opacity:0.1; fill:none" points="
  277.224,208.31 2352.76,208.31 
  "/>
<polyline clip-path="url(#clip330)" style="stroke:#000000; stroke-width:4; stroke-opacity:1; fill:none" points="
  277.224,1423.18 2352.76,1423.18 
  "/>
<polyline clip-path="url(#clip330)" style="stroke:#000000; stroke-width:4; stroke-opacity:1; fill:none" points="
  277.224,1423.18 277.224,47.2441 
  "/>
<polyline clip-path="url(#clip330)" style="stroke:#000000; stroke-width:4; stroke-opacity:1; fill:none" points="
  391.382,1423.18 391.382,1406.67 
  "/>
<polyline clip-path="url(#clip330)" style="stroke:#000000; stroke-width:4; stroke-opacity:1; fill:none" points="
  689.32,1423.18 689.32,1406.67 
  "/>
<polyline clip-path="url(#clip330)" style="stroke:#000000; stroke-width:4; stroke-opacity:1; fill:none" points="
  987.258,1423.18 987.258,1406.67 
  "/>
<polyline clip-path="url(#clip330)" style="stroke:#000000; stroke-width:4; stroke-opacity:1; fill:none" points="
  1285.2,1423.18 1285.2,1406.67 
  "/>
<polyline clip-path="url(#clip330)" style="stroke:#000000; stroke-width:4; stroke-opacity:1; fill:none" points="
  1583.13,1423.18 1583.13,1406.67 
  "/>
<polyline clip-path="url(#clip330)" style="stroke:#000000; stroke-width:4; stroke-opacity:1; fill:none" points="
  1881.07,1423.18 1881.07,1406.67 
  "/>
<polyline clip-path="url(#clip330)" style="stroke:#000000; stroke-width:4; stroke-opacity:1; fill:none" points="
  2179.01,1423.18 2179.01,1406.67 
  "/>
<polyline clip-path="url(#clip330)" style="stroke:#000000; stroke-width:4; stroke-opacity:1; fill:none" points="
  277.224,1384.24 302.131,1384.24 
  "/>
<polyline clip-path="url(#clip330)" style="stroke:#000000; stroke-width:4; stroke-opacity:1; fill:none" points="
  277.224,992.262 302.131,992.262 
  "/>
<polyline clip-path="url(#clip330)" style="stroke:#000000; stroke-width:4; stroke-opacity:1; fill:none" points="
  277.224,600.286 302.131,600.286 
  "/>
<polyline clip-path="url(#clip330)" style="stroke:#000000; stroke-width:4; stroke-opacity:1; fill:none" points="
  277.224,208.31 302.131,208.31 
  "/>
<path clip-path="url(#clip330)" d="M 0 0 M359.392 1445.17 Q355.78 1445.17 353.952 1448.74 Q352.146 1452.28 352.146 1459.41 Q352.146 1466.51 353.952 1470.08 Q355.78 1473.62 359.392 1473.62 Q363.026 1473.62 364.831 1470.08 Q366.66 1466.51 366.66 1459.41 Q366.66 1452.28 364.831 1448.74 Q363.026 1445.17 359.392 1445.17 M359.392 1441.47 Q365.202 1441.47 368.257 1446.07 Q371.336 1450.66 371.336 1459.41 Q371.336 1468.13 368.257 1472.74 Q365.202 1477.32 359.392 1477.32 Q353.581 1477.32 350.503 1472.74 Q347.447 1468.13 347.447 1459.41 Q347.447 1450.66 350.503 1446.07 Q353.581 1441.47 359.392 1441.47 Z" fill="#000000" fill-rule="evenodd" fill-opacity="1" /><path clip-path="url(#clip330)" d="M 0 0 M376.405 1470.77 L381.29 1470.77 L381.29 1476.65 L376.405 1476.65 L376.405 1470.77 Z" fill="#000000" fill-rule="evenodd" fill-opacity="1" /><path clip-path="url(#clip330)" d="M 0 0 M396.359 1445.17 Q392.748 1445.17 390.919 1448.74 Q389.114 1452.28 389.114 1459.41 Q389.114 1466.51 390.919 1470.08 Q392.748 1473.62 396.359 1473.62 Q399.993 1473.62 401.799 1470.08 Q403.627 1466.51 403.627 1459.41 Q403.627 1452.28 401.799 1448.74 Q399.993 1445.17 396.359 1445.17 M396.359 1441.47 Q402.169 1441.47 405.225 1446.07 Q408.303 1450.66 408.303 1459.41 Q408.303 1468.13 405.225 1472.74 Q402.169 1477.32 396.359 1477.32 Q390.549 1477.32 387.47 1472.74 Q384.415 1468.13 384.415 1459.41 Q384.415 1450.66 387.47 1446.07 Q390.549 1441.47 396.359 1441.47 Z" fill="#000000" fill-rule="evenodd" fill-opacity="1" /><path clip-path="url(#clip330)" d="M 0 0 M423.373 1445.17 Q419.762 1445.17 417.933 1448.74 Q416.127 1452.28 416.127 1459.41 Q416.127 1466.51 417.933 1470.08 Q419.762 1473.62 423.373 1473.62 Q427.007 1473.62 428.812 1470.08 Q430.641 1466.51 430.641 1459.41 Q430.641 1452.28 428.812 1448.74 Q427.007 1445.17 423.373 1445.17 M423.373 1441.47 Q429.183 1441.47 432.238 1446.07 Q435.317 1450.66 435.317 1459.41 Q435.317 1468.13 432.238 1472.74 Q429.183 1477.32 423.373 1477.32 Q417.563 1477.32 414.484 1472.74 Q411.428 1468.13 411.428 1459.41 Q411.428 1450.66 414.484 1446.07 Q417.563 1441.47 423.373 1441.47 Z" fill="#000000" fill-rule="evenodd" fill-opacity="1" /><path clip-path="url(#clip330)" d="M 0 0 M657.943 1445.17 Q654.332 1445.17 652.503 1448.74 Q650.698 1452.28 650.698 1459.41 Q650.698 1466.51 652.503 1470.08 Q654.332 1473.62 657.943 1473.62 Q661.577 1473.62 663.383 1470.08 Q665.211 1466.51 665.211 1459.41 Q665.211 1452.28 663.383 1448.74 Q661.577 1445.17 657.943 1445.17 M657.943 1441.47 Q663.753 1441.47 666.809 1446.07 Q669.887 1450.66 669.887 1459.41 Q669.887 1468.13 666.809 1472.74 Q663.753 1477.32 657.943 1477.32 Q652.133 1477.32 649.054 1472.74 Q645.999 1468.13 645.999 1459.41 Q645.999 1450.66 649.054 1446.07 Q652.133 1441.47 657.943 1441.47 Z" fill="#000000" fill-rule="evenodd" fill-opacity="1" /><path clip-path="url(#clip330)" d="M 0 0 M674.957 1470.77 L679.841 1470.77 L679.841 1476.65 L674.957 1476.65 L674.957 1470.77 Z" fill="#000000" fill-rule="evenodd" fill-opacity="1" /><path clip-path="url(#clip330)" d="M 0 0 M694.91 1445.17 Q691.299 1445.17 689.471 1448.74 Q687.665 1452.28 687.665 1459.41 Q687.665 1466.51 689.471 1470.08 Q691.299 1473.62 694.91 1473.62 Q698.545 1473.62 700.35 1470.08 Q702.179 1466.51 702.179 1459.41 Q702.179 1452.28 700.35 1448.74 Q698.545 1445.17 694.91 1445.17 M694.91 1441.47 Q700.721 1441.47 703.776 1446.07 Q706.855 1450.66 706.855 1459.41 Q706.855 1468.13 703.776 1472.74 Q700.721 1477.32 694.91 1477.32 Q689.1 1477.32 686.022 1472.74 Q682.966 1468.13 682.966 1459.41 Q682.966 1450.66 686.022 1446.07 Q689.1 1441.47 694.91 1441.47 Z" fill="#000000" fill-rule="evenodd" fill-opacity="1" /><path clip-path="url(#clip330)" d="M 0 0 M712.734 1472.72 L720.373 1472.72 L720.373 1446.35 L712.063 1448.02 L712.063 1443.76 L720.327 1442.09 L725.003 1442.09 L725.003 1472.72 L732.642 1472.72 L732.642 1476.65 L712.734 1476.65 L712.734 1472.72 Z" fill="#000000" fill-rule="evenodd" fill-opacity="1" /><path clip-path="url(#clip330)" d="M 0 0 M956.066 1445.17 Q952.455 1445.17 950.626 1448.74 Q948.821 1452.28 948.821 1459.41 Q948.821 1466.51 950.626 1470.08 Q952.455 1473.62 956.066 1473.62 Q959.7 1473.62 961.506 1470.08 Q963.335 1466.51 963.335 1459.41 Q963.335 1452.28 961.506 1448.74 Q959.7 1445.17 956.066 1445.17 M956.066 1441.47 Q961.876 1441.47 964.932 1446.07 Q968.011 1450.66 968.011 1459.41 Q968.011 1468.13 964.932 1472.74 Q961.876 1477.32 956.066 1477.32 Q950.256 1477.32 947.177 1472.74 Q944.122 1468.13 944.122 1459.41 Q944.122 1450.66 947.177 1446.07 Q950.256 1441.47 956.066 1441.47 Z" fill="#000000" fill-rule="evenodd" fill-opacity="1" /><path clip-path="url(#clip330)" d="M 0 0 M973.08 1470.77 L977.964 1470.77 L977.964 1476.65 L973.08 1476.65 L973.08 1470.77 Z" fill="#000000" fill-rule="evenodd" fill-opacity="1" /><path clip-path="url(#clip330)" d="M 0 0 M993.034 1445.17 Q989.423 1445.17 987.594 1448.74 Q985.788 1452.28 985.788 1459.41 Q985.788 1466.51 987.594 1470.08 Q989.423 1473.62 993.034 1473.62 Q996.668 1473.62 998.473 1470.08 Q1000.3 1466.51 1000.3 1459.41 Q1000.3 1452.28 998.473 1448.74 Q996.668 1445.17 993.034 1445.17 M993.034 1441.47 Q998.844 1441.47 1001.9 1446.07 Q1004.98 1450.66 1004.98 1459.41 Q1004.98 1468.13 1001.9 1472.74 Q998.844 1477.32 993.034 1477.32 Q987.223 1477.32 984.145 1472.74 Q981.089 1468.13 981.089 1459.41 Q981.089 1450.66 984.145 1446.07 Q987.223 1441.47 993.034 1441.47 Z" fill="#000000" fill-rule="evenodd" fill-opacity="1" /><path clip-path="url(#clip330)" d="M 0 0 M1014.08 1472.72 L1030.39 1472.72 L1030.39 1476.65 L1008.45 1476.65 L1008.45 1472.72 Q1011.11 1469.96 1015.7 1465.33 Q1020.3 1460.68 1021.48 1459.34 Q1023.73 1456.81 1024.61 1455.08 Q1025.51 1453.32 1025.51 1451.63 Q1025.51 1448.87 1023.57 1447.14 Q1021.64 1445.4 1018.54 1445.4 Q1016.34 1445.4 1013.89 1446.17 Q1011.46 1446.93 1008.68 1448.48 L1008.68 1443.76 Q1011.51 1442.62 1013.96 1442.05 Q1016.41 1441.47 1018.45 1441.47 Q1023.82 1441.47 1027.01 1444.15 Q1030.21 1446.84 1030.21 1451.33 Q1030.21 1453.46 1029.4 1455.38 Q1028.61 1457.28 1026.51 1459.87 Q1025.93 1460.54 1022.83 1463.76 Q1019.72 1466.95 1014.08 1472.72 Z" fill="#000000" fill-rule="evenodd" fill-opacity="1" /><path clip-path="url(#clip330)" d="M 0 0 M1253.53 1445.17 Q1249.92 1445.17 1248.09 1448.74 Q1246.28 1452.28 1246.28 1459.41 Q1246.28 1466.51 1248.09 1470.08 Q1249.92 1473.62 1253.53 1473.62 Q1257.16 1473.62 1258.97 1470.08 Q1260.8 1466.51 1260.8 1459.41 Q1260.8 1452.28 1258.97 1448.74 Q1257.16 1445.17 1253.53 1445.17 M1253.53 1441.47 Q1259.34 1441.47 1262.4 1446.07 Q1265.47 1450.66 1265.47 1459.41 Q1265.47 1468.13 1262.4 1472.74 Q1259.34 1477.32 1253.53 1477.32 Q1247.72 1477.32 1244.64 1472.74 Q1241.59 1468.13 1241.59 1459.41 Q1241.59 1450.66 1244.64 1446.07 Q1247.72 1441.47 1253.53 1441.47 Z" fill="#000000" fill-rule="evenodd" fill-opacity="1" /><path clip-path="url(#clip330)" d="M 0 0 M1270.54 1470.77 L1275.43 1470.77 L1275.43 1476.65 L1270.54 1476.65 L1270.54 1470.77 Z" fill="#000000" fill-rule="evenodd" fill-opacity="1" /><path clip-path="url(#clip330)" d="M 0 0 M1290.5 1445.17 Q1286.89 1445.17 1285.06 1448.74 Q1283.25 1452.28 1283.25 1459.41 Q1283.25 1466.51 1285.06 1470.08 Q1286.89 1473.62 1290.5 1473.62 Q1294.13 1473.62 1295.94 1470.08 Q1297.77 1466.51 1297.77 1459.41 Q1297.77 1452.28 1295.94 1448.74 Q1294.13 1445.17 1290.5 1445.17 M1290.5 1441.47 Q1296.31 1441.47 1299.36 1446.07 Q1302.44 1450.66 1302.44 1459.41 Q1302.44 1468.13 1299.36 1472.74 Q1296.31 1477.32 1290.5 1477.32 Q1284.69 1477.32 1281.61 1472.74 Q1278.55 1468.13 1278.55 1459.41 Q1278.55 1450.66 1281.61 1446.07 Q1284.69 1441.47 1290.5 1441.47 Z" fill="#000000" fill-rule="evenodd" fill-opacity="1" /><path clip-path="url(#clip330)" d="M 0 0 M1321.68 1458.02 Q1325.03 1458.74 1326.91 1461 Q1328.81 1463.27 1328.81 1466.61 Q1328.81 1471.72 1325.29 1474.52 Q1321.77 1477.32 1315.29 1477.32 Q1313.11 1477.32 1310.8 1476.88 Q1308.51 1476.47 1306.05 1475.61 L1306.05 1471.1 Q1308 1472.23 1310.31 1472.81 Q1312.63 1473.39 1315.15 1473.39 Q1319.55 1473.39 1321.84 1471.65 Q1324.15 1469.92 1324.15 1466.61 Q1324.15 1463.55 1322 1461.84 Q1319.87 1460.1 1316.05 1460.1 L1312.02 1460.1 L1312.02 1456.26 L1316.24 1456.26 Q1319.69 1456.26 1321.52 1454.89 Q1323.34 1453.5 1323.34 1450.91 Q1323.34 1448.25 1321.45 1446.84 Q1319.57 1445.4 1316.05 1445.4 Q1314.13 1445.4 1311.93 1445.82 Q1309.73 1446.24 1307.09 1447.11 L1307.09 1442.95 Q1309.76 1442.21 1312.07 1441.84 Q1314.41 1441.47 1316.47 1441.47 Q1321.79 1441.47 1324.9 1443.9 Q1328 1446.3 1328 1450.43 Q1328 1453.3 1326.35 1455.29 Q1324.71 1457.25 1321.68 1458.02 Z" fill="#000000" fill-rule="evenodd" fill-opacity="1" /><path clip-path="url(#clip330)" d="M 0 0 M1550.9 1445.17 Q1547.29 1445.17 1545.46 1448.74 Q1543.66 1452.28 1543.66 1459.41 Q1543.66 1466.51 1545.46 1470.08 Q1547.29 1473.62 1550.9 1473.62 Q1554.53 1473.62 1556.34 1470.08 Q1558.17 1466.51 1558.17 1459.41 Q1558.17 1452.28 1556.34 1448.74 Q1554.53 1445.17 1550.9 1445.17 M1550.9 1441.47 Q1556.71 1441.47 1559.77 1446.07 Q1562.85 1450.66 1562.85 1459.41 Q1562.85 1468.13 1559.77 1472.74 Q1556.71 1477.32 1550.9 1477.32 Q1545.09 1477.32 1542.01 1472.74 Q1538.96 1468.13 1538.96 1459.41 Q1538.96 1450.66 1542.01 1446.07 Q1545.09 1441.47 1550.9 1441.47 Z" fill="#000000" fill-rule="evenodd" fill-opacity="1" /><path clip-path="url(#clip330)" d="M 0 0 M1567.91 1470.77 L1572.8 1470.77 L1572.8 1476.65 L1567.91 1476.65 L1567.91 1470.77 Z" fill="#000000" fill-rule="evenodd" fill-opacity="1" /><path clip-path="url(#clip330)" d="M 0 0 M1587.87 1445.17 Q1584.26 1445.17 1582.43 1448.74 Q1580.62 1452.28 1580.62 1459.41 Q1580.62 1466.51 1582.43 1470.08 Q1584.26 1473.62 1587.87 1473.62 Q1591.5 1473.62 1593.31 1470.08 Q1595.14 1466.51 1595.14 1459.41 Q1595.14 1452.28 1593.31 1448.74 Q1591.5 1445.17 1587.87 1445.17 M1587.87 1441.47 Q1593.68 1441.47 1596.73 1446.07 Q1599.81 1450.66 1599.81 1459.41 Q1599.81 1468.13 1596.73 1472.74 Q1593.68 1477.32 1587.87 1477.32 Q1582.06 1477.32 1578.98 1472.74 Q1575.92 1468.13 1575.92 1459.41 Q1575.92 1450.66 1578.98 1446.07 Q1582.06 1441.47 1587.87 1441.47 Z" fill="#000000" fill-rule="evenodd" fill-opacity="1" /><path clip-path="url(#clip330)" d="M 0 0 M1617.73 1446.17 L1605.92 1464.61 L1617.73 1464.61 L1617.73 1446.17 M1616.5 1442.09 L1622.38 1442.09 L1622.38 1464.61 L1627.31 1464.61 L1627.31 1468.5 L1622.38 1468.5 L1622.38 1476.65 L1617.73 1476.65 L1617.73 1468.5 L1602.13 1468.5 L1602.13 1463.99 L1616.5 1442.09 Z" fill="#000000" fill-rule="evenodd" fill-opacity="1" /><path clip-path="url(#clip330)" d="M 0 0 M1849.58 1445.17 Q1845.97 1445.17 1844.14 1448.74 Q1842.33 1452.28 1842.33 1459.41 Q1842.33 1466.51 1844.14 1470.08 Q1845.97 1473.62 1849.58 1473.62 Q1853.21 1473.62 1855.02 1470.08 Q1856.85 1466.51 1856.85 1459.41 Q1856.85 1452.28 1855.02 1448.74 Q1853.21 1445.17 1849.58 1445.17 M1849.58 1441.47 Q1855.39 1441.47 1858.45 1446.07 Q1861.52 1450.66 1861.52 1459.41 Q1861.52 1468.13 1858.45 1472.74 Q1855.39 1477.32 1849.58 1477.32 Q1843.77 1477.32 1840.69 1472.74 Q1837.64 1468.13 1837.64 1459.41 Q1837.64 1450.66 1840.69 1446.07 Q1843.77 1441.47 1849.58 1441.47 Z" fill="#000000" fill-rule="evenodd" fill-opacity="1" /><path clip-path="url(#clip330)" d="M 0 0 M1866.59 1470.77 L1871.48 1470.77 L1871.48 1476.65 L1866.59 1476.65 L1866.59 1470.77 Z" fill="#000000" fill-rule="evenodd" fill-opacity="1" /><path clip-path="url(#clip330)" d="M 0 0 M1886.55 1445.17 Q1882.94 1445.17 1881.11 1448.74 Q1879.3 1452.28 1879.3 1459.41 Q1879.3 1466.51 1881.11 1470.08 Q1882.94 1473.62 1886.55 1473.62 Q1890.18 1473.62 1891.99 1470.08 Q1893.82 1466.51 1893.82 1459.41 Q1893.82 1452.28 1891.99 1448.74 Q1890.18 1445.17 1886.55 1445.17 M1886.55 1441.47 Q1892.36 1441.47 1895.41 1446.07 Q1898.49 1450.66 1898.49 1459.41 Q1898.49 1468.13 1895.41 1472.74 Q1892.36 1477.32 1886.55 1477.32 Q1880.74 1477.32 1877.66 1472.74 Q1874.6 1468.13 1874.6 1459.41 Q1874.6 1450.66 1877.66 1446.07 Q1880.74 1441.47 1886.55 1441.47 Z" fill="#000000" fill-rule="evenodd" fill-opacity="1" /><path clip-path="url(#clip330)" d="M 0 0 M1903.61 1442.09 L1921.96 1442.09 L1921.96 1446.03 L1907.89 1446.03 L1907.89 1454.5 Q1908.91 1454.15 1909.93 1453.99 Q1910.94 1453.8 1911.96 1453.8 Q1917.75 1453.8 1921.13 1456.98 Q1924.51 1460.15 1924.51 1465.56 Q1924.51 1471.14 1921.04 1474.24 Q1917.57 1477.32 1911.25 1477.32 Q1909.07 1477.32 1906.8 1476.95 Q1904.56 1476.58 1902.15 1475.84 L1902.15 1471.14 Q1904.23 1472.28 1906.45 1472.83 Q1908.68 1473.39 1911.15 1473.39 Q1915.16 1473.39 1917.5 1471.28 Q1919.83 1469.18 1919.83 1465.56 Q1919.83 1461.95 1917.5 1459.85 Q1915.16 1457.74 1911.15 1457.74 Q1909.28 1457.74 1907.4 1458.16 Q1905.55 1458.57 1903.61 1459.45 L1903.61 1442.09 Z" fill="#000000" fill-rule="evenodd" fill-opacity="1" /><path clip-path="url(#clip330)" d="M 0 0 M2146.94 1445.17 Q2143.33 1445.17 2141.5 1448.74 Q2139.69 1452.28 2139.69 1459.41 Q2139.69 1466.51 2141.5 1470.08 Q2143.33 1473.62 2146.94 1473.62 Q2150.57 1473.62 2152.38 1470.08 Q2154.21 1466.51 2154.21 1459.41 Q2154.21 1452.28 2152.38 1448.74 Q2150.57 1445.17 2146.94 1445.17 M2146.94 1441.47 Q2152.75 1441.47 2155.8 1446.07 Q2158.88 1450.66 2158.88 1459.41 Q2158.88 1468.13 2155.8 1472.74 Q2152.75 1477.32 2146.94 1477.32 Q2141.13 1477.32 2138.05 1472.74 Q2134.99 1468.13 2134.99 1459.41 Q2134.99 1450.66 2138.05 1446.07 Q2141.13 1441.47 2146.94 1441.47 Z" fill="#000000" fill-rule="evenodd" fill-opacity="1" /><path clip-path="url(#clip330)" d="M 0 0 M2163.95 1470.77 L2168.84 1470.77 L2168.84 1476.65 L2163.95 1476.65 L2163.95 1470.77 Z" fill="#000000" fill-rule="evenodd" fill-opacity="1" /><path clip-path="url(#clip330)" d="M 0 0 M2183.91 1445.17 Q2180.3 1445.17 2178.47 1448.74 Q2176.66 1452.28 2176.66 1459.41 Q2176.66 1466.51 2178.47 1470.08 Q2180.3 1473.62 2183.91 1473.62 Q2187.54 1473.62 2189.35 1470.08 Q2191.17 1466.51 2191.17 1459.41 Q2191.17 1452.28 2189.35 1448.74 Q2187.54 1445.17 2183.91 1445.17 M2183.91 1441.47 Q2189.72 1441.47 2192.77 1446.07 Q2195.85 1450.66 2195.85 1459.41 Q2195.85 1468.13 2192.77 1472.74 Q2189.72 1477.32 2183.91 1477.32 Q2178.1 1477.32 2175.02 1472.74 Q2171.96 1468.13 2171.96 1459.41 Q2171.96 1450.66 2175.02 1446.07 Q2178.1 1441.47 2183.91 1441.47 Z" fill="#000000" fill-rule="evenodd" fill-opacity="1" /><path clip-path="url(#clip330)" d="M 0 0 M2211.5 1457.51 Q2208.35 1457.51 2206.5 1459.66 Q2204.67 1461.81 2204.67 1465.56 Q2204.67 1469.29 2206.5 1471.47 Q2208.35 1473.62 2211.5 1473.62 Q2214.65 1473.62 2216.48 1471.47 Q2218.33 1469.29 2218.33 1465.56 Q2218.33 1461.81 2216.48 1459.66 Q2214.65 1457.51 2211.5 1457.51 M2220.78 1442.86 L2220.78 1447.11 Q2219.02 1446.28 2217.22 1445.84 Q2215.43 1445.4 2213.67 1445.4 Q2209.04 1445.4 2206.59 1448.53 Q2204.16 1451.65 2203.81 1457.97 Q2205.18 1455.96 2207.24 1454.89 Q2209.3 1453.8 2211.78 1453.8 Q2216.98 1453.8 2219.99 1456.98 Q2223.03 1460.12 2223.03 1465.56 Q2223.03 1470.89 2219.88 1474.11 Q2216.73 1477.32 2211.5 1477.32 Q2205.5 1477.32 2202.33 1472.74 Q2199.16 1468.13 2199.16 1459.41 Q2199.16 1451.21 2203.05 1446.35 Q2206.94 1441.47 2213.49 1441.47 Q2215.25 1441.47 2217.03 1441.81 Q2218.84 1442.16 2220.78 1442.86 Z" fill="#000000" fill-rule="evenodd" fill-opacity="1" /><path clip-path="url(#clip330)" d="M 0 0 M241.28 1370.04 Q237.669 1370.04 235.84 1373.6 Q234.034 1377.14 234.034 1384.27 Q234.034 1391.38 235.84 1394.94 Q237.669 1398.49 241.28 1398.49 Q244.914 1398.49 246.72 1394.94 Q248.548 1391.38 248.548 1384.27 Q248.548 1377.14 246.72 1373.6 Q244.914 1370.04 241.28 1370.04 M241.28 1366.33 Q247.09 1366.33 250.145 1370.94 Q253.224 1375.52 253.224 1384.27 Q253.224 1393 250.145 1397.61 Q247.09 1402.19 241.28 1402.19 Q235.47 1402.19 232.391 1397.61 Q229.335 1393 229.335 1384.27 Q229.335 1375.52 232.391 1370.94 Q235.47 1366.33 241.28 1366.33 Z" fill="#000000" fill-rule="evenodd" fill-opacity="1" /><path clip-path="url(#clip330)" d="M 0 0 M129.107 1012.05 L136.746 1012.05 L136.746 985.689 L128.436 987.356 L128.436 983.096 L136.7 981.43 L141.376 981.43 L141.376 1012.05 L149.015 1012.05 L149.015 1015.99 L129.107 1015.99 L129.107 1012.05 Z" fill="#000000" fill-rule="evenodd" fill-opacity="1" /><path clip-path="url(#clip330)" d="M 0 0 M182.255 990.527 L171.677 1001.15 L182.255 1011.73 L179.501 1014.53 L168.876 1003.91 L158.251 1014.53 L155.519 1011.73 L166.075 1001.15 L155.519 990.527 L158.251 987.726 L168.876 998.351 L179.501 987.726 L182.255 990.527 Z" fill="#000000" fill-rule="evenodd" fill-opacity="1" /><path clip-path="url(#clip330)" d="M 0 0 M188.135 1012.05 L195.774 1012.05 L195.774 985.689 L187.464 987.356 L187.464 983.096 L195.727 981.43 L200.403 981.43 L200.403 1012.05 L208.042 1012.05 L208.042 1015.99 L188.135 1015.99 L188.135 1012.05 Z" fill="#000000" fill-rule="evenodd" fill-opacity="1" /><path clip-path="url(#clip330)" d="M 0 0 M223.111 984.508 Q219.5 984.508 217.672 988.073 Q215.866 991.615 215.866 998.744 Q215.866 1005.85 217.672 1009.42 Q219.5 1012.96 223.111 1012.96 Q226.746 1012.96 228.551 1009.42 Q230.38 1005.85 230.38 998.744 Q230.38 991.615 228.551 988.073 Q226.746 984.508 223.111 984.508 M223.111 980.805 Q228.922 980.805 231.977 985.411 Q235.056 989.994 235.056 998.744 Q235.056 1007.47 231.977 1012.08 Q228.922 1016.66 223.111 1016.66 Q217.301 1016.66 214.223 1012.08 Q211.167 1007.47 211.167 998.744 Q211.167 989.994 214.223 985.411 Q217.301 980.805 223.111 980.805 Z" fill="#000000" fill-rule="evenodd" fill-opacity="1" /><path clip-path="url(#clip330)" d="M 0 0 M236.241 960.499 L251.155 960.499 L251.155 963.697 L239.72 963.697 L239.72 970.58 Q240.548 970.298 241.375 970.166 Q242.203 970.016 243.03 970.016 Q247.732 970.016 250.478 972.593 Q253.224 975.169 253.224 979.57 Q253.224 984.103 250.403 986.623 Q247.582 989.125 242.447 989.125 Q240.679 989.125 238.836 988.824 Q237.012 988.523 235.056 987.921 L235.056 984.103 Q236.749 985.025 238.554 985.476 Q240.36 985.927 242.372 985.927 Q245.626 985.927 247.525 984.216 Q249.425 982.504 249.425 979.57 Q249.425 976.636 247.525 974.925 Q245.626 973.213 242.372 973.213 Q240.849 973.213 239.325 973.552 Q237.821 973.89 236.241 974.605 L236.241 960.499 Z" fill="#000000" fill-rule="evenodd" fill-opacity="1" /><path clip-path="url(#clip330)" d="M 0 0 M132.695 620.078 L149.015 620.078 L149.015 624.014 L127.07 624.014 L127.07 620.078 Q129.732 617.324 134.316 612.694 Q138.922 608.041 140.103 606.699 Q142.348 604.176 143.228 602.44 Q144.13 600.68 144.13 598.991 Q144.13 596.236 142.186 594.5 Q140.265 592.764 137.163 592.764 Q134.964 592.764 132.51 593.528 Q130.08 594.291 127.302 595.842 L127.302 591.12 Q130.126 589.986 132.58 589.407 Q135.033 588.829 137.07 588.829 Q142.441 588.829 145.635 591.514 Q148.829 594.199 148.829 598.69 Q148.829 600.819 148.019 602.74 Q147.232 604.639 145.126 607.231 Q144.547 607.903 141.445 611.12 Q138.343 614.315 132.695 620.078 Z" fill="#000000" fill-rule="evenodd" fill-opacity="1" /><path clip-path="url(#clip330)" d="M 0 0 M182.255 598.551 L171.677 609.176 L182.255 619.754 L179.501 622.555 L168.876 611.93 L158.251 622.555 L155.519 619.754 L166.075 609.176 L155.519 598.551 L158.251 595.75 L168.876 606.375 L179.501 595.75 L182.255 598.551 Z" fill="#000000" fill-rule="evenodd" fill-opacity="1" /><path clip-path="url(#clip330)" d="M 0 0 M188.135 620.078 L195.774 620.078 L195.774 593.713 L187.464 595.379 L187.464 591.12 L195.727 589.454 L200.403 589.454 L200.403 620.078 L208.042 620.078 L208.042 624.014 L188.135 624.014 L188.135 620.078 Z" fill="#000000" fill-rule="evenodd" fill-opacity="1" /><path clip-path="url(#clip330)" d="M 0 0 M223.111 592.532 Q219.5 592.532 217.672 596.097 Q215.866 599.639 215.866 606.768 Q215.866 613.875 217.672 617.439 Q219.5 620.981 223.111 620.981 Q226.746 620.981 228.551 617.439 Q230.38 613.875 230.38 606.768 Q230.38 599.639 228.551 596.097 Q226.746 592.532 223.111 592.532 M223.111 588.829 Q228.922 588.829 231.977 593.435 Q235.056 598.018 235.056 606.768 Q235.056 615.495 231.977 620.102 Q228.922 624.685 223.111 624.685 Q217.301 624.685 214.223 620.102 Q211.167 615.495 211.167 606.768 Q211.167 598.018 214.223 593.435 Q217.301 588.829 223.111 588.829 Z" fill="#000000" fill-rule="evenodd" fill-opacity="1" /><path clip-path="url(#clip330)" d="M 0 0 M236.241 568.523 L251.155 568.523 L251.155 571.72 L239.72 571.72 L239.72 578.604 Q240.548 578.322 241.375 578.19 Q242.203 578.04 243.03 578.04 Q247.732 578.04 250.478 580.617 Q253.224 583.193 253.224 587.594 Q253.224 592.127 250.403 594.647 Q247.582 597.149 242.447 597.149 Q240.679 597.149 238.836 596.848 Q237.012 596.547 235.056 595.945 L235.056 592.127 Q236.749 593.048 238.554 593.5 Q240.36 593.951 242.372 593.951 Q245.626 593.951 247.525 592.24 Q249.425 590.528 249.425 587.594 Q249.425 584.66 247.525 582.949 Q245.626 581.237 242.372 581.237 Q240.849 581.237 239.325 581.576 Q237.821 581.914 236.241 582.629 L236.241 568.523 Z" fill="#000000" fill-rule="evenodd" fill-opacity="1" /><path clip-path="url(#clip330)" d="M 0 0 M141.885 213.403 Q145.242 214.121 147.117 216.389 Q149.015 218.658 149.015 221.991 Q149.015 227.107 145.496 229.908 Q141.978 232.709 135.496 232.709 Q133.32 232.709 131.006 232.269 Q128.714 231.852 126.26 230.996 L126.26 226.482 Q128.205 227.616 130.519 228.195 Q132.834 228.773 135.357 228.773 Q139.755 228.773 142.047 227.037 Q144.362 225.301 144.362 221.991 Q144.362 218.936 142.209 217.223 Q140.08 215.487 136.26 215.487 L132.232 215.487 L132.232 211.644 L136.445 211.644 Q139.894 211.644 141.723 210.278 Q143.552 208.889 143.552 206.297 Q143.552 203.635 141.654 202.223 Q139.779 200.788 136.26 200.788 Q134.339 200.788 132.14 201.204 Q129.941 201.621 127.302 202.5 L127.302 198.334 Q129.964 197.593 132.279 197.223 Q134.617 196.852 136.677 196.852 Q142.001 196.852 145.103 199.283 Q148.204 201.69 148.204 205.811 Q148.204 208.681 146.561 210.672 Q144.917 212.639 141.885 213.403 Z" fill="#000000" fill-rule="evenodd" fill-opacity="1" /><path clip-path="url(#clip330)" d="M 0 0 M182.255 206.575 L171.677 217.199 L182.255 227.778 L179.501 230.579 L168.876 219.954 L158.251 230.579 L155.519 227.778 L166.075 217.199 L155.519 206.575 L158.251 203.774 L168.876 214.399 L179.501 203.774 L182.255 206.575 Z" fill="#000000" fill-rule="evenodd" fill-opacity="1" /><path clip-path="url(#clip330)" d="M 0 0 M188.135 228.102 L195.774 228.102 L195.774 201.737 L187.464 203.403 L187.464 199.144 L195.727 197.477 L200.403 197.477 L200.403 228.102 L208.042 228.102 L208.042 232.037 L188.135 232.037 L188.135 228.102 Z" fill="#000000" fill-rule="evenodd" fill-opacity="1" /><path clip-path="url(#clip330)" d="M 0 0 M223.111 200.556 Q219.5 200.556 217.672 204.121 Q215.866 207.662 215.866 214.792 Q215.866 221.899 217.672 225.463 Q219.5 229.005 223.111 229.005 Q226.746 229.005 228.551 225.463 Q230.38 221.899 230.38 214.792 Q230.38 207.662 228.551 204.121 Q226.746 200.556 223.111 200.556 M223.111 196.852 Q228.922 196.852 231.977 201.459 Q235.056 206.042 235.056 214.792 Q235.056 223.519 231.977 228.125 Q228.922 232.709 223.111 232.709 Q217.301 232.709 214.223 228.125 Q211.167 223.519 211.167 214.792 Q211.167 206.042 214.223 201.459 Q217.301 196.852 223.111 196.852 Z" fill="#000000" fill-rule="evenodd" fill-opacity="1" /><path clip-path="url(#clip330)" d="M 0 0 M236.241 176.547 L251.155 176.547 L251.155 179.744 L239.72 179.744 L239.72 186.628 Q240.548 186.346 241.375 186.214 Q242.203 186.064 243.03 186.064 Q247.732 186.064 250.478 188.64 Q253.224 191.217 253.224 195.618 Q253.224 200.151 250.403 202.671 Q247.582 205.172 242.447 205.172 Q240.679 205.172 238.836 204.871 Q237.012 204.571 235.056 203.969 L235.056 200.151 Q236.749 201.072 238.554 201.524 Q240.36 201.975 242.372 201.975 Q245.626 201.975 247.525 200.264 Q249.425 198.552 249.425 195.618 Q249.425 192.684 247.525 190.973 Q245.626 189.261 242.372 189.261 Q240.849 189.261 239.325 189.6 Q237.821 189.938 236.241 190.653 L236.241 176.547 Z" fill="#000000" fill-rule="evenodd" fill-opacity="1" /><path clip-path="url(#clip330)" d="M 0 0 M1274.44 1536.76 L1274.44 1539.62 L1247.51 1539.62 Q1247.9 1545.67 1251.14 1548.85 Q1254.42 1552 1260.24 1552 Q1263.62 1552 1266.77 1551.17 Q1269.95 1550.35 1273.07 1548.69 L1273.07 1554.23 Q1269.92 1555.57 1266.61 1556.27 Q1263.3 1556.97 1259.89 1556.97 Q1251.36 1556.97 1246.37 1552 Q1241.4 1547.04 1241.4 1538.57 Q1241.4 1529.82 1246.11 1524.69 Q1250.86 1519.54 1258.88 1519.54 Q1266.07 1519.54 1270.24 1524.18 Q1274.44 1528.8 1274.44 1536.76 M1268.58 1535.04 Q1268.52 1530.23 1265.88 1527.37 Q1263.27 1524.5 1258.94 1524.5 Q1254.04 1524.5 1251.08 1527.27 Q1248.15 1530.04 1247.7 1535.07 L1268.58 1535.04 Z" fill="#000000" fill-rule="evenodd" fill-opacity="1" /><path clip-path="url(#clip330)" d="M 0 0 M1301.24 1525.87 Q1300.25 1525.3 1299.08 1525.04 Q1297.93 1524.76 1296.53 1524.76 Q1291.56 1524.76 1288.89 1528 Q1286.25 1531.22 1286.25 1537.27 L1286.25 1556.04 L1280.36 1556.04 L1280.36 1520.4 L1286.25 1520.4 L1286.25 1525.93 Q1288.09 1522.69 1291.05 1521.13 Q1294.02 1519.54 1298.25 1519.54 Q1298.85 1519.54 1299.59 1519.63 Q1300.32 1519.7 1301.21 1519.85 L1301.24 1525.87 Z" fill="#000000" fill-rule="evenodd" fill-opacity="1" /><path clip-path="url(#clip330)" d="M 0 0 M1326.89 1525.87 Q1325.91 1525.3 1324.73 1525.04 Q1323.58 1524.76 1322.18 1524.76 Q1317.22 1524.76 1314.54 1528 Q1311.9 1531.22 1311.9 1537.27 L1311.9 1556.04 L1306.01 1556.04 L1306.01 1520.4 L1311.9 1520.4 L1311.9 1525.93 Q1313.75 1522.69 1316.71 1521.13 Q1319.67 1519.54 1323.9 1519.54 Q1324.51 1519.54 1325.24 1519.63 Q1325.97 1519.7 1326.86 1519.85 L1326.89 1525.87 Z" fill="#000000" fill-rule="evenodd" fill-opacity="1" /><path clip-path="url(#clip330)" d="M 0 0 M1345.42 1524.5 Q1340.71 1524.5 1337.97 1528.19 Q1335.23 1531.85 1335.23 1538.25 Q1335.23 1544.65 1337.94 1548.34 Q1340.68 1552 1345.42 1552 Q1350.1 1552 1352.83 1548.31 Q1355.57 1544.62 1355.57 1538.25 Q1355.57 1531.92 1352.83 1528.23 Q1350.1 1524.5 1345.42 1524.5 M1345.42 1519.54 Q1353.06 1519.54 1357.42 1524.5 Q1361.78 1529.47 1361.78 1538.25 Q1361.78 1547 1357.42 1552 Q1353.06 1556.97 1345.42 1556.97 Q1337.75 1556.97 1333.39 1552 Q1329.06 1547 1329.06 1538.25 Q1329.06 1529.47 1333.39 1524.5 Q1337.75 1519.54 1345.42 1519.54 Z" fill="#000000" fill-rule="evenodd" fill-opacity="1" /><path clip-path="url(#clip330)" d="M 0 0 M1388.58 1525.87 Q1387.59 1525.3 1386.41 1525.04 Q1385.27 1524.76 1383.87 1524.76 Q1378.9 1524.76 1376.23 1528 Q1373.59 1531.22 1373.59 1537.27 L1373.59 1556.04 L1367.7 1556.04 L1367.7 1520.4 L1373.59 1520.4 L1373.59 1525.93 Q1375.43 1522.69 1378.39 1521.13 Q1381.35 1519.54 1385.59 1519.54 Q1386.19 1519.54 1386.92 1519.63 Q1387.65 1519.7 1388.55 1519.85 L1388.58 1525.87 Z" fill="#000000" fill-rule="evenodd" fill-opacity="1" /><path clip-path="url(#clip330)" d="M 0 0 M42.0438 868.462 L48.314 868.462 Q46.5634 872.122 45.704 875.369 Q44.8447 878.615 44.8447 881.639 Q44.8447 886.891 46.8817 889.755 Q48.9187 892.588 52.6745 892.588 Q55.8255 892.588 57.4488 890.71 Q59.0402 888.801 60.0269 883.517 L60.8226 879.634 Q62.1912 872.441 65.6605 869.035 Q69.098 865.598 74.8908 865.598 Q81.7976 865.598 85.3624 870.245 Q88.9272 874.86 88.9272 883.803 Q88.9272 887.177 88.1633 890.997 Q87.3994 894.784 85.9035 898.858 L79.2831 898.858 Q81.4793 894.943 82.5933 891.188 Q83.7073 887.432 83.7073 883.803 Q83.7073 878.297 81.543 875.305 Q79.3786 872.313 75.3682 872.313 Q71.8671 872.313 69.8937 874.478 Q67.9204 876.61 66.9337 881.512 L66.1698 885.427 Q64.7375 892.62 61.682 895.835 Q58.6264 899.049 53.1837 899.049 Q46.8817 899.049 43.2532 894.625 Q39.6248 890.169 39.6248 882.371 Q39.6248 879.029 40.2295 875.56 Q40.8343 872.091 42.0438 868.462 Z" fill="#000000" fill-rule="evenodd" fill-opacity="1" /><path clip-path="url(#clip330)" d="M 0 0 M40.4842 859.2 L40.4842 850.543 L80.238 829.472 L40.4842 829.472 L40.4842 823.234 L88.0042 823.234 L88.0042 831.891 L48.2503 852.962 L88.0042 852.962 L88.0042 859.2 L40.4842 859.2 Z" fill="#000000" fill-rule="evenodd" fill-opacity="1" /><path clip-path="url(#clip330)" d="M 0 0 M45.7677 810.407 L63.6235 810.407 L63.6235 802.322 Q63.6235 797.835 61.3 795.384 Q58.9765 792.933 54.6797 792.933 Q50.4147 792.933 48.0912 795.384 Q45.7677 797.835 45.7677 802.322 L45.7677 810.407 M40.4842 816.836 L40.4842 802.322 Q40.4842 794.333 44.1126 790.259 Q47.7092 786.154 54.6797 786.154 Q61.7138 786.154 65.3104 790.259 Q68.907 794.333 68.907 802.322 L68.907 810.407 L88.0042 810.407 L88.0042 816.836 L40.4842 816.836 Z" fill="#000000" fill-rule="evenodd" fill-opacity="1" /><path clip-path="url(#clip330)" d="M 0 0 M53.7248 733.636 L59.1993 733.636 Q57.8307 736.119 57.1623 738.634 Q56.4621 741.116 56.4621 743.662 Q56.4621 749.36 60.0905 752.511 Q63.6872 755.662 70.212 755.662 Q76.7369 755.662 80.3653 752.511 Q83.9619 749.36 83.9619 743.662 Q83.9619 741.116 83.2935 738.634 Q82.5933 736.119 81.2247 733.636 L86.6355 733.636 Q87.7814 736.087 88.3543 738.729 Q88.9272 741.339 88.9272 744.299 Q88.9272 752.352 83.8664 757.094 Q78.8057 761.837 70.212 761.837 Q61.491 761.837 56.4939 757.062 Q51.4968 752.256 51.4968 743.917 Q51.4968 741.212 52.0697 738.634 Q52.6108 736.055 53.7248 733.636 Z" fill="#000000" fill-rule="evenodd" fill-opacity="1" /><path clip-path="url(#clip330)" d="M 0 0 M56.4621 713.68 Q56.4621 718.391 60.1542 721.128 Q63.8145 723.865 70.212 723.865 Q76.6095 723.865 80.3017 721.16 Q83.9619 718.422 83.9619 713.68 Q83.9619 709.001 80.2698 706.264 Q76.5777 703.527 70.212 703.527 Q63.8781 703.527 60.186 706.264 Q56.4621 709.001 56.4621 713.68 M51.4968 713.68 Q51.4968 706.041 56.4621 701.681 Q61.4273 697.32 70.212 697.32 Q78.9649 697.32 83.9619 701.681 Q88.9272 706.041 88.9272 713.68 Q88.9272 721.351 83.9619 725.711 Q78.9649 730.04 70.212 730.04 Q61.4273 730.04 56.4621 725.711 Q51.4968 721.351 51.4968 713.68 Z" fill="#000000" fill-rule="evenodd" fill-opacity="1" /><path clip-path="url(#clip330)" d="M 0 0 M73.9359 691.782 L52.3562 691.782 L52.3562 685.925 L73.7131 685.925 Q78.7739 685.925 81.3202 683.952 Q83.8346 681.979 83.8346 678.032 Q83.8346 673.29 80.8109 670.552 Q77.7872 667.783 72.5673 667.783 L52.3562 667.783 L52.3562 661.927 L88.0042 661.927 L88.0042 667.783 L82.5296 667.783 Q85.7762 669.916 87.3676 672.748 Q88.9272 675.549 88.9272 679.273 Q88.9272 685.416 85.1078 688.599 Q81.2883 691.782 73.9359 691.782 M51.4968 677.045 L51.4968 677.045 Z" fill="#000000" fill-rule="evenodd" fill-opacity="1" /><path clip-path="url(#clip330)" d="M 0 0 M66.4881 626.151 L88.0042 626.151 L88.0042 632.008 L66.679 632.008 Q61.6183 632.008 59.1038 633.981 Q56.5894 635.955 56.5894 639.901 Q56.5894 644.644 59.6131 647.381 Q62.6368 650.118 67.8567 650.118 L88.0042 650.118 L88.0042 656.007 L52.3562 656.007 L52.3562 650.118 L57.8944 650.118 Q54.6797 648.018 53.0883 645.185 Q51.4968 642.32 51.4968 638.596 Q51.4968 632.454 55.3163 629.303 Q59.1038 626.151 66.4881 626.151 Z" fill="#000000" fill-rule="evenodd" fill-opacity="1" /><path clip-path="url(#clip330)" d="M 0 0 M42.2347 614.216 L52.3562 614.216 L52.3562 602.153 L56.9077 602.153 L56.9077 614.216 L76.2594 614.216 Q80.6199 614.216 81.8613 613.038 Q83.1026 611.829 83.1026 608.168 L83.1026 602.153 L88.0042 602.153 L88.0042 608.168 Q88.0042 614.948 85.4897 617.526 Q82.9434 620.104 76.2594 620.104 L56.9077 620.104 L56.9077 624.401 L52.3562 624.401 L52.3562 620.104 L42.2347 620.104 L42.2347 614.216 Z" fill="#000000" fill-rule="evenodd" fill-opacity="1" /><path clip-path="url(#clip330)" d="M 0 0 M53.4065 573.284 L58.9447 573.284 Q57.6716 575.767 57.035 578.441 Q56.3984 581.114 56.3984 583.979 Q56.3984 588.339 57.7352 590.535 Q59.072 592.7 61.7456 592.7 Q63.7826 592.7 64.9603 591.14 Q66.1061 589.581 67.1565 584.87 L67.6021 582.865 Q68.9389 576.626 71.3897 574.016 Q73.8086 571.375 78.1691 571.375 Q83.1344 571.375 86.0308 575.321 Q88.9272 579.236 88.9272 586.111 Q88.9272 588.976 88.3543 592.095 Q87.8132 595.182 86.6992 598.62 L80.6518 598.62 Q82.3387 595.373 83.198 592.222 Q84.0256 589.071 84.0256 585.984 Q84.0256 581.846 82.6251 579.618 Q81.1929 577.39 78.6147 577.39 Q76.2276 577.39 74.9545 579.013 Q73.6813 580.605 72.5037 586.048 L72.0262 588.085 Q70.8804 593.527 68.5251 595.946 Q66.138 598.365 62.0002 598.365 Q56.9713 598.365 54.2341 594.8 Q51.4968 591.236 51.4968 584.679 Q51.4968 581.432 51.9743 578.568 Q52.4517 575.703 53.4065 573.284 Z" fill="#000000" fill-rule="evenodd" fill-opacity="1" /><path clip-path="url(#clip332)" d="
M391.382 86.1857 L391.382 1384.24 L450.97 1384.24 L450.97 86.1857 L391.382 86.1857 L391.382 86.1857  Z
  " fill="#009af9" fill-rule="evenodd" fill-opacity="1"/>
<polyline clip-path="url(#clip332)" style="stroke:#000000; stroke-width:4; stroke-opacity:1; fill:none" points="
  391.382,86.1857 391.382,1384.24 450.97,1384.24 450.97,86.1857 391.382,86.1857 
  "/>
<path clip-path="url(#clip332)" d="
M450.97 1384.24 L450.97 1384.24 L510.557 1384.24 L510.557 1384.24 L450.97 1384.24 L450.97 1384.24  Z
  " fill="#009af9" fill-rule="evenodd" fill-opacity="1"/>
<polyline clip-path="url(#clip332)" style="stroke:#000000; stroke-width:4; stroke-opacity:1; fill:none" points="
  450.97,1384.24 450.97,1384.24 510.557,1384.24 450.97,1384.24 
  "/>
<path clip-path="url(#clip332)" d="
M510.557 1165.17 L510.557 1384.24 L570.145 1384.24 L570.145 1165.17 L510.557 1165.17 L510.557 1165.17  Z
  " fill="#009af9" fill-rule="evenodd" fill-opacity="1"/>
<polyline clip-path="url(#clip332)" style="stroke:#000000; stroke-width:4; stroke-opacity:1; fill:none" points="
  510.557,1165.17 510.557,1384.24 570.145,1384.24 570.145,1165.17 510.557,1165.17 
  "/>
<path clip-path="url(#clip332)" d="
M570.145 1384.24 L570.145 1384.24 L629.733 1384.24 L629.733 1384.24 L570.145 1384.24 L570.145 1384.24  Z
  " fill="#009af9" fill-rule="evenodd" fill-opacity="1"/>
<polyline clip-path="url(#clip332)" style="stroke:#000000; stroke-width:4; stroke-opacity:1; fill:none" points="
  570.145,1384.24 570.145,1384.24 629.733,1384.24 570.145,1384.24 
  "/>
<path clip-path="url(#clip332)" d="
M629.733 1384.24 L629.733 1384.24 L689.32 1384.24 L689.32 1384.24 L629.733 1384.24 L629.733 1384.24  Z
  " fill="#009af9" fill-rule="evenodd" fill-opacity="1"/>
<polyline clip-path="url(#clip332)" style="stroke:#000000; stroke-width:4; stroke-opacity:1; fill:none" points="
  629.733,1384.24 629.733,1384.24 689.32,1384.24 629.733,1384.24 
  "/>
<path clip-path="url(#clip332)" d="
M689.32 1288.41 L689.32 1384.24 L748.908 1384.24 L748.908 1288.41 L689.32 1288.41 L689.32 1288.41  Z
  " fill="#009af9" fill-rule="evenodd" fill-opacity="1"/>
<polyline clip-path="url(#clip332)" style="stroke:#000000; stroke-width:4; stroke-opacity:1; fill:none" points="
  689.32,1288.41 689.32,1384.24 748.908,1384.24 748.908,1288.41 689.32,1288.41 
  "/>
<path clip-path="url(#clip332)" d="
M748.908 1384.24 L748.908 1384.24 L808.495 1384.24 L808.495 1384.24 L748.908 1384.24 L748.908 1384.24  Z
  " fill="#009af9" fill-rule="evenodd" fill-opacity="1"/>
<polyline clip-path="url(#clip332)" style="stroke:#000000; stroke-width:4; stroke-opacity:1; fill:none" points="
  748.908,1384.24 748.908,1384.24 808.495,1384.24 748.908,1384.24 
  "/>
<path clip-path="url(#clip332)" d="
M808.495 1370.83 L808.495 1384.24 L868.083 1384.24 L868.083 1370.83 L808.495 1370.83 L808.495 1370.83  Z
  " fill="#009af9" fill-rule="evenodd" fill-opacity="1"/>
<polyline clip-path="url(#clip332)" style="stroke:#000000; stroke-width:4; stroke-opacity:1; fill:none" points="
  808.495,1370.83 808.495,1384.24 868.083,1384.24 868.083,1370.83 808.495,1370.83 
  "/>
<path clip-path="url(#clip332)" d="
M868.083 1384.24 L868.083 1384.24 L927.671 1384.24 L927.671 1384.24 L868.083 1384.24 L868.083 1384.24  Z
  " fill="#009af9" fill-rule="evenodd" fill-opacity="1"/>
<polyline clip-path="url(#clip332)" style="stroke:#000000; stroke-width:4; stroke-opacity:1; fill:none" points="
  868.083,1384.24 868.083,1384.24 927.671,1384.24 868.083,1384.24 
  "/>
<path clip-path="url(#clip332)" d="
M927.671 1384.24 L927.671 1384.24 L987.258 1384.24 L987.258 1384.24 L927.671 1384.24 L927.671 1384.24  Z
  " fill="#009af9" fill-rule="evenodd" fill-opacity="1"/>
<polyline clip-path="url(#clip332)" style="stroke:#000000; stroke-width:4; stroke-opacity:1; fill:none" points="
  927.671,1384.24 927.671,1384.24 987.258,1384.24 927.671,1384.24 
  "/>
<path clip-path="url(#clip332)" d="
M987.258 1375.9 L987.258 1384.24 L1046.85 1384.24 L1046.85 1375.9 L987.258 1375.9 L987.258 1375.9  Z
  " fill="#009af9" fill-rule="evenodd" fill-opacity="1"/>
<polyline clip-path="url(#clip332)" style="stroke:#000000; stroke-width:4; stroke-opacity:1; fill:none" points="
  987.258,1375.9 987.258,1384.24 1046.85,1384.24 1046.85,1375.9 987.258,1375.9 
  "/>
<path clip-path="url(#clip332)" d="
M1046.85 1384.24 L1046.85 1384.24 L1106.43 1384.24 L1106.43 1384.24 L1046.85 1384.24 L1046.85 1384.24  Z
  " fill="#009af9" fill-rule="evenodd" fill-opacity="1"/>
<polyline clip-path="url(#clip332)" style="stroke:#000000; stroke-width:4; stroke-opacity:1; fill:none" points="
  1046.85,1384.24 1046.85,1384.24 1106.43,1384.24 1046.85,1384.24 
  "/>
<path clip-path="url(#clip332)" d="
M1106.43 1383.11 L1106.43 1384.24 L1166.02 1384.24 L1166.02 1383.11 L1106.43 1383.11 L1106.43 1383.11  Z
  " fill="#009af9" fill-rule="evenodd" fill-opacity="1"/>
<polyline clip-path="url(#clip332)" style="stroke:#000000; stroke-width:4; stroke-opacity:1; fill:none" points="
  1106.43,1383.11 1106.43,1384.24 1166.02,1384.24 1166.02,1383.11 1106.43,1383.11 
  "/>
<path clip-path="url(#clip332)" d="
M1166.02 1384.24 L1166.02 1384.24 L1225.61 1384.24 L1225.61 1384.24 L1166.02 1384.24 L1166.02 1384.24  Z
  " fill="#009af9" fill-rule="evenodd" fill-opacity="1"/>
<polyline clip-path="url(#clip332)" style="stroke:#000000; stroke-width:4; stroke-opacity:1; fill:none" points="
  1166.02,1384.24 1166.02,1384.24 1225.61,1384.24 1166.02,1384.24 
  "/>
<path clip-path="url(#clip332)" d="
M1225.61 1384.24 L1225.61 1384.24 L1285.2 1384.24 L1285.2 1384.24 L1225.61 1384.24 L1225.61 1384.24  Z
  " fill="#009af9" fill-rule="evenodd" fill-opacity="1"/>
<polyline clip-path="url(#clip332)" style="stroke:#000000; stroke-width:4; stroke-opacity:1; fill:none" points="
  1225.61,1384.24 1225.61,1384.24 1285.2,1384.24 1225.61,1384.24 
  "/>
<path clip-path="url(#clip332)" d="
M1285.2 1383.09 L1285.2 1384.24 L1344.78 1384.24 L1344.78 1383.09 L1285.2 1383.09 L1285.2 1383.09  Z
  " fill="#009af9" fill-rule="evenodd" fill-opacity="1"/>
<polyline clip-path="url(#clip332)" style="stroke:#000000; stroke-width:4; stroke-opacity:1; fill:none" points="
  1285.2,1383.09 1285.2,1384.24 1344.78,1384.24 1344.78,1383.09 1285.2,1383.09 
  "/>
<path clip-path="url(#clip332)" d="
M1344.78 1384.24 L1344.78 1384.24 L1404.37 1384.24 L1404.37 1384.24 L1344.78 1384.24 L1344.78 1384.24  Z
  " fill="#009af9" fill-rule="evenodd" fill-opacity="1"/>
<polyline clip-path="url(#clip332)" style="stroke:#000000; stroke-width:4; stroke-opacity:1; fill:none" points="
  1344.78,1384.24 1344.78,1384.24 1404.37,1384.24 1344.78,1384.24 
  "/>
<path clip-path="url(#clip332)" d="
M1404.37 1384.17 L1404.37 1384.24 L1463.96 1384.24 L1463.96 1384.17 L1404.37 1384.17 L1404.37 1384.17  Z
  " fill="#009af9" fill-rule="evenodd" fill-opacity="1"/>
<polyline clip-path="url(#clip332)" style="stroke:#000000; stroke-width:4; stroke-opacity:1; fill:none" points="
  1404.37,1384.17 1404.37,1384.24 1463.96,1384.24 1463.96,1384.17 1404.37,1384.17 
  "/>
<path clip-path="url(#clip332)" d="
M1463.96 1384.24 L1463.96 1384.24 L1523.55 1384.24 L1523.55 1384.24 L1463.96 1384.24 L1463.96 1384.24  Z
  " fill="#009af9" fill-rule="evenodd" fill-opacity="1"/>
<polyline clip-path="url(#clip332)" style="stroke:#000000; stroke-width:4; stroke-opacity:1; fill:none" points="
  1463.96,1384.24 1463.96,1384.24 1523.55,1384.24 1463.96,1384.24 
  "/>
<path clip-path="url(#clip332)" d="
M1523.55 1384.24 L1523.55 1384.24 L1583.13 1384.24 L1583.13 1384.24 L1523.55 1384.24 L1523.55 1384.24  Z
  " fill="#009af9" fill-rule="evenodd" fill-opacity="1"/>
<polyline clip-path="url(#clip332)" style="stroke:#000000; stroke-width:4; stroke-opacity:1; fill:none" points="
  1523.55,1384.24 1523.55,1384.24 1583.13,1384.24 1523.55,1384.24 
  "/>
<path clip-path="url(#clip332)" d="
M1583.13 1384.08 L1583.13 1384.24 L1642.72 1384.24 L1642.72 1384.08 L1583.13 1384.08 L1583.13 1384.08  Z
  " fill="#009af9" fill-rule="evenodd" fill-opacity="1"/>
<polyline clip-path="url(#clip332)" style="stroke:#000000; stroke-width:4; stroke-opacity:1; fill:none" points="
  1583.13,1384.08 1583.13,1384.24 1642.72,1384.24 1642.72,1384.08 1583.13,1384.08 
  "/>
<path clip-path="url(#clip332)" d="
M1642.72 1384.24 L1642.72 1384.24 L1702.31 1384.24 L1702.31 1384.24 L1642.72 1384.24 L1642.72 1384.24  Z
  " fill="#009af9" fill-rule="evenodd" fill-opacity="1"/>
<polyline clip-path="url(#clip332)" style="stroke:#000000; stroke-width:4; stroke-opacity:1; fill:none" points="
  1642.72,1384.24 1642.72,1384.24 1702.31,1384.24 1642.72,1384.24 
  "/>
<path clip-path="url(#clip332)" d="
M1702.31 1384.24 L1702.31 1384.24 L1761.9 1384.24 L1761.9 1384.24 L1702.31 1384.24 L1702.31 1384.24  Z
  " fill="#009af9" fill-rule="evenodd" fill-opacity="1"/>
<polyline clip-path="url(#clip332)" style="stroke:#000000; stroke-width:4; stroke-opacity:1; fill:none" points="
  1702.31,1384.24 1702.31,1384.24 1761.9,1384.24 1702.31,1384.24 
  "/>
<path clip-path="url(#clip332)" d="
M1761.9 1384.24 L1761.9 1384.24 L1821.48 1384.24 L1821.48 1384.24 L1761.9 1384.24 L1761.9 1384.24  Z
  " fill="#009af9" fill-rule="evenodd" fill-opacity="1"/>
<polyline clip-path="url(#clip332)" style="stroke:#000000; stroke-width:4; stroke-opacity:1; fill:none" points="
  1761.9,1384.24 1761.9,1384.24 1821.48,1384.24 1761.9,1384.24 
  "/>
<path clip-path="url(#clip332)" d="
M1821.48 1384.24 L1821.48 1384.24 L1881.07 1384.24 L1881.07 1384.24 L1821.48 1384.24 L1821.48 1384.24  Z
  " fill="#009af9" fill-rule="evenodd" fill-opacity="1"/>
<polyline clip-path="url(#clip332)" style="stroke:#000000; stroke-width:4; stroke-opacity:1; fill:none" points="
  1821.48,1384.24 1821.48,1384.24 1881.07,1384.24 1821.48,1384.24 
  "/>
<path clip-path="url(#clip332)" d="
M1881.07 1384.19 L1881.07 1384.24 L1940.66 1384.24 L1940.66 1384.19 L1881.07 1384.19 L1881.07 1384.19  Z
  " fill="#009af9" fill-rule="evenodd" fill-opacity="1"/>
<polyline clip-path="url(#clip332)" style="stroke:#000000; stroke-width:4; stroke-opacity:1; fill:none" points="
  1881.07,1384.19 1881.07,1384.24 1940.66,1384.24 1940.66,1384.19 1881.07,1384.19 
  "/>
<path clip-path="url(#clip332)" d="
M1940.66 1384.24 L1940.66 1384.24 L2000.25 1384.24 L2000.25 1384.24 L1940.66 1384.24 L1940.66 1384.24  Z
  " fill="#009af9" fill-rule="evenodd" fill-opacity="1"/>
<polyline clip-path="url(#clip332)" style="stroke:#000000; stroke-width:4; stroke-opacity:1; fill:none" points="
  1940.66,1384.24 1940.66,1384.24 2000.25,1384.24 1940.66,1384.24 
  "/>
<path clip-path="url(#clip332)" d="
M2000.25 1384.24 L2000.25 1384.24 L2059.84 1384.24 L2059.84 1384.24 L2000.25 1384.24 L2000.25 1384.24  Z
  " fill="#009af9" fill-rule="evenodd" fill-opacity="1"/>
<polyline clip-path="url(#clip332)" style="stroke:#000000; stroke-width:4; stroke-opacity:1; fill:none" points="
  2000.25,1384.24 2000.25,1384.24 2059.84,1384.24 2000.25,1384.24 
  "/>
<path clip-path="url(#clip332)" d="
M2059.84 1384.24 L2059.84 1384.24 L2119.42 1384.24 L2119.42 1384.24 L2059.84 1384.24 L2059.84 1384.24  Z
  " fill="#009af9" fill-rule="evenodd" fill-opacity="1"/>
<polyline clip-path="url(#clip332)" style="stroke:#000000; stroke-width:4; stroke-opacity:1; fill:none" points="
  2059.84,1384.24 2059.84,1384.24 2119.42,1384.24 2059.84,1384.24 
  "/>
<path clip-path="url(#clip332)" d="
M2119.42 1384.24 L2119.42 1384.24 L2179.01 1384.24 L2179.01 1384.24 L2119.42 1384.24 L2119.42 1384.24  Z
  " fill="#009af9" fill-rule="evenodd" fill-opacity="1"/>
<polyline clip-path="url(#clip332)" style="stroke:#000000; stroke-width:4; stroke-opacity:1; fill:none" points="
  2119.42,1384.24 2119.42,1384.24 2179.01,1384.24 2119.42,1384.24 
  "/>
<path clip-path="url(#clip332)" d="
M2179.01 1384.23 L2179.01 1384.24 L2238.6 1384.24 L2238.6 1384.23 L2179.01 1384.23 L2179.01 1384.23  Z
  " fill="#009af9" fill-rule="evenodd" fill-opacity="1"/>
<polyline clip-path="url(#clip332)" style="stroke:#000000; stroke-width:4; stroke-opacity:1; fill:none" points="
  2179.01,1384.23 2179.01,1384.24 2238.6,1384.24 2238.6,1384.23 2179.01,1384.23 
  "/>
</svg>
