<?xml version="1.0" encoding="utf-8"?>
<svg xmlns="http://www.w3.org/2000/svg" xmlns:xlink="http://www.w3.org/1999/xlink" width="600" height="400" viewBox="0 0 2400 1600">
<defs>
  <clipPath id="clip090">
    <rect x="0" y="0" width="2400" height="1600"/>
  </clipPath>
</defs>
<path clip-path="url(#clip090)" d="
M0 1600 L2400 1600 L2400 0 L0 0  Z
  " fill="#ffffff" fill-rule="evenodd" fill-opacity="1"/>
<defs>
  <clipPath id="clip091">
    <rect x="480" y="0" width="1681" height="1600"/>
  </clipPath>
</defs>
<path clip-path="url(#clip090)" d="
M337.247 1423.18 L2352.76 1423.18 L2352.76 47.2441 L337.247 47.2441  Z
  " fill="#ffffff" fill-rule="evenodd" fill-opacity="1"/>
<defs>
  <clipPath id="clip092">
    <rect x="337" y="47" width="2017" height="1377"/>
  </clipPath>
</defs>
<polyline clip-path="url(#clip092)" style="stroke:#000000; stroke-width:2; stroke-opacity:0.1; fill:none" points="
  679.561,1423.18 679.561,47.2441 
  "/>
<polyline clip-path="url(#clip092)" style="stroke:#000000; stroke-width:2; stroke-opacity:0.1; fill:none" points="
  1026.75,1423.18 1026.75,47.2441 
  "/>
<polyline clip-path="url(#clip092)" style="stroke:#000000; stroke-width:2; stroke-opacity:0.1; fill:none" points="
  1373.93,1423.18 1373.93,47.2441 
  "/>
<polyline clip-path="url(#clip092)" style="stroke:#000000; stroke-width:2; stroke-opacity:0.1; fill:none" points="
  1721.12,1423.18 1721.12,47.2441 
  "/>
<polyline clip-path="url(#clip092)" style="stroke:#000000; stroke-width:2; stroke-opacity:0.1; fill:none" points="
  2068.31,1423.18 2068.31,47.2441 
  "/>
<polyline clip-path="url(#clip090)" style="stroke:#000000; stroke-width:4; stroke-opacity:1; fill:none" points="
  337.247,1423.18 2352.76,1423.18 
  "/>
<polyline clip-path="url(#clip090)" style="stroke:#000000; stroke-width:4; stroke-opacity:1; fill:none" points="
  679.561,1423.18 679.561,1406.67 
  "/>
<polyline clip-path="url(#clip090)" style="stroke:#000000; stroke-width:4; stroke-opacity:1; fill:none" points="
  1026.75,1423.18 1026.75,1406.67 
  "/>
<polyline clip-path="url(#clip090)" style="stroke:#000000; stroke-width:4; stroke-opacity:1; fill:none" points="
  1373.93,1423.18 1373.93,1406.67 
  "/>
<polyline clip-path="url(#clip090)" style="stroke:#000000; stroke-width:4; stroke-opacity:1; fill:none" points="
  1721.12,1423.18 1721.12,1406.67 
  "/>
<polyline clip-path="url(#clip090)" style="stroke:#000000; stroke-width:4; stroke-opacity:1; fill:none" points="
  2068.31,1423.18 2068.31,1406.67 
  "/>
<path clip-path="url(#clip090)" d="M 0 0 M627.235 1452.37 Q623.624 1452.37 621.795 1455.94 Q619.99 1459.48 619.99 1466.61 Q619.99 1473.71 621.795 1477.28 Q623.624 1480.82 627.235 1480.82 Q630.869 1480.82 632.675 1477.28 Q634.503 1473.71 634.503 1466.61 Q634.503 1459.48 632.675 1455.94 Q630.869 1452.37 627.235 1452.37 M627.235 1448.67 Q633.045 1448.67 636.101 1453.27 Q639.179 1457.86 639.179 1466.61 Q639.179 1475.33 636.101 1479.94 Q633.045 1484.52 627.235 1484.52 Q621.425 1484.52 618.346 1479.94 Q615.291 1475.33 615.291 1466.61 Q615.291 1457.86 618.346 1453.27 Q621.425 1448.67 627.235 1448.67 Z" fill="#000000" fill-rule="evenodd" fill-opacity="1" /><path clip-path="url(#clip090)" d="M 0 0 M647.397 1477.97 L652.281 1477.97 L652.281 1483.85 L647.397 1483.85 L647.397 1477.97 Z" fill="#000000" fill-rule="evenodd" fill-opacity="1" /><path clip-path="url(#clip090)" d="M 0 0 M662.605 1483.13 L662.605 1478.88 Q664.364 1479.71 666.17 1480.15 Q667.976 1480.59 669.712 1480.59 Q674.341 1480.59 676.772 1477.49 Q679.225 1474.36 679.573 1468.02 Q678.23 1470.01 676.17 1471.07 Q674.11 1472.14 671.61 1472.14 Q666.425 1472.14 663.392 1469.01 Q660.383 1465.87 660.383 1460.43 Q660.383 1455.1 663.531 1451.88 Q666.679 1448.67 671.911 1448.67 Q677.906 1448.67 681.054 1453.27 Q684.225 1457.86 684.225 1466.61 Q684.225 1474.78 680.337 1479.66 Q676.471 1484.52 669.92 1484.52 Q668.161 1484.52 666.355 1484.18 Q664.55 1483.83 662.605 1483.13 M671.911 1468.48 Q675.059 1468.48 676.887 1466.33 Q678.739 1464.18 678.739 1460.43 Q678.739 1456.7 676.887 1454.55 Q675.059 1452.37 671.911 1452.37 Q668.763 1452.37 666.911 1454.55 Q665.082 1456.7 665.082 1460.43 Q665.082 1464.18 666.911 1466.33 Q668.763 1468.48 671.911 1468.48 Z" fill="#000000" fill-rule="evenodd" fill-opacity="1" /><path clip-path="url(#clip090)" d="M 0 0 M702.628 1467.44 Q699.295 1467.44 697.374 1469.22 Q695.475 1471 695.475 1474.13 Q695.475 1477.25 697.374 1479.04 Q699.295 1480.82 702.628 1480.82 Q705.961 1480.82 707.883 1479.04 Q709.804 1477.23 709.804 1474.13 Q709.804 1471 707.883 1469.22 Q705.985 1467.44 702.628 1467.44 M697.952 1465.45 Q694.943 1464.71 693.253 1462.65 Q691.586 1460.59 691.586 1457.63 Q691.586 1453.48 694.526 1451.07 Q697.489 1448.67 702.628 1448.67 Q707.79 1448.67 710.73 1451.07 Q713.67 1453.48 713.67 1457.63 Q713.67 1460.59 711.98 1462.65 Q710.313 1464.71 707.327 1465.45 Q710.707 1466.24 712.582 1468.53 Q714.48 1470.82 714.48 1474.13 Q714.48 1479.15 711.401 1481.84 Q708.346 1484.52 702.628 1484.52 Q696.911 1484.52 693.832 1481.84 Q690.776 1479.15 690.776 1474.13 Q690.776 1470.82 692.674 1468.53 Q694.573 1466.24 697.952 1465.45 M696.239 1458.06 Q696.239 1460.75 697.906 1462.25 Q699.596 1463.76 702.628 1463.76 Q705.637 1463.76 707.327 1462.25 Q709.04 1460.75 709.04 1458.06 Q709.04 1455.38 707.327 1453.88 Q705.637 1452.37 702.628 1452.37 Q699.596 1452.37 697.906 1453.88 Q696.239 1455.38 696.239 1458.06 Z" fill="#000000" fill-rule="evenodd" fill-opacity="1" /><path clip-path="url(#clip090)" d="M 0 0 M721.609 1449.29 L743.832 1449.29 L743.832 1451.28 L731.285 1483.85 L726.401 1483.85 L738.207 1453.23 L721.609 1453.23 L721.609 1449.29 Z" fill="#000000" fill-rule="evenodd" fill-opacity="1" /><path clip-path="url(#clip090)" d="M 0 0 M973.97 1452.37 Q970.359 1452.37 968.53 1455.94 Q966.725 1459.48 966.725 1466.61 Q966.725 1473.71 968.53 1477.28 Q970.359 1480.82 973.97 1480.82 Q977.604 1480.82 979.41 1477.28 Q981.238 1473.71 981.238 1466.61 Q981.238 1459.48 979.41 1455.94 Q977.604 1452.37 973.97 1452.37 M973.97 1448.67 Q979.78 1448.67 982.836 1453.27 Q985.914 1457.86 985.914 1466.61 Q985.914 1475.33 982.836 1479.94 Q979.78 1484.52 973.97 1484.52 Q968.16 1484.52 965.081 1479.94 Q962.025 1475.33 962.025 1466.61 Q962.025 1457.86 965.081 1453.27 Q968.16 1448.67 973.97 1448.67 Z" fill="#000000" fill-rule="evenodd" fill-opacity="1" /><path clip-path="url(#clip090)" d="M 0 0 M994.132 1477.97 L999.016 1477.97 L999.016 1483.85 L994.132 1483.85 L994.132 1477.97 Z" fill="#000000" fill-rule="evenodd" fill-opacity="1" /><path clip-path="url(#clip090)" d="M 0 0 M1009.34 1483.13 L1009.34 1478.88 Q1011.1 1479.71 1012.9 1480.15 Q1014.71 1480.59 1016.45 1480.59 Q1021.08 1480.59 1023.51 1477.49 Q1025.96 1474.36 1026.31 1468.02 Q1024.96 1470.01 1022.9 1471.07 Q1020.84 1472.14 1018.34 1472.14 Q1013.16 1472.14 1010.13 1469.01 Q1007.12 1465.87 1007.12 1460.43 Q1007.12 1455.1 1010.27 1451.88 Q1013.41 1448.67 1018.65 1448.67 Q1024.64 1448.67 1027.79 1453.27 Q1030.96 1457.86 1030.96 1466.61 Q1030.96 1474.78 1027.07 1479.66 Q1023.21 1484.52 1016.65 1484.52 Q1014.9 1484.52 1013.09 1484.18 Q1011.28 1483.83 1009.34 1483.13 M1018.65 1468.48 Q1021.79 1468.48 1023.62 1466.33 Q1025.47 1464.18 1025.47 1460.43 Q1025.47 1456.7 1023.62 1454.55 Q1021.79 1452.37 1018.65 1452.37 Q1015.5 1452.37 1013.65 1454.55 Q1011.82 1456.7 1011.82 1460.43 Q1011.82 1464.18 1013.65 1466.33 Q1015.5 1468.48 1018.65 1468.48 Z" fill="#000000" fill-rule="evenodd" fill-opacity="1" /><path clip-path="url(#clip090)" d="M 0 0 M1039.5 1483.13 L1039.5 1478.88 Q1041.26 1479.71 1043.07 1480.15 Q1044.87 1480.59 1046.61 1480.59 Q1051.24 1480.59 1053.67 1477.49 Q1056.12 1474.36 1056.47 1468.02 Q1055.13 1470.01 1053.07 1471.07 Q1051.01 1472.14 1048.51 1472.14 Q1043.32 1472.14 1040.29 1469.01 Q1037.28 1465.87 1037.28 1460.43 Q1037.28 1455.1 1040.43 1451.88 Q1043.58 1448.67 1048.81 1448.67 Q1054.8 1448.67 1057.95 1453.27 Q1061.12 1457.86 1061.12 1466.61 Q1061.12 1474.78 1057.23 1479.66 Q1053.37 1484.52 1046.82 1484.52 Q1045.06 1484.52 1043.25 1484.18 Q1041.45 1483.83 1039.5 1483.13 M1048.81 1468.48 Q1051.96 1468.48 1053.78 1466.33 Q1055.64 1464.18 1055.64 1460.43 Q1055.64 1456.7 1053.78 1454.55 Q1051.96 1452.37 1048.81 1452.37 Q1045.66 1452.37 1043.81 1454.55 Q1041.98 1456.7 1041.98 1460.43 Q1041.98 1464.18 1043.81 1466.33 Q1045.66 1468.48 1048.81 1468.48 Z" fill="#000000" fill-rule="evenodd" fill-opacity="1" /><path clip-path="url(#clip090)" d="M 0 0 M1079.52 1452.37 Q1075.91 1452.37 1074.09 1455.94 Q1072.28 1459.48 1072.28 1466.61 Q1072.28 1473.71 1074.09 1477.28 Q1075.91 1480.82 1079.52 1480.82 Q1083.16 1480.82 1084.96 1477.28 Q1086.79 1473.71 1086.79 1466.61 Q1086.79 1459.48 1084.96 1455.94 Q1083.16 1452.37 1079.52 1452.37 M1079.52 1448.67 Q1085.34 1448.67 1088.39 1453.27 Q1091.47 1457.86 1091.47 1466.61 Q1091.47 1475.33 1088.39 1479.94 Q1085.34 1484.52 1079.52 1484.52 Q1073.71 1484.52 1070.64 1479.94 Q1067.58 1475.33 1067.58 1466.61 Q1067.58 1457.86 1070.64 1453.27 Q1073.71 1448.67 1079.52 1448.67 Z" fill="#000000" fill-rule="evenodd" fill-opacity="1" /><path clip-path="url(#clip090)" d="M 0 0 M1321.48 1452.37 Q1317.87 1452.37 1316.04 1455.94 Q1314.23 1459.48 1314.23 1466.61 Q1314.23 1473.71 1316.04 1477.28 Q1317.87 1480.82 1321.48 1480.82 Q1325.11 1480.82 1326.92 1477.28 Q1328.75 1473.71 1328.75 1466.61 Q1328.75 1459.48 1326.92 1455.94 Q1325.11 1452.37 1321.48 1452.37 M1321.48 1448.67 Q1327.29 1448.67 1330.35 1453.27 Q1333.42 1457.86 1333.42 1466.61 Q1333.42 1475.33 1330.35 1479.94 Q1327.29 1484.52 1321.48 1484.52 Q1315.67 1484.52 1312.59 1479.94 Q1309.54 1475.33 1309.54 1466.61 Q1309.54 1457.86 1312.59 1453.27 Q1315.67 1448.67 1321.48 1448.67 Z" fill="#000000" fill-rule="evenodd" fill-opacity="1" /><path clip-path="url(#clip090)" d="M 0 0 M1341.64 1477.97 L1346.53 1477.97 L1346.53 1483.85 L1341.64 1483.85 L1341.64 1477.97 Z" fill="#000000" fill-rule="evenodd" fill-opacity="1" /><path clip-path="url(#clip090)" d="M 0 0 M1356.85 1483.13 L1356.85 1478.88 Q1358.61 1479.71 1360.42 1480.15 Q1362.22 1480.59 1363.96 1480.59 Q1368.59 1480.59 1371.02 1477.49 Q1373.47 1474.36 1373.82 1468.02 Q1372.48 1470.01 1370.42 1471.07 Q1368.35 1472.14 1365.85 1472.14 Q1360.67 1472.14 1357.64 1469.01 Q1354.63 1465.87 1354.63 1460.43 Q1354.63 1455.1 1357.78 1451.88 Q1360.92 1448.67 1366.16 1448.67 Q1372.15 1448.67 1375.3 1453.27 Q1378.47 1457.86 1378.47 1466.61 Q1378.47 1474.78 1374.58 1479.66 Q1370.72 1484.52 1364.17 1484.52 Q1362.41 1484.52 1360.6 1484.18 Q1358.79 1483.83 1356.85 1483.13 M1366.16 1468.48 Q1369.3 1468.48 1371.13 1466.33 Q1372.98 1464.18 1372.98 1460.43 Q1372.98 1456.7 1371.13 1454.55 Q1369.3 1452.37 1366.16 1452.37 Q1363.01 1452.37 1361.16 1454.55 Q1359.33 1456.7 1359.33 1460.43 Q1359.33 1464.18 1361.16 1466.33 Q1363.01 1468.48 1366.16 1468.48 Z" fill="#000000" fill-rule="evenodd" fill-opacity="1" /><path clip-path="url(#clip090)" d="M 0 0 M1387.01 1483.13 L1387.01 1478.88 Q1388.77 1479.71 1390.58 1480.15 Q1392.38 1480.59 1394.12 1480.59 Q1398.75 1480.59 1401.18 1477.49 Q1403.63 1474.36 1403.98 1468.02 Q1402.64 1470.01 1400.58 1471.07 Q1398.52 1472.14 1396.02 1472.14 Q1390.83 1472.14 1387.8 1469.01 Q1384.79 1465.87 1384.79 1460.43 Q1384.79 1455.1 1387.94 1451.88 Q1391.09 1448.67 1396.32 1448.67 Q1402.31 1448.67 1405.46 1453.27 Q1408.63 1457.86 1408.63 1466.61 Q1408.63 1474.78 1404.74 1479.66 Q1400.88 1484.52 1394.33 1484.52 Q1392.57 1484.52 1390.76 1484.18 Q1388.96 1483.83 1387.01 1483.13 M1396.32 1468.48 Q1399.47 1468.48 1401.29 1466.33 Q1403.15 1464.18 1403.15 1460.43 Q1403.15 1456.7 1401.29 1454.55 Q1399.47 1452.37 1396.32 1452.37 Q1393.17 1452.37 1391.32 1454.55 Q1389.49 1456.7 1389.49 1460.43 Q1389.49 1464.18 1391.32 1466.33 Q1393.17 1468.48 1396.32 1468.48 Z" fill="#000000" fill-rule="evenodd" fill-opacity="1" /><path clip-path="url(#clip090)" d="M 0 0 M1431.2 1465.22 Q1434.56 1465.94 1436.43 1468.2 Q1438.33 1470.47 1438.33 1473.81 Q1438.33 1478.92 1434.81 1481.72 Q1431.29 1484.52 1424.81 1484.52 Q1422.64 1484.52 1420.32 1484.08 Q1418.03 1483.67 1415.58 1482.81 L1415.58 1478.3 Q1417.52 1479.43 1419.84 1480.01 Q1422.15 1480.59 1424.67 1480.59 Q1429.07 1480.59 1431.36 1478.85 Q1433.68 1477.12 1433.68 1473.81 Q1433.68 1470.75 1431.53 1469.04 Q1429.4 1467.3 1425.58 1467.3 L1421.55 1467.3 L1421.55 1463.46 L1425.76 1463.46 Q1429.21 1463.46 1431.04 1462.09 Q1432.87 1460.7 1432.87 1458.11 Q1432.87 1455.45 1430.97 1454.04 Q1429.1 1452.6 1425.58 1452.6 Q1423.66 1452.6 1421.46 1453.02 Q1419.26 1453.44 1416.62 1454.31 L1416.62 1450.15 Q1419.28 1449.41 1421.6 1449.04 Q1423.93 1448.67 1425.99 1448.67 Q1431.32 1448.67 1434.42 1451.1 Q1437.52 1453.5 1437.52 1457.63 Q1437.52 1460.5 1435.88 1462.49 Q1434.23 1464.45 1431.2 1465.22 Z" fill="#000000" fill-rule="evenodd" fill-opacity="1" /><path clip-path="url(#clip090)" d="M 0 0 M1668.26 1452.37 Q1664.65 1452.37 1662.82 1455.94 Q1661.02 1459.48 1661.02 1466.61 Q1661.02 1473.71 1662.82 1477.28 Q1664.65 1480.82 1668.26 1480.82 Q1671.9 1480.82 1673.7 1477.28 Q1675.53 1473.71 1675.53 1466.61 Q1675.53 1459.48 1673.7 1455.94 Q1671.9 1452.37 1668.26 1452.37 M1668.26 1448.67 Q1674.07 1448.67 1677.13 1453.27 Q1680.21 1457.86 1680.21 1466.61 Q1680.21 1475.33 1677.13 1479.94 Q1674.07 1484.52 1668.26 1484.52 Q1662.45 1484.52 1659.37 1479.94 Q1656.32 1475.33 1656.32 1466.61 Q1656.32 1457.86 1659.37 1453.27 Q1662.45 1448.67 1668.26 1448.67 Z" fill="#000000" fill-rule="evenodd" fill-opacity="1" /><path clip-path="url(#clip090)" d="M 0 0 M1688.42 1477.97 L1693.31 1477.97 L1693.31 1483.85 L1688.42 1483.85 L1688.42 1477.97 Z" fill="#000000" fill-rule="evenodd" fill-opacity="1" /><path clip-path="url(#clip090)" d="M 0 0 M1703.63 1483.13 L1703.63 1478.88 Q1705.39 1479.71 1707.2 1480.15 Q1709 1480.59 1710.74 1480.59 Q1715.37 1480.59 1717.8 1477.49 Q1720.25 1474.36 1720.6 1468.02 Q1719.26 1470.01 1717.2 1471.07 Q1715.14 1472.14 1712.64 1472.14 Q1707.45 1472.14 1704.42 1469.01 Q1701.41 1465.87 1701.41 1460.43 Q1701.41 1455.1 1704.56 1451.88 Q1707.71 1448.67 1712.94 1448.67 Q1718.93 1448.67 1722.08 1453.27 Q1725.25 1457.86 1725.25 1466.61 Q1725.25 1474.78 1721.36 1479.66 Q1717.5 1484.52 1710.95 1484.52 Q1709.19 1484.52 1707.38 1484.18 Q1705.58 1483.83 1703.63 1483.13 M1712.94 1468.48 Q1716.09 1468.48 1717.91 1466.33 Q1719.77 1464.18 1719.77 1460.43 Q1719.77 1456.7 1717.91 1454.55 Q1716.09 1452.37 1712.94 1452.37 Q1709.79 1452.37 1707.94 1454.55 Q1706.11 1456.7 1706.11 1460.43 Q1706.11 1464.18 1707.94 1466.33 Q1709.79 1468.48 1712.94 1468.48 Z" fill="#000000" fill-rule="evenodd" fill-opacity="1" /><path clip-path="url(#clip090)" d="M 0 0 M1733.79 1483.13 L1733.79 1478.88 Q1735.55 1479.71 1737.36 1480.15 Q1739.16 1480.59 1740.9 1480.59 Q1745.53 1480.59 1747.96 1477.49 Q1750.41 1474.36 1750.76 1468.02 Q1749.42 1470.01 1747.36 1471.07 Q1745.3 1472.14 1742.8 1472.14 Q1737.61 1472.14 1734.58 1469.01 Q1731.57 1465.87 1731.57 1460.43 Q1731.57 1455.1 1734.72 1451.88 Q1737.87 1448.67 1743.1 1448.67 Q1749.09 1448.67 1752.24 1453.27 Q1755.41 1457.86 1755.41 1466.61 Q1755.41 1474.78 1751.52 1479.66 Q1747.66 1484.52 1741.11 1484.52 Q1739.35 1484.52 1737.54 1484.18 Q1735.74 1483.83 1733.79 1483.13 M1743.1 1468.48 Q1746.25 1468.48 1748.08 1466.33 Q1749.93 1464.18 1749.93 1460.43 Q1749.93 1456.7 1748.08 1454.55 Q1746.25 1452.37 1743.1 1452.37 Q1739.95 1452.37 1738.1 1454.55 Q1736.27 1456.7 1736.27 1460.43 Q1736.27 1464.18 1738.1 1466.33 Q1739.95 1468.48 1743.1 1468.48 Z" fill="#000000" fill-rule="evenodd" fill-opacity="1" /><path clip-path="url(#clip090)" d="M 0 0 M1774.4 1464.71 Q1771.25 1464.71 1769.4 1466.86 Q1767.57 1469.01 1767.57 1472.76 Q1767.57 1476.49 1769.4 1478.67 Q1771.25 1480.82 1774.4 1480.82 Q1777.54 1480.82 1779.37 1478.67 Q1781.22 1476.49 1781.22 1472.76 Q1781.22 1469.01 1779.37 1466.86 Q1777.54 1464.71 1774.4 1464.71 M1783.68 1450.06 L1783.68 1454.31 Q1781.92 1453.48 1780.11 1453.04 Q1778.33 1452.6 1776.57 1452.6 Q1771.94 1452.6 1769.49 1455.73 Q1767.06 1458.85 1766.71 1465.17 Q1768.08 1463.16 1770.14 1462.09 Q1772.2 1461 1774.67 1461 Q1779.88 1461 1782.89 1464.18 Q1785.92 1467.32 1785.92 1472.76 Q1785.92 1478.09 1782.77 1481.31 Q1779.63 1484.52 1774.4 1484.52 Q1768.4 1484.52 1765.23 1479.94 Q1762.06 1475.33 1762.06 1466.61 Q1762.06 1458.41 1765.95 1453.55 Q1769.83 1448.67 1776.39 1448.67 Q1778.15 1448.67 1779.93 1449.01 Q1781.73 1449.36 1783.68 1450.06 Z" fill="#000000" fill-rule="evenodd" fill-opacity="1" /><path clip-path="url(#clip090)" d="M 0 0 M2015.62 1452.37 Q2012.01 1452.37 2010.18 1455.94 Q2008.38 1459.48 2008.38 1466.61 Q2008.38 1473.71 2010.18 1477.28 Q2012.01 1480.82 2015.62 1480.82 Q2019.26 1480.82 2021.06 1477.28 Q2022.89 1473.71 2022.89 1466.61 Q2022.89 1459.48 2021.06 1455.94 Q2019.26 1452.37 2015.62 1452.37 M2015.62 1448.67 Q2021.43 1448.67 2024.49 1453.27 Q2027.57 1457.86 2027.57 1466.61 Q2027.57 1475.33 2024.49 1479.94 Q2021.43 1484.52 2015.62 1484.52 Q2009.81 1484.52 2006.73 1479.94 Q2003.68 1475.33 2003.68 1466.61 Q2003.68 1457.86 2006.73 1453.27 Q2009.81 1448.67 2015.62 1448.67 Z" fill="#000000" fill-rule="evenodd" fill-opacity="1" /><path clip-path="url(#clip090)" d="M 0 0 M2035.78 1477.97 L2040.67 1477.97 L2040.67 1483.85 L2035.78 1483.85 L2035.78 1477.97 Z" fill="#000000" fill-rule="evenodd" fill-opacity="1" /><path clip-path="url(#clip090)" d="M 0 0 M2050.99 1483.13 L2050.99 1478.88 Q2052.75 1479.71 2054.56 1480.15 Q2056.36 1480.59 2058.1 1480.59 Q2062.73 1480.59 2065.16 1477.49 Q2067.61 1474.36 2067.96 1468.02 Q2066.62 1470.01 2064.56 1471.07 Q2062.5 1472.14 2060 1472.14 Q2054.81 1472.14 2051.78 1469.01 Q2048.77 1465.87 2048.77 1460.43 Q2048.77 1455.1 2051.92 1451.88 Q2055.07 1448.67 2060.3 1448.67 Q2066.29 1448.67 2069.44 1453.27 Q2072.61 1457.86 2072.61 1466.61 Q2072.61 1474.78 2068.72 1479.66 Q2064.86 1484.52 2058.31 1484.52 Q2056.55 1484.52 2054.74 1484.18 Q2052.94 1483.83 2050.99 1483.13 M2060.3 1468.48 Q2063.45 1468.48 2065.27 1466.33 Q2067.13 1464.18 2067.13 1460.43 Q2067.13 1456.7 2065.27 1454.55 Q2063.45 1452.37 2060.3 1452.37 Q2057.15 1452.37 2055.3 1454.55 Q2053.47 1456.7 2053.47 1460.43 Q2053.47 1464.18 2055.3 1466.33 Q2057.15 1468.48 2060.3 1468.48 Z" fill="#000000" fill-rule="evenodd" fill-opacity="1" /><path clip-path="url(#clip090)" d="M 0 0 M2081.15 1483.13 L2081.15 1478.88 Q2082.91 1479.71 2084.72 1480.15 Q2086.52 1480.59 2088.26 1480.59 Q2092.89 1480.59 2095.32 1477.49 Q2097.77 1474.36 2098.12 1468.02 Q2096.78 1470.01 2094.72 1471.07 Q2092.66 1472.14 2090.16 1472.14 Q2084.97 1472.14 2081.94 1469.01 Q2078.93 1465.87 2078.93 1460.43 Q2078.93 1455.1 2082.08 1451.88 Q2085.23 1448.67 2090.46 1448.67 Q2096.45 1448.67 2099.6 1453.27 Q2102.77 1457.86 2102.77 1466.61 Q2102.77 1474.78 2098.88 1479.66 Q2095.02 1484.52 2088.47 1484.52 Q2086.71 1484.52 2084.9 1484.18 Q2083.1 1483.83 2081.15 1483.13 M2090.46 1468.48 Q2093.61 1468.48 2095.44 1466.33 Q2097.29 1464.18 2097.29 1460.43 Q2097.29 1456.7 2095.44 1454.55 Q2093.61 1452.37 2090.46 1452.37 Q2087.31 1452.37 2085.46 1454.55 Q2083.63 1456.7 2083.63 1460.43 Q2083.63 1464.18 2085.46 1466.33 Q2087.31 1468.48 2090.46 1468.48 Z" fill="#000000" fill-rule="evenodd" fill-opacity="1" /><path clip-path="url(#clip090)" d="M 0 0 M2111.32 1483.13 L2111.32 1478.88 Q2113.07 1479.71 2114.88 1480.15 Q2116.69 1480.59 2118.42 1480.59 Q2123.05 1480.59 2125.48 1477.49 Q2127.94 1474.36 2128.28 1468.02 Q2126.94 1470.01 2124.88 1471.07 Q2122.82 1472.14 2120.32 1472.14 Q2115.13 1472.14 2112.1 1469.01 Q2109.09 1465.87 2109.09 1460.43 Q2109.09 1455.1 2112.24 1451.88 Q2115.39 1448.67 2120.62 1448.67 Q2126.62 1448.67 2129.76 1453.27 Q2132.94 1457.86 2132.94 1466.61 Q2132.94 1474.78 2129.05 1479.66 Q2125.18 1484.52 2118.63 1484.52 Q2116.87 1484.52 2115.07 1484.18 Q2113.26 1483.83 2111.32 1483.13 M2120.62 1468.48 Q2123.77 1468.48 2125.6 1466.33 Q2127.45 1464.18 2127.45 1460.43 Q2127.45 1456.7 2125.6 1454.55 Q2123.77 1452.37 2120.62 1452.37 Q2117.47 1452.37 2115.62 1454.55 Q2113.79 1456.7 2113.79 1460.43 Q2113.79 1464.18 2115.62 1466.33 Q2117.47 1468.48 2120.62 1468.48 Z" fill="#000000" fill-rule="evenodd" fill-opacity="1" /><path clip-path="url(#clip090)" d="M 0 0 M1007.25 1562.7 L1007.25 1581.6 L1001.36 1581.6 L1001.36 1532.4 L1007.25 1532.4 L1007.25 1537.81 Q1009.1 1534.62 1011.9 1533.1 Q1014.73 1531.54 1018.65 1531.54 Q1025.14 1531.54 1029.18 1536.69 Q1033.26 1541.85 1033.26 1550.25 Q1033.26 1558.65 1029.18 1563.81 Q1025.14 1568.97 1018.65 1568.97 Q1014.73 1568.97 1011.9 1567.44 Q1009.1 1565.88 1007.25 1562.7 M1027.18 1550.25 Q1027.18 1543.79 1024.5 1540.13 Q1021.86 1536.44 1017.22 1536.44 Q1012.57 1536.44 1009.89 1540.13 Q1007.25 1543.79 1007.25 1550.25 Q1007.25 1556.71 1009.89 1560.4 Q1012.57 1564.07 1017.22 1564.07 Q1021.86 1564.07 1024.5 1560.4 Q1027.18 1556.71 1027.18 1550.25 Z" fill="#000000" fill-rule="evenodd" fill-opacity="1" /><path clip-path="url(#clip090)" d="M 0 0 M1073.46 1548.76 L1073.46 1551.62 L1046.53 1551.62 Q1046.91 1557.67 1050.16 1560.85 Q1053.44 1564 1059.26 1564 Q1062.63 1564 1065.79 1563.17 Q1068.97 1562.35 1072.09 1560.69 L1072.09 1566.23 Q1068.94 1567.57 1065.63 1568.27 Q1062.32 1568.97 1058.91 1568.97 Q1050.38 1568.97 1045.38 1564 Q1040.42 1559.04 1040.42 1550.57 Q1040.42 1541.82 1045.13 1536.69 Q1049.87 1531.54 1057.89 1531.54 Q1065.09 1531.54 1069.25 1536.18 Q1073.46 1540.8 1073.46 1548.76 M1067.6 1547.04 Q1067.54 1542.23 1064.89 1539.37 Q1062.28 1536.5 1057.96 1536.5 Q1053.05 1536.5 1050.09 1539.27 Q1047.17 1542.04 1046.72 1547.07 L1067.6 1547.04 Z" fill="#000000" fill-rule="evenodd" fill-opacity="1" /><path clip-path="url(#clip090)" d="M 0 0 M1103.73 1537.87 Q1102.74 1537.3 1101.56 1537.04 Q1100.42 1536.76 1099.01 1536.76 Q1094.05 1536.76 1091.38 1540 Q1088.73 1543.22 1088.73 1549.27 L1088.73 1568.04 L1082.85 1568.04 L1082.85 1532.4 L1088.73 1532.4 L1088.73 1537.93 Q1090.58 1534.69 1093.54 1533.13 Q1096.5 1531.54 1100.73 1531.54 Q1101.34 1531.54 1102.07 1531.63 Q1102.8 1531.7 1103.69 1531.85 L1103.73 1537.87 Z" fill="#000000" fill-rule="evenodd" fill-opacity="1" /><path clip-path="url(#clip090)" d="M 0 0 M1102.74 1547.58 L1119.89 1547.58 L1119.89 1552.8 L1102.74 1552.8 L1102.74 1547.58 Z" fill="#000000" fill-rule="evenodd" fill-opacity="1" /><path clip-path="url(#clip090)" d="M 0 0 M1157.96 1522.08 L1157.96 1528.35 Q1154.3 1526.6 1151.05 1525.74 Q1147.81 1524.88 1144.78 1524.88 Q1139.53 1524.88 1136.67 1526.92 Q1133.84 1528.96 1133.84 1532.71 Q1133.84 1535.87 1135.71 1537.49 Q1137.62 1539.08 1142.91 1540.07 L1146.79 1540.86 Q1153.98 1542.23 1157.39 1545.7 Q1160.83 1549.14 1160.83 1554.93 Q1160.83 1561.84 1156.18 1565.4 Q1151.56 1568.97 1142.62 1568.97 Q1139.25 1568.97 1135.43 1568.2 Q1131.64 1567.44 1127.56 1565.94 L1127.56 1559.32 Q1131.48 1561.52 1135.24 1562.63 Q1138.99 1563.75 1142.62 1563.75 Q1148.13 1563.75 1151.12 1561.58 Q1154.11 1559.42 1154.11 1555.41 Q1154.11 1551.91 1151.95 1549.93 Q1149.81 1547.96 1144.91 1546.97 L1141 1546.21 Q1133.8 1544.78 1130.59 1541.72 Q1127.37 1538.67 1127.37 1533.22 Q1127.37 1526.92 1131.8 1523.29 Q1136.25 1519.66 1144.05 1519.66 Q1147.39 1519.66 1150.86 1520.27 Q1154.33 1520.87 1157.96 1522.08 Z" fill="#000000" fill-rule="evenodd" fill-opacity="1" /><path clip-path="url(#clip090)" d="M 0 0 M1170.85 1520.52 L1179.51 1520.52 L1200.58 1560.28 L1200.58 1520.52 L1206.82 1520.52 L1206.82 1568.04 L1198.16 1568.04 L1177.09 1528.29 L1177.09 1568.04 L1170.85 1568.04 L1170.85 1520.52 Z" fill="#000000" fill-rule="evenodd" fill-opacity="1" /><path clip-path="url(#clip090)" d="M 0 0 M1226.04 1525.81 L1226.04 1543.66 L1234.13 1543.66 Q1238.61 1543.66 1241.07 1541.34 Q1243.52 1539.02 1243.52 1534.72 Q1243.52 1530.45 1241.07 1528.13 Q1238.61 1525.81 1234.13 1525.81 L1226.04 1525.81 M1219.61 1520.52 L1234.13 1520.52 Q1242.12 1520.52 1246.19 1524.15 Q1250.3 1527.75 1250.3 1534.72 Q1250.3 1541.75 1246.19 1545.35 Q1242.12 1548.95 1234.13 1548.95 L1226.04 1548.95 L1226.04 1568.04 L1219.61 1568.04 L1219.61 1520.52 Z" fill="#000000" fill-rule="evenodd" fill-opacity="1" /><path clip-path="url(#clip090)" d="M 0 0 M1282.89 1550.25 Q1282.89 1556.71 1285.53 1560.4 Q1288.2 1564.07 1292.85 1564.07 Q1297.5 1564.07 1300.17 1560.4 Q1302.84 1556.71 1302.84 1550.25 Q1302.84 1543.79 1300.17 1540.13 Q1297.5 1536.44 1292.85 1536.44 Q1288.2 1536.44 1285.53 1540.13 Q1282.89 1543.79 1282.89 1550.25 M1302.84 1562.7 Q1301 1565.88 1298.17 1567.44 Q1295.36 1568.97 1291.42 1568.97 Q1284.96 1568.97 1280.88 1563.81 Q1276.84 1558.65 1276.84 1550.25 Q1276.84 1541.85 1280.88 1536.69 Q1284.96 1531.54 1291.42 1531.54 Q1295.36 1531.54 1298.17 1533.1 Q1301 1534.62 1302.84 1537.81 L1302.84 1532.4 L1308.7 1532.4 L1308.7 1581.6 L1302.84 1581.6 L1302.84 1562.7 Z" fill="#000000" fill-rule="evenodd" fill-opacity="1" /><path clip-path="url(#clip090)" d="M 0 0 M1320.16 1553.98 L1320.16 1532.4 L1326.02 1532.4 L1326.02 1553.75 Q1326.02 1558.81 1327.99 1561.36 Q1329.96 1563.87 1333.91 1563.87 Q1338.65 1563.87 1341.39 1560.85 Q1344.16 1557.83 1344.16 1552.61 L1344.16 1532.4 L1350.01 1532.4 L1350.01 1568.04 L1344.16 1568.04 L1344.16 1562.57 Q1342.03 1565.82 1339.19 1567.41 Q1336.39 1568.97 1332.67 1568.97 Q1326.52 1568.97 1323.34 1565.15 Q1320.16 1561.33 1320.16 1553.98 M1334.9 1531.54 L1334.9 1531.54 Z" fill="#000000" fill-rule="evenodd" fill-opacity="1" /><path clip-path="url(#clip090)" d="M 0 0 M1378.28 1550.12 Q1371.18 1550.12 1368.44 1551.75 Q1365.71 1553.37 1365.71 1557.29 Q1365.71 1560.4 1367.74 1562.25 Q1369.81 1564.07 1373.34 1564.07 Q1378.21 1564.07 1381.14 1560.63 Q1384.1 1557.16 1384.1 1551.43 L1384.1 1550.12 L1378.28 1550.12 M1389.96 1547.71 L1389.96 1568.04 L1384.1 1568.04 L1384.1 1562.63 Q1382.1 1565.88 1379.11 1567.44 Q1376.11 1568.97 1371.79 1568.97 Q1366.31 1568.97 1363.06 1565.91 Q1359.85 1562.82 1359.85 1557.67 Q1359.85 1551.65 1363.86 1548.6 Q1367.9 1545.54 1375.89 1545.54 L1384.1 1545.54 L1384.1 1544.97 Q1384.1 1540.93 1381.43 1538.73 Q1378.79 1536.5 1373.98 1536.5 Q1370.93 1536.5 1368.03 1537.23 Q1365.13 1537.97 1362.46 1539.43 L1362.46 1534.02 Q1365.67 1532.78 1368.7 1532.17 Q1371.72 1531.54 1374.59 1531.54 Q1382.32 1531.54 1386.14 1535.55 Q1389.96 1539.56 1389.96 1547.71 Z" fill="#000000" fill-rule="evenodd" fill-opacity="1" /><path clip-path="url(#clip090)" d="M 0 0 M1402.02 1518.52 L1407.88 1518.52 L1407.88 1568.04 L1402.02 1568.04 L1402.02 1518.52 Z" fill="#000000" fill-rule="evenodd" fill-opacity="1" /><path clip-path="url(#clip090)" d="M 0 0 M1420.13 1532.4 L1425.99 1532.4 L1425.99 1568.04 L1420.13 1568.04 L1420.13 1532.4 M1420.13 1518.52 L1425.99 1518.52 L1425.99 1525.93 L1420.13 1525.93 L1420.13 1518.52 Z" fill="#000000" fill-rule="evenodd" fill-opacity="1" /><path clip-path="url(#clip090)" d="M 0 0 M1444.04 1522.27 L1444.04 1532.4 L1456.1 1532.4 L1456.1 1536.95 L1444.04 1536.95 L1444.04 1556.3 Q1444.04 1560.66 1445.21 1561.9 Q1446.42 1563.14 1450.08 1563.14 L1456.1 1563.14 L1456.1 1568.04 L1450.08 1568.04 Q1443.3 1568.04 1440.73 1565.53 Q1438.15 1562.98 1438.15 1556.3 L1438.15 1536.95 L1433.85 1536.95 L1433.85 1532.4 L1438.15 1532.4 L1438.15 1522.27 L1444.04 1522.27 Z" fill="#000000" fill-rule="evenodd" fill-opacity="1" /><path clip-path="url(#clip090)" d="M 0 0 M1478.63 1571.35 Q1476.15 1577.72 1473.8 1579.66 Q1471.44 1581.6 1467.49 1581.6 L1462.81 1581.6 L1462.81 1576.7 L1466.25 1576.7 Q1468.67 1576.7 1470.01 1575.56 Q1471.34 1574.41 1472.97 1570.14 L1474.02 1567.47 L1459.6 1532.4 L1465.81 1532.4 L1476.95 1560.28 L1488.09 1532.4 L1494.29 1532.4 L1478.63 1571.35 Z" fill="#000000" fill-rule="evenodd" fill-opacity="1" /><path clip-path="url(#clip090)" d="M 0 0 M1545.82 1533.45 L1545.82 1538.98 Q1543.34 1537.71 1540.67 1537.07 Q1537.99 1536.44 1535.13 1536.44 Q1530.77 1536.44 1528.57 1537.77 Q1526.41 1539.11 1526.41 1541.79 Q1526.41 1543.82 1527.97 1545 Q1529.53 1546.15 1534.24 1547.2 L1536.24 1547.64 Q1542.48 1548.98 1545.09 1551.43 Q1547.73 1553.85 1547.73 1558.21 Q1547.73 1563.17 1543.79 1566.07 Q1539.87 1568.97 1533 1568.97 Q1530.13 1568.97 1527.01 1568.39 Q1523.93 1567.85 1520.49 1566.74 L1520.49 1560.69 Q1523.73 1562.38 1526.89 1563.24 Q1530.04 1564.07 1533.12 1564.07 Q1537.26 1564.07 1539.49 1562.66 Q1541.72 1561.23 1541.72 1558.65 Q1541.72 1556.27 1540.09 1554.99 Q1538.5 1553.72 1533.06 1552.54 L1531.02 1552.07 Q1525.58 1550.92 1523.16 1548.56 Q1520.74 1546.18 1520.74 1542.04 Q1520.74 1537.01 1524.31 1534.27 Q1527.87 1531.54 1534.43 1531.54 Q1537.68 1531.54 1540.54 1532.01 Q1543.4 1532.49 1545.82 1533.45 Z" fill="#000000" fill-rule="evenodd" fill-opacity="1" /><path clip-path="url(#clip090)" d="M 0 0 M1582.71 1533.76 L1582.71 1539.24 Q1580.23 1537.87 1577.72 1537.2 Q1575.23 1536.5 1572.69 1536.5 Q1566.99 1536.5 1563.84 1540.13 Q1560.69 1543.73 1560.69 1550.25 Q1560.69 1556.78 1563.84 1560.4 Q1566.99 1564 1572.69 1564 Q1575.23 1564 1577.72 1563.33 Q1580.23 1562.63 1582.71 1561.26 L1582.71 1566.68 Q1580.26 1567.82 1577.62 1568.39 Q1575.01 1568.97 1572.05 1568.97 Q1564 1568.97 1559.26 1563.91 Q1554.51 1558.85 1554.51 1550.25 Q1554.51 1541.53 1559.29 1536.53 Q1564.09 1531.54 1572.43 1531.54 Q1575.14 1531.54 1577.72 1532.11 Q1580.29 1532.65 1582.71 1533.76 Z" fill="#000000" fill-rule="evenodd" fill-opacity="1" /><path clip-path="url(#clip090)" d="M 0 0 M1606.71 1536.5 Q1602 1536.5 1599.26 1540.19 Q1596.53 1543.85 1596.53 1550.25 Q1596.53 1556.65 1599.23 1560.34 Q1601.97 1564 1606.71 1564 Q1611.39 1564 1614.13 1560.31 Q1616.86 1556.62 1616.86 1550.25 Q1616.86 1543.92 1614.13 1540.23 Q1611.39 1536.5 1606.71 1536.5 M1606.71 1531.54 Q1614.35 1531.54 1618.71 1536.5 Q1623.07 1541.47 1623.07 1550.25 Q1623.07 1559 1618.71 1564 Q1614.35 1568.97 1606.71 1568.97 Q1599.04 1568.97 1594.68 1564 Q1590.35 1559 1590.35 1550.25 Q1590.35 1541.47 1594.68 1536.5 Q1599.04 1531.54 1606.71 1531.54 Z" fill="#000000" fill-rule="evenodd" fill-opacity="1" /><path clip-path="url(#clip090)" d="M 0 0 M1653.44 1537.87 Q1652.45 1537.3 1651.27 1537.04 Q1650.13 1536.76 1648.73 1536.76 Q1643.76 1536.76 1641.09 1540 Q1638.44 1543.22 1638.44 1549.27 L1638.44 1568.04 L1632.56 1568.04 L1632.56 1532.4 L1638.44 1532.4 L1638.44 1537.93 Q1640.29 1534.69 1643.25 1533.13 Q1646.21 1531.54 1650.44 1531.54 Q1651.05 1531.54 1651.78 1531.63 Q1652.51 1531.7 1653.4 1531.85 L1653.44 1537.87 Z" fill="#000000" fill-rule="evenodd" fill-opacity="1" /><path clip-path="url(#clip090)" d="M 0 0 M1688.64 1548.76 L1688.64 1551.62 L1661.71 1551.62 Q1662.09 1557.67 1665.34 1560.85 Q1668.62 1564 1674.44 1564 Q1677.82 1564 1680.97 1563.17 Q1684.15 1562.35 1687.27 1560.69 L1687.27 1566.23 Q1684.12 1567.57 1680.81 1568.27 Q1677.5 1568.97 1674.09 1568.97 Q1665.56 1568.97 1660.57 1564 Q1655.6 1559.04 1655.6 1550.57 Q1655.6 1541.82 1660.31 1536.69 Q1665.05 1531.54 1673.07 1531.54 Q1680.27 1531.54 1684.44 1536.18 Q1688.64 1540.8 1688.64 1548.76 M1682.78 1547.04 Q1682.72 1542.23 1680.08 1539.37 Q1677.47 1536.5 1673.14 1536.5 Q1668.24 1536.5 1665.28 1539.27 Q1662.35 1542.04 1661.9 1547.07 L1682.78 1547.04 Z" fill="#000000" fill-rule="evenodd" fill-opacity="1" /><polyline clip-path="url(#clip092)" style="stroke:#000000; stroke-width:2; stroke-opacity:0.1; fill:none" points="
  337.247,1384.24 2352.76,1384.24 
  "/>
<polyline clip-path="url(#clip092)" style="stroke:#000000; stroke-width:2; stroke-opacity:0.1; fill:none" points="
  337.247,992.234 2352.76,992.234 
  "/>
<polyline clip-path="url(#clip092)" style="stroke:#000000; stroke-width:2; stroke-opacity:0.1; fill:none" points="
  337.247,600.229 2352.76,600.229 
  "/>
<polyline clip-path="url(#clip092)" style="stroke:#000000; stroke-width:2; stroke-opacity:0.1; fill:none" points="
  337.247,208.225 2352.76,208.225 
  "/>
<polyline clip-path="url(#clip090)" style="stroke:#000000; stroke-width:4; stroke-opacity:1; fill:none" points="
  337.247,1423.18 337.247,47.2441 
  "/>
<polyline clip-path="url(#clip090)" style="stroke:#000000; stroke-width:4; stroke-opacity:1; fill:none" points="
  337.247,1384.24 361.433,1384.24 
  "/>
<polyline clip-path="url(#clip090)" style="stroke:#000000; stroke-width:4; stroke-opacity:1; fill:none" points="
  337.247,992.234 361.433,992.234 
  "/>
<polyline clip-path="url(#clip090)" style="stroke:#000000; stroke-width:4; stroke-opacity:1; fill:none" points="
  337.247,600.229 361.433,600.229 
  "/>
<polyline clip-path="url(#clip090)" style="stroke:#000000; stroke-width:4; stroke-opacity:1; fill:none" points="
  337.247,208.225 361.433,208.225 
  "/>
<path clip-path="url(#clip090)" d="M 0 0 M289.303 1370.04 Q285.692 1370.04 283.863 1373.6 Q282.057 1377.14 282.057 1384.27 Q282.057 1391.38 283.863 1394.94 Q285.692 1398.49 289.303 1398.49 Q292.937 1398.49 294.742 1394.94 Q296.571 1391.38 296.571 1384.27 Q296.571 1377.14 294.742 1373.6 Q292.937 1370.04 289.303 1370.04 M289.303 1366.33 Q295.113 1366.33 298.168 1370.94 Q301.247 1375.52 301.247 1384.27 Q301.247 1393 298.168 1397.61 Q295.113 1402.19 289.303 1402.19 Q283.492 1402.19 280.414 1397.61 Q277.358 1393 277.358 1384.27 Q277.358 1375.52 280.414 1370.94 Q283.492 1366.33 289.303 1366.33 Z" fill="#000000" fill-rule="evenodd" fill-opacity="1" /><path clip-path="url(#clip090)" d="M 0 0 M116.668 1012.03 L124.306 1012.03 L124.306 985.661 L115.996 987.327 L115.996 983.068 L124.26 981.401 L128.936 981.401 L128.936 1012.03 L136.575 1012.03 L136.575 1015.96 L116.668 1015.96 L116.668 1012.03 Z" fill="#000000" fill-rule="evenodd" fill-opacity="1" /><path clip-path="url(#clip090)" d="M 0 0 M146.019 1010.08 L150.903 1010.08 L150.903 1015.96 L146.019 1015.96 L146.019 1010.08 Z" fill="#000000" fill-rule="evenodd" fill-opacity="1" /><path clip-path="url(#clip090)" d="M 0 0 M171.089 984.48 Q167.477 984.48 165.649 988.045 Q163.843 991.586 163.843 998.716 Q163.843 1005.82 165.649 1009.39 Q167.477 1012.93 171.089 1012.93 Q174.723 1012.93 176.528 1009.39 Q178.357 1005.82 178.357 998.716 Q178.357 991.586 176.528 988.045 Q174.723 984.48 171.089 984.48 M171.089 980.776 Q176.899 980.776 179.954 985.383 Q183.033 989.966 183.033 998.716 Q183.033 1007.44 179.954 1012.05 Q176.899 1016.63 171.089 1016.63 Q165.278 1016.63 162.2 1012.05 Q159.144 1007.44 159.144 998.716 Q159.144 989.966 162.2 985.383 Q165.278 980.776 171.089 980.776 Z" fill="#000000" fill-rule="evenodd" fill-opacity="1" /><path clip-path="url(#clip090)" d="M 0 0 M219.422 990.498 L208.843 1001.12 L219.422 1011.7 L216.667 1014.5 L206.042 1003.88 L195.417 1014.5 L192.686 1011.7 L203.241 1001.12 L192.686 990.498 L195.417 987.698 L206.042 998.322 L216.667 987.698 L219.422 990.498 Z" fill="#000000" fill-rule="evenodd" fill-opacity="1" /><path clip-path="url(#clip090)" d="M 0 0 M231.783 1012.03 L239.422 1012.03 L239.422 985.661 L231.111 987.327 L231.111 983.068 L239.375 981.401 L244.051 981.401 L244.051 1012.03 L251.69 1012.03 L251.69 1015.96 L231.783 1015.96 L231.783 1012.03 Z" fill="#000000" fill-rule="evenodd" fill-opacity="1" /><path clip-path="url(#clip090)" d="M 0 0 M271.134 984.48 Q267.523 984.48 265.695 988.045 Q263.889 991.586 263.889 998.716 Q263.889 1005.82 265.695 1009.39 Q267.523 1012.93 271.134 1012.93 Q274.769 1012.93 276.574 1009.39 Q278.403 1005.82 278.403 998.716 Q278.403 991.586 276.574 988.045 Q274.769 984.48 271.134 984.48 M271.134 980.776 Q276.944 980.776 280 985.383 Q283.079 989.966 283.079 998.716 Q283.079 1007.44 280 1012.05 Q276.944 1016.63 271.134 1016.63 Q265.324 1016.63 262.245 1012.05 Q259.19 1007.44 259.19 998.716 Q259.19 989.966 262.245 985.383 Q265.324 980.776 271.134 980.776 Z" fill="#000000" fill-rule="evenodd" fill-opacity="1" /><path clip-path="url(#clip090)" d="M 0 0 M284.264 960.471 L299.178 960.471 L299.178 963.668 L287.743 963.668 L287.743 970.552 Q288.571 970.27 289.398 970.138 Q290.226 969.988 291.053 969.988 Q295.755 969.988 298.501 972.564 Q301.247 975.141 301.247 979.542 Q301.247 984.075 298.426 986.595 Q295.605 989.096 290.47 989.096 Q288.702 989.096 286.859 988.795 Q285.035 988.494 283.079 987.893 L283.079 984.075 Q284.771 984.996 286.577 985.448 Q288.382 985.899 290.395 985.899 Q293.649 985.899 295.548 984.187 Q297.448 982.476 297.448 979.542 Q297.448 976.608 295.548 974.896 Q293.649 973.185 290.395 973.185 Q288.871 973.185 287.348 973.523 Q285.843 973.862 284.264 974.577 L284.264 960.471 Z" fill="#000000" fill-rule="evenodd" fill-opacity="1" /><path clip-path="url(#clip090)" d="M 0 0 M119.885 620.022 L136.204 620.022 L136.204 623.957 L114.26 623.957 L114.26 620.022 Q116.922 617.267 121.505 612.637 Q126.112 607.985 127.292 606.642 Q129.538 604.119 130.417 602.383 Q131.32 600.624 131.32 598.934 Q131.32 596.179 129.376 594.443 Q127.455 592.707 124.353 592.707 Q122.154 592.707 119.7 593.471 Q117.269 594.235 114.492 595.786 L114.492 591.063 Q117.316 589.929 119.769 589.35 Q122.223 588.772 124.26 588.772 Q129.63 588.772 132.825 591.457 Q136.019 594.142 136.019 598.633 Q136.019 600.762 135.209 602.684 Q134.422 604.582 132.316 607.174 Q131.737 607.846 128.635 611.063 Q125.533 614.258 119.885 620.022 Z" fill="#000000" fill-rule="evenodd" fill-opacity="1" /><path clip-path="url(#clip090)" d="M 0 0 M146.019 618.077 L150.903 618.077 L150.903 623.957 L146.019 623.957 L146.019 618.077 Z" fill="#000000" fill-rule="evenodd" fill-opacity="1" /><path clip-path="url(#clip090)" d="M 0 0 M171.089 592.475 Q167.477 592.475 165.649 596.04 Q163.843 599.582 163.843 606.711 Q163.843 613.818 165.649 617.383 Q167.477 620.924 171.089 620.924 Q174.723 620.924 176.528 617.383 Q178.357 613.818 178.357 606.711 Q178.357 599.582 176.528 596.04 Q174.723 592.475 171.089 592.475 M171.089 588.772 Q176.899 588.772 179.954 593.378 Q183.033 597.961 183.033 606.711 Q183.033 615.438 179.954 620.045 Q176.899 624.628 171.089 624.628 Q165.278 624.628 162.2 620.045 Q159.144 615.438 159.144 606.711 Q159.144 597.961 162.2 593.378 Q165.278 588.772 171.089 588.772 Z" fill="#000000" fill-rule="evenodd" fill-opacity="1" /><path clip-path="url(#clip090)" d="M 0 0 M219.422 598.494 L208.843 609.119 L219.422 619.697 L216.667 622.498 L206.042 611.873 L195.417 622.498 L192.686 619.697 L203.241 609.119 L192.686 598.494 L195.417 595.693 L206.042 606.318 L216.667 595.693 L219.422 598.494 Z" fill="#000000" fill-rule="evenodd" fill-opacity="1" /><path clip-path="url(#clip090)" d="M 0 0 M231.783 620.022 L239.422 620.022 L239.422 593.656 L231.111 595.323 L231.111 591.063 L239.375 589.397 L244.051 589.397 L244.051 620.022 L251.69 620.022 L251.69 623.957 L231.783 623.957 L231.783 620.022 Z" fill="#000000" fill-rule="evenodd" fill-opacity="1" /><path clip-path="url(#clip090)" d="M 0 0 M271.134 592.475 Q267.523 592.475 265.695 596.04 Q263.889 599.582 263.889 606.711 Q263.889 613.818 265.695 617.383 Q267.523 620.924 271.134 620.924 Q274.769 620.924 276.574 617.383 Q278.403 613.818 278.403 606.711 Q278.403 599.582 276.574 596.04 Q274.769 592.475 271.134 592.475 M271.134 588.772 Q276.944 588.772 280 593.378 Q283.079 597.961 283.079 606.711 Q283.079 615.438 280 620.045 Q276.944 624.628 271.134 624.628 Q265.324 624.628 262.245 620.045 Q259.19 615.438 259.19 606.711 Q259.19 597.961 262.245 593.378 Q265.324 588.772 271.134 588.772 Z" fill="#000000" fill-rule="evenodd" fill-opacity="1" /><path clip-path="url(#clip090)" d="M 0 0 M284.264 568.466 L299.178 568.466 L299.178 571.664 L287.743 571.664 L287.743 578.547 Q288.571 578.265 289.398 578.134 Q290.226 577.983 291.053 577.983 Q295.755 577.983 298.501 580.56 Q301.247 583.136 301.247 587.537 Q301.247 592.07 298.426 594.59 Q295.605 597.092 290.47 597.092 Q288.702 597.092 286.859 596.791 Q285.035 596.49 283.079 595.888 L283.079 592.07 Q284.771 592.992 286.577 593.443 Q288.382 593.894 290.395 593.894 Q293.649 593.894 295.548 592.183 Q297.448 590.471 297.448 587.537 Q297.448 584.603 295.548 582.892 Q293.649 581.18 290.395 581.18 Q288.871 581.18 287.348 581.519 Q285.843 581.857 284.264 582.572 L284.264 568.466 Z" fill="#000000" fill-rule="evenodd" fill-opacity="1" /><path clip-path="url(#clip090)" d="M 0 0 M130.024 213.318 Q133.38 214.036 135.255 216.304 Q137.154 218.573 137.154 221.906 Q137.154 227.022 133.635 229.823 Q130.117 232.623 123.635 232.623 Q121.459 232.623 119.144 232.184 Q116.853 231.767 114.399 230.91 L114.399 226.397 Q116.343 227.531 118.658 228.11 Q120.973 228.688 123.496 228.688 Q127.894 228.688 130.186 226.952 Q132.501 225.216 132.501 221.906 Q132.501 218.85 130.348 217.137 Q128.218 215.401 124.399 215.401 L120.371 215.401 L120.371 211.559 L124.584 211.559 Q128.033 211.559 129.862 210.193 Q131.691 208.804 131.691 206.212 Q131.691 203.55 129.792 202.137 Q127.917 200.702 124.399 200.702 Q122.478 200.702 120.279 201.119 Q118.08 201.536 115.441 202.415 L115.441 198.249 Q118.103 197.508 120.418 197.138 Q122.755 196.767 124.816 196.767 Q130.14 196.767 133.242 199.198 Q136.343 201.605 136.343 205.725 Q136.343 208.596 134.7 210.587 Q133.056 212.554 130.024 213.318 Z" fill="#000000" fill-rule="evenodd" fill-opacity="1" /><path clip-path="url(#clip090)" d="M 0 0 M146.019 226.073 L150.903 226.073 L150.903 231.952 L146.019 231.952 L146.019 226.073 Z" fill="#000000" fill-rule="evenodd" fill-opacity="1" /><path clip-path="url(#clip090)" d="M 0 0 M171.089 200.471 Q167.477 200.471 165.649 204.036 Q163.843 207.577 163.843 214.707 Q163.843 221.813 165.649 225.378 Q167.477 228.92 171.089 228.92 Q174.723 228.92 176.528 225.378 Q178.357 221.813 178.357 214.707 Q178.357 207.577 176.528 204.036 Q174.723 200.471 171.089 200.471 M171.089 196.767 Q176.899 196.767 179.954 201.374 Q183.033 205.957 183.033 214.707 Q183.033 223.434 179.954 228.04 Q176.899 232.623 171.089 232.623 Q165.278 232.623 162.2 228.04 Q159.144 223.434 159.144 214.707 Q159.144 205.957 162.2 201.374 Q165.278 196.767 171.089 196.767 Z" fill="#000000" fill-rule="evenodd" fill-opacity="1" /><path clip-path="url(#clip090)" d="M 0 0 M219.422 206.489 L208.843 217.114 L219.422 227.693 L216.667 230.494 L206.042 219.869 L195.417 230.494 L192.686 227.693 L203.241 217.114 L192.686 206.489 L195.417 203.688 L206.042 214.313 L216.667 203.688 L219.422 206.489 Z" fill="#000000" fill-rule="evenodd" fill-opacity="1" /><path clip-path="url(#clip090)" d="M 0 0 M231.783 228.017 L239.422 228.017 L239.422 201.651 L231.111 203.318 L231.111 199.059 L239.375 197.392 L244.051 197.392 L244.051 228.017 L251.69 228.017 L251.69 231.952 L231.783 231.952 L231.783 228.017 Z" fill="#000000" fill-rule="evenodd" fill-opacity="1" /><path clip-path="url(#clip090)" d="M 0 0 M271.134 200.471 Q267.523 200.471 265.695 204.036 Q263.889 207.577 263.889 214.707 Q263.889 221.813 265.695 225.378 Q267.523 228.92 271.134 228.92 Q274.769 228.92 276.574 225.378 Q278.403 221.813 278.403 214.707 Q278.403 207.577 276.574 204.036 Q274.769 200.471 271.134 200.471 M271.134 196.767 Q276.944 196.767 280 201.374 Q283.079 205.957 283.079 214.707 Q283.079 223.434 280 228.04 Q276.944 232.623 271.134 232.623 Q265.324 232.623 262.245 228.04 Q259.19 223.434 259.19 214.707 Q259.19 205.957 262.245 201.374 Q265.324 196.767 271.134 196.767 Z" fill="#000000" fill-rule="evenodd" fill-opacity="1" /><path clip-path="url(#clip090)" d="M 0 0 M284.264 176.462 L299.178 176.462 L299.178 179.659 L287.743 179.659 L287.743 186.543 Q288.571 186.261 289.398 186.129 Q290.226 185.978 291.053 185.978 Q295.755 185.978 298.501 188.555 Q301.247 191.132 301.247 195.533 Q301.247 200.065 298.426 202.586 Q295.605 205.087 290.47 205.087 Q288.702 205.087 286.859 204.786 Q285.035 204.485 283.079 203.883 L283.079 200.065 Q284.771 200.987 286.577 201.438 Q288.382 201.89 290.395 201.89 Q293.649 201.89 295.548 200.178 Q297.448 198.467 297.448 195.533 Q297.448 192.599 295.548 190.887 Q293.649 189.176 290.395 189.176 Q288.871 189.176 287.348 189.514 Q285.843 189.853 284.264 190.568 L284.264 176.462 Z" fill="#000000" fill-rule="evenodd" fill-opacity="1" /><path clip-path="url(#clip090)" d="M 0 0 M18.0438 884.902 L24.314 884.902 Q22.5634 888.562 21.704 891.808 Q20.8447 895.055 20.8447 898.079 Q20.8447 903.33 22.8817 906.195 Q24.9187 909.028 28.6745 909.028 Q31.8255 909.028 33.4488 907.15 Q35.0402 905.24 36.0269 899.956 L36.8226 896.073 Q38.1912 888.88 41.6605 885.474 Q45.098 882.037 50.8908 882.037 Q57.7976 882.037 61.3624 886.684 Q64.9272 891.299 64.9272 900.243 Q64.9272 903.617 64.1633 907.436 Q63.3994 911.224 61.9035 915.298 L55.2831 915.298 Q57.4793 911.383 58.5933 907.627 Q59.7073 903.871 59.7073 900.243 Q59.7073 894.737 57.543 891.745 Q55.3786 888.753 51.3682 888.753 Q47.8671 888.753 45.8937 890.917 Q43.9204 893.05 42.9337 897.951 L42.1698 901.866 Q40.7375 909.059 37.682 912.274 Q34.6264 915.489 29.1837 915.489 Q22.8817 915.489 19.2532 911.065 Q15.6248 906.609 15.6248 898.811 Q15.6248 895.469 16.2295 891.999 Q16.8343 888.53 18.0438 884.902 Z" fill="#000000" fill-rule="evenodd" fill-opacity="1" /><path clip-path="url(#clip090)" d="M 0 0 M16.4842 872.011 L16.4842 863.354 L56.238 842.283 L16.4842 842.283 L16.4842 836.045 L64.0042 836.045 L64.0042 844.702 L24.2503 865.773 L64.0042 865.773 L64.0042 872.011 L16.4842 872.011 Z" fill="#000000" fill-rule="evenodd" fill-opacity="1" /><path clip-path="url(#clip090)" d="M 0 0 M21.7677 816.82 L39.6235 816.82 L39.6235 808.736 Q39.6235 804.248 37.3 801.797 Q34.9765 799.346 30.6797 799.346 Q26.4147 799.346 24.0912 801.797 Q21.7677 804.248 21.7677 808.736 L21.7677 816.82 M16.4842 823.25 L16.4842 808.736 Q16.4842 800.747 20.1126 796.673 Q23.7092 792.567 30.6797 792.567 Q37.7138 792.567 41.3104 796.673 Q44.907 800.747 44.907 808.736 L44.907 816.82 L64.0042 816.82 L64.0042 823.25 L16.4842 823.25 Z" fill="#000000" fill-rule="evenodd" fill-opacity="1" /><path clip-path="url(#clip090)" d="M 0 0 M29.7248 737.822 L35.1993 737.822 Q33.8307 740.305 33.1623 742.819 Q32.4621 745.302 32.4621 747.848 Q32.4621 753.545 36.0905 756.696 Q39.6872 759.847 46.212 759.847 Q52.7369 759.847 56.3653 756.696 Q59.9619 753.545 59.9619 747.848 Q59.9619 745.302 59.2935 742.819 Q58.5933 740.305 57.2247 737.822 L62.6355 737.822 Q63.7814 740.273 64.3543 742.914 Q64.9272 745.524 64.9272 748.484 Q64.9272 756.537 59.8664 761.28 Q54.8057 766.022 46.212 766.022 Q37.491 766.022 32.4939 761.248 Q27.4968 756.442 27.4968 748.103 Q27.4968 745.397 28.0697 742.819 Q28.6108 740.241 29.7248 737.822 Z" fill="#000000" fill-rule="evenodd" fill-opacity="1" /><path clip-path="url(#clip090)" d="M 0 0 M32.4621 713.823 Q32.4621 718.534 36.1542 721.271 Q39.8145 724.008 46.212 724.008 Q52.6095 724.008 56.3017 721.303 Q59.9619 718.566 59.9619 713.823 Q59.9619 709.144 56.2698 706.407 Q52.5777 703.67 46.212 703.67 Q39.8781 703.67 36.186 706.407 Q32.4621 709.144 32.4621 713.823 M27.4968 713.823 Q27.4968 706.184 32.4621 701.824 Q37.4273 697.463 46.212 697.463 Q54.9649 697.463 59.9619 701.824 Q64.9272 706.184 64.9272 713.823 Q64.9272 721.494 59.9619 725.854 Q54.9649 730.183 46.212 730.183 Q37.4273 730.183 32.4621 725.854 Q27.4968 721.494 27.4968 713.823 Z" fill="#000000" fill-rule="evenodd" fill-opacity="1" /><path clip-path="url(#clip090)" d="M 0 0 M49.9359 688.36 L28.3562 688.36 L28.3562 682.504 L49.7131 682.504 Q54.7739 682.504 57.3202 680.531 Q59.8346 678.557 59.8346 674.61 Q59.8346 669.868 56.8109 667.131 Q53.7872 664.362 48.5673 664.362 L28.3562 664.362 L28.3562 658.505 L64.0042 658.505 L64.0042 664.362 L58.5296 664.362 Q61.7762 666.494 63.3676 669.327 Q64.9272 672.128 64.9272 675.852 Q64.9272 681.995 61.1078 685.178 Q57.2883 688.36 49.9359 688.36 M27.4968 673.624 L27.4968 673.624 Z" fill="#000000" fill-rule="evenodd" fill-opacity="1" /><path clip-path="url(#clip090)" d="M 0 0 M42.4881 616.81 L64.0042 616.81 L64.0042 622.666 L42.679 622.666 Q37.6183 622.666 35.1038 624.64 Q32.5894 626.613 32.5894 630.56 Q32.5894 635.302 35.6131 638.039 Q38.6368 640.777 43.8567 640.777 L64.0042 640.777 L64.0042 646.665 L28.3562 646.665 L28.3562 640.777 L33.8944 640.777 Q30.6797 638.676 29.0883 635.843 Q27.4968 632.979 27.4968 629.255 Q27.4968 623.112 31.3163 619.961 Q35.1038 616.81 42.4881 616.81 Z" fill="#000000" fill-rule="evenodd" fill-opacity="1" /><path clip-path="url(#clip090)" d="M 0 0 M18.2347 599.336 L28.3562 599.336 L28.3562 587.273 L32.9077 587.273 L32.9077 599.336 L52.2594 599.336 Q56.6199 599.336 57.8613 598.158 Q59.1026 596.949 59.1026 593.289 L59.1026 587.273 L64.0042 587.273 L64.0042 593.289 Q64.0042 600.068 61.4897 602.646 Q58.9434 605.224 52.2594 605.224 L32.9077 605.224 L32.9077 609.521 L28.3562 609.521 L28.3562 605.224 L18.2347 605.224 L18.2347 599.336 Z" fill="#000000" fill-rule="evenodd" fill-opacity="1" /><path clip-path="url(#clip090)" d="M 0 0 M29.4065 556.845 L34.9447 556.845 Q33.6716 559.327 33.035 562.001 Q32.3984 564.675 32.3984 567.539 Q32.3984 571.9 33.7352 574.096 Q35.072 576.26 37.7456 576.26 Q39.7826 576.26 40.9603 574.701 Q42.1061 573.141 43.1565 568.43 L43.6021 566.425 Q44.9389 560.187 47.3897 557.577 Q49.8086 554.935 54.1691 554.935 Q59.1344 554.935 62.0308 558.882 Q64.9272 562.797 64.9272 569.672 Q64.9272 572.536 64.3543 575.656 Q63.8132 578.743 62.6992 582.18 L56.6518 582.18 Q58.3387 578.934 59.198 575.783 Q60.0256 572.632 60.0256 569.544 Q60.0256 565.407 58.6251 563.179 Q57.1929 560.951 54.6147 560.951 Q52.2276 560.951 50.9545 562.574 Q49.6813 564.165 48.5037 569.608 L48.0262 571.645 Q46.8804 577.088 44.5251 579.507 Q42.138 581.926 38.0002 581.926 Q32.9713 581.926 30.2341 578.361 Q27.4968 574.796 27.4968 568.239 Q27.4968 564.993 27.9743 562.128 Q28.4517 559.264 29.4065 556.845 Z" fill="#000000" fill-rule="evenodd" fill-opacity="1" /><path clip-path="url(#clip092)" d="
M448.104 1384.23 L448.104 1384.24 L505.968 1384.24 L505.968 1384.23 L448.104 1384.23 L448.104 1384.23  Z
  " fill="#009af9" fill-rule="evenodd" fill-opacity="1"/>
<polyline clip-path="url(#clip092)" style="stroke:#000000; stroke-width:4; stroke-opacity:1; fill:none" points="
  448.104,1384.23 448.104,1384.24 505.968,1384.24 505.968,1384.23 448.104,1384.23 
  "/>
<path clip-path="url(#clip092)" d="
M505.968 1384.24 L505.968 1384.24 L563.832 1384.24 L563.832 1384.24 L505.968 1384.24 L505.968 1384.24  Z
  " fill="#009af9" fill-rule="evenodd" fill-opacity="1"/>
<polyline clip-path="url(#clip092)" style="stroke:#000000; stroke-width:4; stroke-opacity:1; fill:none" points="
  505.968,1384.24 505.968,1384.24 563.832,1384.24 505.968,1384.24 
  "/>
<path clip-path="url(#clip092)" d="
M563.832 1384.24 L563.832 1384.24 L621.697 1384.24 L621.697 1384.24 L563.832 1384.24 L563.832 1384.24  Z
  " fill="#009af9" fill-rule="evenodd" fill-opacity="1"/>
<polyline clip-path="url(#clip092)" style="stroke:#000000; stroke-width:4; stroke-opacity:1; fill:none" points="
  563.832,1384.24 563.832,1384.24 621.697,1384.24 563.832,1384.24 
  "/>
<path clip-path="url(#clip092)" d="
M621.697 1384.24 L621.697 1384.24 L679.561 1384.24 L679.561 1384.24 L621.697 1384.24 L621.697 1384.24  Z
  " fill="#009af9" fill-rule="evenodd" fill-opacity="1"/>
<polyline clip-path="url(#clip092)" style="stroke:#000000; stroke-width:4; stroke-opacity:1; fill:none" points="
  621.697,1384.24 621.697,1384.24 679.561,1384.24 621.697,1384.24 
  "/>
<path clip-path="url(#clip092)" d="
M679.561 1384.23 L679.561 1384.24 L737.425 1384.24 L737.425 1384.23 L679.561 1384.23 L679.561 1384.23  Z
  " fill="#009af9" fill-rule="evenodd" fill-opacity="1"/>
<polyline clip-path="url(#clip092)" style="stroke:#000000; stroke-width:4; stroke-opacity:1; fill:none" points="
  679.561,1384.23 679.561,1384.24 737.425,1384.24 737.425,1384.23 679.561,1384.23 
  "/>
<path clip-path="url(#clip092)" d="
M737.425 1384.24 L737.425 1384.24 L795.29 1384.24 L795.29 1384.24 L737.425 1384.24 L737.425 1384.24  Z
  " fill="#009af9" fill-rule="evenodd" fill-opacity="1"/>
<polyline clip-path="url(#clip092)" style="stroke:#000000; stroke-width:4; stroke-opacity:1; fill:none" points="
  737.425,1384.24 737.425,1384.24 795.29,1384.24 737.425,1384.24 
  "/>
<path clip-path="url(#clip092)" d="
M795.29 1384.2 L795.29 1384.24 L853.154 1384.24 L853.154 1384.2 L795.29 1384.2 L795.29 1384.2  Z
  " fill="#009af9" fill-rule="evenodd" fill-opacity="1"/>
<polyline clip-path="url(#clip092)" style="stroke:#000000; stroke-width:4; stroke-opacity:1; fill:none" points="
  795.29,1384.2 795.29,1384.24 853.154,1384.24 853.154,1384.2 795.29,1384.2 
  "/>
<path clip-path="url(#clip092)" d="
M853.154 1384.24 L853.154 1384.24 L911.019 1384.24 L911.019 1384.24 L853.154 1384.24 L853.154 1384.24  Z
  " fill="#009af9" fill-rule="evenodd" fill-opacity="1"/>
<polyline clip-path="url(#clip092)" style="stroke:#000000; stroke-width:4; stroke-opacity:1; fill:none" points="
  853.154,1384.24 853.154,1384.24 911.019,1384.24 853.154,1384.24 
  "/>
<path clip-path="url(#clip092)" d="
M911.019 1384.24 L911.019 1384.24 L968.883 1384.24 L968.883 1384.24 L911.019 1384.24 L911.019 1384.24  Z
  " fill="#009af9" fill-rule="evenodd" fill-opacity="1"/>
<polyline clip-path="url(#clip092)" style="stroke:#000000; stroke-width:4; stroke-opacity:1; fill:none" points="
  911.019,1384.24 911.019,1384.24 968.883,1384.24 911.019,1384.24 
  "/>
<path clip-path="url(#clip092)" d="
M968.883 1384.24 L968.883 1384.24 L1026.75 1384.24 L1026.75 1384.24 L968.883 1384.24 L968.883 1384.24  Z
  " fill="#009af9" fill-rule="evenodd" fill-opacity="1"/>
<polyline clip-path="url(#clip092)" style="stroke:#000000; stroke-width:4; stroke-opacity:1; fill:none" points="
  968.883,1384.24 968.883,1384.24 1026.75,1384.24 968.883,1384.24 
  "/>
<path clip-path="url(#clip092)" d="
M1026.75 1384.08 L1026.75 1384.24 L1084.61 1384.24 L1084.61 1384.08 L1026.75 1384.08 L1026.75 1384.08  Z
  " fill="#009af9" fill-rule="evenodd" fill-opacity="1"/>
<polyline clip-path="url(#clip092)" style="stroke:#000000; stroke-width:4; stroke-opacity:1; fill:none" points="
  1026.75,1384.08 1026.75,1384.24 1084.61,1384.24 1084.61,1384.08 1026.75,1384.08 
  "/>
<path clip-path="url(#clip092)" d="
M1084.61 1384.24 L1084.61 1384.24 L1142.48 1384.24 L1142.48 1384.24 L1084.61 1384.24 L1084.61 1384.24  Z
  " fill="#009af9" fill-rule="evenodd" fill-opacity="1"/>
<polyline clip-path="url(#clip092)" style="stroke:#000000; stroke-width:4; stroke-opacity:1; fill:none" points="
  1084.61,1384.24 1084.61,1384.24 1142.48,1384.24 1084.61,1384.24 
  "/>
<path clip-path="url(#clip092)" d="
M1142.48 1384.17 L1142.48 1384.24 L1200.34 1384.24 L1200.34 1384.17 L1142.48 1384.17 L1142.48 1384.17  Z
  " fill="#009af9" fill-rule="evenodd" fill-opacity="1"/>
<polyline clip-path="url(#clip092)" style="stroke:#000000; stroke-width:4; stroke-opacity:1; fill:none" points="
  1142.48,1384.17 1142.48,1384.24 1200.34,1384.24 1200.34,1384.17 1142.48,1384.17 
  "/>
<path clip-path="url(#clip092)" d="
M1200.34 1384.24 L1200.34 1384.24 L1258.2 1384.24 L1258.2 1384.24 L1200.34 1384.24 L1200.34 1384.24  Z
  " fill="#009af9" fill-rule="evenodd" fill-opacity="1"/>
<polyline clip-path="url(#clip092)" style="stroke:#000000; stroke-width:4; stroke-opacity:1; fill:none" points="
  1200.34,1384.24 1200.34,1384.24 1258.2,1384.24 1200.34,1384.24 
  "/>
<path clip-path="url(#clip092)" d="
M1258.2 1383.1 L1258.2 1384.24 L1316.07 1384.24 L1316.07 1383.1 L1258.2 1383.1 L1258.2 1383.1  Z
  " fill="#009af9" fill-rule="evenodd" fill-opacity="1"/>
<polyline clip-path="url(#clip092)" style="stroke:#000000; stroke-width:4; stroke-opacity:1; fill:none" points="
  1258.2,1383.1 1258.2,1384.24 1316.07,1384.24 1316.07,1383.1 1258.2,1383.1 
  "/>
<path clip-path="url(#clip092)" d="
M1316.07 1384.24 L1316.07 1384.24 L1373.93 1384.24 L1373.93 1384.24 L1316.07 1384.24 L1316.07 1384.24  Z
  " fill="#009af9" fill-rule="evenodd" fill-opacity="1"/>
<polyline clip-path="url(#clip092)" style="stroke:#000000; stroke-width:4; stroke-opacity:1; fill:none" points="
  1316.07,1384.24 1316.07,1384.24 1373.93,1384.24 1316.07,1384.24 
  "/>
<path clip-path="url(#clip092)" d="
M1373.93 1384.24 L1373.93 1384.24 L1431.8 1384.24 L1431.8 1384.24 L1373.93 1384.24 L1373.93 1384.24  Z
  " fill="#009af9" fill-rule="evenodd" fill-opacity="1"/>
<polyline clip-path="url(#clip092)" style="stroke:#000000; stroke-width:4; stroke-opacity:1; fill:none" points="
  1373.93,1384.24 1373.93,1384.24 1431.8,1384.24 1373.93,1384.24 
  "/>
<path clip-path="url(#clip092)" d="
M1431.8 1384.24 L1431.8 1384.24 L1489.66 1384.24 L1489.66 1384.24 L1431.8 1384.24 L1431.8 1384.24  Z
  " fill="#009af9" fill-rule="evenodd" fill-opacity="1"/>
<polyline clip-path="url(#clip092)" style="stroke:#000000; stroke-width:4; stroke-opacity:1; fill:none" points="
  1431.8,1384.24 1431.8,1384.24 1489.66,1384.24 1431.8,1384.24 
  "/>
<path clip-path="url(#clip092)" d="
M1489.66 1383.11 L1489.66 1384.24 L1547.53 1384.24 L1547.53 1383.11 L1489.66 1383.11 L1489.66 1383.11  Z
  " fill="#009af9" fill-rule="evenodd" fill-opacity="1"/>
<polyline clip-path="url(#clip092)" style="stroke:#000000; stroke-width:4; stroke-opacity:1; fill:none" points="
  1489.66,1383.11 1489.66,1384.24 1547.53,1384.24 1547.53,1383.11 1489.66,1383.11 
  "/>
<path clip-path="url(#clip092)" d="
M1547.53 1384.24 L1547.53 1384.24 L1605.39 1384.24 L1605.39 1384.24 L1547.53 1384.24 L1547.53 1384.24  Z
  " fill="#009af9" fill-rule="evenodd" fill-opacity="1"/>
<polyline clip-path="url(#clip092)" style="stroke:#000000; stroke-width:4; stroke-opacity:1; fill:none" points="
  1547.53,1384.24 1547.53,1384.24 1605.39,1384.24 1547.53,1384.24 
  "/>
<path clip-path="url(#clip092)" d="
M1605.39 1375.9 L1605.39 1384.24 L1663.26 1384.24 L1663.26 1375.9 L1605.39 1375.9 L1605.39 1375.9  Z
  " fill="#009af9" fill-rule="evenodd" fill-opacity="1"/>
<polyline clip-path="url(#clip092)" style="stroke:#000000; stroke-width:4; stroke-opacity:1; fill:none" points="
  1605.39,1375.9 1605.39,1384.24 1663.26,1384.24 1663.26,1375.9 1605.39,1375.9 
  "/>
<path clip-path="url(#clip092)" d="
M1663.26 1384.24 L1663.26 1384.24 L1721.12 1384.24 L1721.12 1384.24 L1663.26 1384.24 L1663.26 1384.24  Z
  " fill="#009af9" fill-rule="evenodd" fill-opacity="1"/>
<polyline clip-path="url(#clip092)" style="stroke:#000000; stroke-width:4; stroke-opacity:1; fill:none" points="
  1663.26,1384.24 1663.26,1384.24 1721.12,1384.24 1663.26,1384.24 
  "/>
<path clip-path="url(#clip092)" d="
M1721.12 1370.87 L1721.12 1384.24 L1778.98 1384.24 L1778.98 1370.87 L1721.12 1370.87 L1721.12 1370.87  Z
  " fill="#009af9" fill-rule="evenodd" fill-opacity="1"/>
<polyline clip-path="url(#clip092)" style="stroke:#000000; stroke-width:4; stroke-opacity:1; fill:none" points="
  1721.12,1370.87 1721.12,1384.24 1778.98,1384.24 1778.98,1370.87 1721.12,1370.87 
  "/>
<path clip-path="url(#clip092)" d="
M1778.98 1384.24 L1778.98 1384.24 L1836.85 1384.24 L1836.85 1384.24 L1778.98 1384.24 L1778.98 1384.24  Z
  " fill="#009af9" fill-rule="evenodd" fill-opacity="1"/>
<polyline clip-path="url(#clip092)" style="stroke:#000000; stroke-width:4; stroke-opacity:1; fill:none" points="
  1778.98,1384.24 1778.98,1384.24 1836.85,1384.24 1778.98,1384.24 
  "/>
<path clip-path="url(#clip092)" d="
M1836.85 1373.2 L1836.85 1384.24 L1894.71 1384.24 L1894.71 1373.2 L1836.85 1373.2 L1836.85 1373.2  Z
  " fill="#009af9" fill-rule="evenodd" fill-opacity="1"/>
<polyline clip-path="url(#clip092)" style="stroke:#000000; stroke-width:4; stroke-opacity:1; fill:none" points="
  1836.85,1373.2 1836.85,1384.24 1894.71,1384.24 1894.71,1373.2 1836.85,1373.2 
  "/>
<path clip-path="url(#clip092)" d="
M1894.71 1384.24 L1894.71 1384.24 L1952.58 1384.24 L1952.58 1384.24 L1894.71 1384.24 L1894.71 1384.24  Z
  " fill="#009af9" fill-rule="evenodd" fill-opacity="1"/>
<polyline clip-path="url(#clip092)" style="stroke:#000000; stroke-width:4; stroke-opacity:1; fill:none" points="
  1894.71,1384.24 1894.71,1384.24 1952.58,1384.24 1894.71,1384.24 
  "/>
<path clip-path="url(#clip092)" d="
M1952.58 1299.32 L1952.58 1384.24 L2010.44 1384.24 L2010.44 1299.32 L1952.58 1299.32 L1952.58 1299.32  Z
  " fill="#009af9" fill-rule="evenodd" fill-opacity="1"/>
<polyline clip-path="url(#clip092)" style="stroke:#000000; stroke-width:4; stroke-opacity:1; fill:none" points="
  1952.58,1299.32 1952.58,1384.24 2010.44,1384.24 2010.44,1299.32 1952.58,1299.32 
  "/>
<path clip-path="url(#clip092)" d="
M2010.44 1384.24 L2010.44 1384.24 L2068.31 1384.24 L2068.31 1384.24 L2010.44 1384.24 L2010.44 1384.24  Z
  " fill="#009af9" fill-rule="evenodd" fill-opacity="1"/>
<polyline clip-path="url(#clip092)" style="stroke:#000000; stroke-width:4; stroke-opacity:1; fill:none" points="
  2010.44,1384.24 2010.44,1384.24 2068.31,1384.24 2010.44,1384.24 
  "/>
<path clip-path="url(#clip092)" d="
M2068.31 1165.15 L2068.31 1384.24 L2126.17 1384.24 L2126.17 1165.15 L2068.31 1165.15 L2068.31 1165.15  Z
  " fill="#009af9" fill-rule="evenodd" fill-opacity="1"/>
<polyline clip-path="url(#clip092)" style="stroke:#000000; stroke-width:4; stroke-opacity:1; fill:none" points="
  2068.31,1165.15 2068.31,1384.24 2126.17,1384.24 2126.17,1165.15 2068.31,1165.15 
  "/>
<path clip-path="url(#clip092)" d="
M2126.17 1384.24 L2126.17 1384.24 L2184.03 1384.24 L2184.03 1384.24 L2126.17 1384.24 L2126.17 1384.24  Z
  " fill="#009af9" fill-rule="evenodd" fill-opacity="1"/>
<polyline clip-path="url(#clip092)" style="stroke:#000000; stroke-width:4; stroke-opacity:1; fill:none" points="
  2126.17,1384.24 2126.17,1384.24 2184.03,1384.24 2126.17,1384.24 
  "/>
<path clip-path="url(#clip092)" d="
M2184.03 86.1857 L2184.03 1384.24 L2241.9 1384.24 L2241.9 86.1857 L2184.03 86.1857 L2184.03 86.1857  Z
  " fill="#009af9" fill-rule="evenodd" fill-opacity="1"/>
<polyline clip-path="url(#clip092)" style="stroke:#000000; stroke-width:4; stroke-opacity:1; fill:none" points="
  2184.03,86.1857 2184.03,1384.24 2241.9,1384.24 2241.9,86.1857 2184.03,86.1857 
  "/>
</svg>
